G04 EAGLE Gerber RS-274X export*
G75*
%MOMM*%
%FSLAX34Y34*%
%LPD*%
%INTop Paste*%
%IPPOS*%
%AMOC8*
5,1,8,0,0,1.08239X$1,22.5*%
G01*
%ADD10R,0.400000X0.400000*%
%ADD11R,0.400000X0.400000*%


D10*
X-4000Y332900D03*
X4000Y332900D03*
X4000Y324900D03*
X-4000Y324900D03*
D11*
G36*
X-47581Y331509D02*
X-47039Y327547D01*
X-51001Y327005D01*
X-51543Y330967D01*
X-47581Y331509D01*
G37*
G36*
X-39655Y332594D02*
X-39113Y328632D01*
X-43075Y328090D01*
X-43617Y332052D01*
X-39655Y332594D01*
G37*
G36*
X-38569Y324668D02*
X-38027Y320706D01*
X-41989Y320164D01*
X-42531Y324126D01*
X-38569Y324668D01*
G37*
G36*
X-46495Y323583D02*
X-45953Y319621D01*
X-49915Y319079D01*
X-50457Y323041D01*
X-46495Y323583D01*
G37*
G36*
X-92276Y321944D02*
X-91200Y318092D01*
X-95052Y317016D01*
X-96128Y320868D01*
X-92276Y321944D01*
G37*
G36*
X-84571Y324096D02*
X-83495Y320244D01*
X-87347Y319168D01*
X-88423Y323020D01*
X-84571Y324096D01*
G37*
G36*
X-82420Y316391D02*
X-81344Y312539D01*
X-85196Y311463D01*
X-86272Y315315D01*
X-82420Y316391D01*
G37*
G36*
X-90125Y314239D02*
X-89049Y310387D01*
X-92901Y309311D01*
X-93977Y313163D01*
X-90125Y314239D01*
G37*
G36*
X-135261Y306375D02*
X-133666Y302708D01*
X-137333Y301113D01*
X-138928Y304780D01*
X-135261Y306375D01*
G37*
G36*
X-127925Y309565D02*
X-126330Y305898D01*
X-129997Y304303D01*
X-131592Y307970D01*
X-127925Y309565D01*
G37*
G36*
X-124735Y302229D02*
X-123140Y298562D01*
X-126807Y296967D01*
X-128402Y300634D01*
X-124735Y302229D01*
G37*
G36*
X-132071Y299039D02*
X-130476Y295372D01*
X-134143Y293777D01*
X-135738Y297444D01*
X-132071Y299039D01*
G37*
G36*
X-175718Y285105D02*
X-173640Y281689D01*
X-177056Y279611D01*
X-179134Y283027D01*
X-175718Y285105D01*
G37*
G36*
X-168882Y289261D02*
X-166804Y285845D01*
X-170220Y283767D01*
X-172298Y287183D01*
X-168882Y289261D01*
G37*
G36*
X-164726Y282426D02*
X-162648Y279010D01*
X-166064Y276932D01*
X-168142Y280348D01*
X-164726Y282426D01*
G37*
G36*
X-171562Y278270D02*
X-169484Y274854D01*
X-172900Y272776D01*
X-174978Y276192D01*
X-171562Y278270D01*
G37*
G36*
X-212902Y258526D02*
X-210379Y255423D01*
X-213482Y252900D01*
X-216005Y256003D01*
X-212902Y258526D01*
G37*
G36*
X-206693Y263571D02*
X-204170Y260468D01*
X-207273Y257945D01*
X-209796Y261048D01*
X-206693Y263571D01*
G37*
G36*
X-201648Y257363D02*
X-199125Y254260D01*
X-202228Y251737D01*
X-204751Y254840D01*
X-201648Y257363D01*
G37*
G36*
X-207856Y252318D02*
X-205333Y249215D01*
X-208436Y246692D01*
X-210959Y249795D01*
X-207856Y252318D01*
G37*
G36*
X-246119Y227130D02*
X-243200Y224397D01*
X-245933Y221478D01*
X-248852Y224211D01*
X-246119Y227130D01*
G37*
G36*
X-240652Y232971D02*
X-237733Y230238D01*
X-240466Y227319D01*
X-243385Y230052D01*
X-240652Y232971D01*
G37*
G36*
X-234811Y227505D02*
X-231892Y224772D01*
X-234625Y221853D01*
X-237544Y224586D01*
X-234811Y227505D01*
G37*
G36*
X-240277Y221664D02*
X-237358Y218931D01*
X-240091Y216012D01*
X-243010Y218745D01*
X-240277Y221664D01*
G37*
G36*
X-274757Y191494D02*
X-271489Y189188D01*
X-273795Y185920D01*
X-277063Y188226D01*
X-274757Y191494D01*
G37*
G36*
X-270145Y198031D02*
X-266877Y195725D01*
X-269183Y192457D01*
X-272451Y194763D01*
X-270145Y198031D01*
G37*
G36*
X-263608Y193420D02*
X-260340Y191114D01*
X-262646Y187846D01*
X-265914Y190152D01*
X-263608Y193420D01*
G37*
G36*
X-268220Y186883D02*
X-264952Y184577D01*
X-267258Y181309D01*
X-270526Y183615D01*
X-268220Y186883D01*
G37*
G36*
X-298272Y152301D02*
X-294721Y150460D01*
X-296562Y146909D01*
X-300113Y148750D01*
X-298272Y152301D01*
G37*
G36*
X-294591Y159403D02*
X-291040Y157562D01*
X-292881Y154011D01*
X-296432Y155852D01*
X-294591Y159403D01*
G37*
G36*
X-287488Y155722D02*
X-283937Y153881D01*
X-285778Y150330D01*
X-289329Y152171D01*
X-287488Y155722D01*
G37*
G36*
X-291170Y148619D02*
X-287619Y146778D01*
X-289460Y143227D01*
X-293011Y145068D01*
X-291170Y148619D01*
G37*
G36*
X-316233Y110270D02*
X-312465Y108928D01*
X-313807Y105160D01*
X-317575Y106502D01*
X-316233Y110270D01*
G37*
G36*
X-313549Y117807D02*
X-309781Y116465D01*
X-311123Y112697D01*
X-314891Y114039D01*
X-313549Y117807D01*
G37*
G36*
X-306013Y115123D02*
X-302245Y113781D01*
X-303587Y110013D01*
X-307355Y111355D01*
X-306013Y115123D01*
G37*
G36*
X-308696Y107587D02*
X-304928Y106245D01*
X-306270Y102477D01*
X-310038Y103819D01*
X-308696Y107587D01*
G37*
G36*
X-328302Y66185D02*
X-324388Y65367D01*
X-325206Y61453D01*
X-329120Y62271D01*
X-328302Y66185D01*
G37*
G36*
X-326666Y74016D02*
X-322752Y73198D01*
X-323570Y69284D01*
X-327484Y70102D01*
X-326666Y74016D01*
G37*
G36*
X-318835Y72380D02*
X-314921Y71562D01*
X-315739Y67648D01*
X-319653Y68466D01*
X-318835Y72380D01*
G37*
G36*
X-320471Y64549D02*
X-316557Y63731D01*
X-317375Y59817D01*
X-321289Y60635D01*
X-320471Y64549D01*
G37*
G36*
X-334258Y20868D02*
X-330269Y20589D01*
X-330548Y16600D01*
X-334537Y16879D01*
X-334258Y20868D01*
G37*
G36*
X-333699Y28848D02*
X-329710Y28569D01*
X-329989Y24580D01*
X-333978Y24859D01*
X-333699Y28848D01*
G37*
G36*
X-325719Y28290D02*
X-321730Y28011D01*
X-322009Y24022D01*
X-325998Y24301D01*
X-325719Y28290D01*
G37*
G36*
X-326277Y20310D02*
X-322288Y20031D01*
X-322567Y16042D01*
X-326556Y16321D01*
X-326277Y20310D01*
G37*
G36*
X-333978Y-24859D02*
X-329989Y-24580D01*
X-329710Y-28569D01*
X-333699Y-28848D01*
X-333978Y-24859D01*
G37*
G36*
X-334537Y-16879D02*
X-330548Y-16600D01*
X-330269Y-20589D01*
X-334258Y-20868D01*
X-334537Y-16879D01*
G37*
G36*
X-326556Y-16321D02*
X-322567Y-16042D01*
X-322288Y-20031D01*
X-326277Y-20310D01*
X-326556Y-16321D01*
G37*
G36*
X-325998Y-24301D02*
X-322009Y-24022D01*
X-321730Y-28011D01*
X-325719Y-28290D01*
X-325998Y-24301D01*
G37*
G36*
X-327484Y-70102D02*
X-323570Y-69284D01*
X-322752Y-73198D01*
X-326666Y-74016D01*
X-327484Y-70102D01*
G37*
G36*
X-329120Y-62271D02*
X-325206Y-61453D01*
X-324388Y-65367D01*
X-328302Y-66185D01*
X-329120Y-62271D01*
G37*
G36*
X-321289Y-60635D02*
X-317375Y-59817D01*
X-316557Y-63731D01*
X-320471Y-64549D01*
X-321289Y-60635D01*
G37*
G36*
X-319653Y-68466D02*
X-315739Y-67648D01*
X-314921Y-71562D01*
X-318835Y-72380D01*
X-319653Y-68466D01*
G37*
G36*
X-314891Y-114039D02*
X-311123Y-112697D01*
X-309781Y-116465D01*
X-313549Y-117807D01*
X-314891Y-114039D01*
G37*
G36*
X-317575Y-106502D02*
X-313807Y-105160D01*
X-312465Y-108928D01*
X-316233Y-110270D01*
X-317575Y-106502D01*
G37*
G36*
X-310038Y-103819D02*
X-306270Y-102477D01*
X-304928Y-106245D01*
X-308696Y-107587D01*
X-310038Y-103819D01*
G37*
G36*
X-307355Y-111355D02*
X-303587Y-110013D01*
X-302245Y-113781D01*
X-306013Y-115123D01*
X-307355Y-111355D01*
G37*
G36*
X-296432Y-155852D02*
X-292881Y-154011D01*
X-291040Y-157562D01*
X-294591Y-159403D01*
X-296432Y-155852D01*
G37*
G36*
X-300113Y-148750D02*
X-296562Y-146909D01*
X-294721Y-150460D01*
X-298272Y-152301D01*
X-300113Y-148750D01*
G37*
G36*
X-293011Y-145068D02*
X-289460Y-143227D01*
X-287619Y-146778D01*
X-291170Y-148619D01*
X-293011Y-145068D01*
G37*
G36*
X-289329Y-152171D02*
X-285778Y-150330D01*
X-283937Y-153881D01*
X-287488Y-155722D01*
X-289329Y-152171D01*
G37*
G36*
X-272451Y-194763D02*
X-269183Y-192457D01*
X-266877Y-195725D01*
X-270145Y-198031D01*
X-272451Y-194763D01*
G37*
G36*
X-277063Y-188226D02*
X-273795Y-185920D01*
X-271489Y-189188D01*
X-274757Y-191494D01*
X-277063Y-188226D01*
G37*
G36*
X-270526Y-183615D02*
X-267258Y-181309D01*
X-264952Y-184577D01*
X-268220Y-186883D01*
X-270526Y-183615D01*
G37*
G36*
X-265914Y-190152D02*
X-262646Y-187846D01*
X-260340Y-191114D01*
X-263608Y-193420D01*
X-265914Y-190152D01*
G37*
G36*
X-243385Y-230052D02*
X-240466Y-227319D01*
X-237733Y-230238D01*
X-240652Y-232971D01*
X-243385Y-230052D01*
G37*
G36*
X-248852Y-224211D02*
X-245933Y-221478D01*
X-243200Y-224397D01*
X-246119Y-227130D01*
X-248852Y-224211D01*
G37*
G36*
X-243010Y-218745D02*
X-240091Y-216012D01*
X-237358Y-218931D01*
X-240277Y-221664D01*
X-243010Y-218745D01*
G37*
G36*
X-237544Y-224586D02*
X-234625Y-221853D01*
X-231892Y-224772D01*
X-234811Y-227505D01*
X-237544Y-224586D01*
G37*
G36*
X-209796Y-261048D02*
X-207273Y-257945D01*
X-204170Y-260468D01*
X-206693Y-263571D01*
X-209796Y-261048D01*
G37*
G36*
X-216005Y-256003D02*
X-213482Y-252900D01*
X-210379Y-255423D01*
X-212902Y-258526D01*
X-216005Y-256003D01*
G37*
G36*
X-210959Y-249795D02*
X-208436Y-246692D01*
X-205333Y-249215D01*
X-207856Y-252318D01*
X-210959Y-249795D01*
G37*
G36*
X-204751Y-254840D02*
X-202228Y-251737D01*
X-199125Y-254260D01*
X-201648Y-257363D01*
X-204751Y-254840D01*
G37*
G36*
X-172298Y-287183D02*
X-170220Y-283767D01*
X-166804Y-285845D01*
X-168882Y-289261D01*
X-172298Y-287183D01*
G37*
G36*
X-179134Y-283027D02*
X-177056Y-279611D01*
X-173640Y-281689D01*
X-175718Y-285105D01*
X-179134Y-283027D01*
G37*
G36*
X-174978Y-276192D02*
X-172900Y-272776D01*
X-169484Y-274854D01*
X-171562Y-278270D01*
X-174978Y-276192D01*
G37*
G36*
X-168142Y-280348D02*
X-166064Y-276932D01*
X-162648Y-279010D01*
X-164726Y-282426D01*
X-168142Y-280348D01*
G37*
G36*
X-131592Y-307970D02*
X-129997Y-304303D01*
X-126330Y-305898D01*
X-127925Y-309565D01*
X-131592Y-307970D01*
G37*
G36*
X-138928Y-304780D02*
X-137333Y-301113D01*
X-133666Y-302708D01*
X-135261Y-306375D01*
X-138928Y-304780D01*
G37*
G36*
X-135738Y-297444D02*
X-134143Y-293777D01*
X-130476Y-295372D01*
X-132071Y-299039D01*
X-135738Y-297444D01*
G37*
G36*
X-128402Y-300634D02*
X-126807Y-296967D01*
X-123140Y-298562D01*
X-124735Y-302229D01*
X-128402Y-300634D01*
G37*
G36*
X-88423Y-323020D02*
X-87347Y-319168D01*
X-83495Y-320244D01*
X-84571Y-324096D01*
X-88423Y-323020D01*
G37*
G36*
X-96128Y-320868D02*
X-95052Y-317016D01*
X-91200Y-318092D01*
X-92276Y-321944D01*
X-96128Y-320868D01*
G37*
G36*
X-93977Y-313163D02*
X-92901Y-309311D01*
X-89049Y-310387D01*
X-90125Y-314239D01*
X-93977Y-313163D01*
G37*
G36*
X-86272Y-315315D02*
X-85196Y-311463D01*
X-81344Y-312539D01*
X-82420Y-316391D01*
X-86272Y-315315D01*
G37*
G36*
X-43617Y-332052D02*
X-43075Y-328090D01*
X-39113Y-328632D01*
X-39655Y-332594D01*
X-43617Y-332052D01*
G37*
G36*
X-51543Y-330967D02*
X-51001Y-327005D01*
X-47039Y-327547D01*
X-47581Y-331509D01*
X-51543Y-330967D01*
G37*
G36*
X-50457Y-323041D02*
X-49915Y-319079D01*
X-45953Y-319621D01*
X-46495Y-323583D01*
X-50457Y-323041D01*
G37*
G36*
X-42531Y-324126D02*
X-41989Y-320164D01*
X-38027Y-320706D01*
X-38569Y-324668D01*
X-42531Y-324126D01*
G37*
D10*
X4000Y-332900D03*
X-4000Y-332900D03*
X-4000Y-324900D03*
X4000Y-324900D03*
D11*
G36*
X47581Y-331509D02*
X47039Y-327547D01*
X51001Y-327005D01*
X51543Y-330967D01*
X47581Y-331509D01*
G37*
G36*
X39655Y-332594D02*
X39113Y-328632D01*
X43075Y-328090D01*
X43617Y-332052D01*
X39655Y-332594D01*
G37*
G36*
X38569Y-324668D02*
X38027Y-320706D01*
X41989Y-320164D01*
X42531Y-324126D01*
X38569Y-324668D01*
G37*
G36*
X46495Y-323583D02*
X45953Y-319621D01*
X49915Y-319079D01*
X50457Y-323041D01*
X46495Y-323583D01*
G37*
G36*
X92276Y-321944D02*
X91200Y-318092D01*
X95052Y-317016D01*
X96128Y-320868D01*
X92276Y-321944D01*
G37*
G36*
X84571Y-324096D02*
X83495Y-320244D01*
X87347Y-319168D01*
X88423Y-323020D01*
X84571Y-324096D01*
G37*
G36*
X82420Y-316391D02*
X81344Y-312539D01*
X85196Y-311463D01*
X86272Y-315315D01*
X82420Y-316391D01*
G37*
G36*
X90125Y-314239D02*
X89049Y-310387D01*
X92901Y-309311D01*
X93977Y-313163D01*
X90125Y-314239D01*
G37*
G36*
X135261Y-306375D02*
X133666Y-302708D01*
X137333Y-301113D01*
X138928Y-304780D01*
X135261Y-306375D01*
G37*
G36*
X127925Y-309565D02*
X126330Y-305898D01*
X129997Y-304303D01*
X131592Y-307970D01*
X127925Y-309565D01*
G37*
G36*
X124735Y-302229D02*
X123140Y-298562D01*
X126807Y-296967D01*
X128402Y-300634D01*
X124735Y-302229D01*
G37*
G36*
X132071Y-299039D02*
X130476Y-295372D01*
X134143Y-293777D01*
X135738Y-297444D01*
X132071Y-299039D01*
G37*
G36*
X175718Y-285105D02*
X173640Y-281689D01*
X177056Y-279611D01*
X179134Y-283027D01*
X175718Y-285105D01*
G37*
G36*
X168882Y-289261D02*
X166804Y-285845D01*
X170220Y-283767D01*
X172298Y-287183D01*
X168882Y-289261D01*
G37*
G36*
X164726Y-282426D02*
X162648Y-279010D01*
X166064Y-276932D01*
X168142Y-280348D01*
X164726Y-282426D01*
G37*
G36*
X171562Y-278270D02*
X169484Y-274854D01*
X172900Y-272776D01*
X174978Y-276192D01*
X171562Y-278270D01*
G37*
G36*
X212902Y-258526D02*
X210379Y-255423D01*
X213482Y-252900D01*
X216005Y-256003D01*
X212902Y-258526D01*
G37*
G36*
X206693Y-263571D02*
X204170Y-260468D01*
X207273Y-257945D01*
X209796Y-261048D01*
X206693Y-263571D01*
G37*
G36*
X201648Y-257363D02*
X199125Y-254260D01*
X202228Y-251737D01*
X204751Y-254840D01*
X201648Y-257363D01*
G37*
G36*
X207856Y-252318D02*
X205333Y-249215D01*
X208436Y-246692D01*
X210959Y-249795D01*
X207856Y-252318D01*
G37*
G36*
X246119Y-227130D02*
X243200Y-224397D01*
X245933Y-221478D01*
X248852Y-224211D01*
X246119Y-227130D01*
G37*
G36*
X240652Y-232971D02*
X237733Y-230238D01*
X240466Y-227319D01*
X243385Y-230052D01*
X240652Y-232971D01*
G37*
G36*
X234811Y-227505D02*
X231892Y-224772D01*
X234625Y-221853D01*
X237544Y-224586D01*
X234811Y-227505D01*
G37*
G36*
X240277Y-221664D02*
X237358Y-218931D01*
X240091Y-216012D01*
X243010Y-218745D01*
X240277Y-221664D01*
G37*
G36*
X274757Y-191494D02*
X271489Y-189188D01*
X273795Y-185920D01*
X277063Y-188226D01*
X274757Y-191494D01*
G37*
G36*
X270145Y-198031D02*
X266877Y-195725D01*
X269183Y-192457D01*
X272451Y-194763D01*
X270145Y-198031D01*
G37*
G36*
X263608Y-193420D02*
X260340Y-191114D01*
X262646Y-187846D01*
X265914Y-190152D01*
X263608Y-193420D01*
G37*
G36*
X268220Y-186883D02*
X264952Y-184577D01*
X267258Y-181309D01*
X270526Y-183615D01*
X268220Y-186883D01*
G37*
G36*
X298272Y-152301D02*
X294721Y-150460D01*
X296562Y-146909D01*
X300113Y-148750D01*
X298272Y-152301D01*
G37*
G36*
X294591Y-159403D02*
X291040Y-157562D01*
X292881Y-154011D01*
X296432Y-155852D01*
X294591Y-159403D01*
G37*
G36*
X287488Y-155722D02*
X283937Y-153881D01*
X285778Y-150330D01*
X289329Y-152171D01*
X287488Y-155722D01*
G37*
G36*
X291170Y-148619D02*
X287619Y-146778D01*
X289460Y-143227D01*
X293011Y-145068D01*
X291170Y-148619D01*
G37*
G36*
X316233Y-110270D02*
X312465Y-108928D01*
X313807Y-105160D01*
X317575Y-106502D01*
X316233Y-110270D01*
G37*
G36*
X313549Y-117807D02*
X309781Y-116465D01*
X311123Y-112697D01*
X314891Y-114039D01*
X313549Y-117807D01*
G37*
G36*
X306013Y-115123D02*
X302245Y-113781D01*
X303587Y-110013D01*
X307355Y-111355D01*
X306013Y-115123D01*
G37*
G36*
X308696Y-107587D02*
X304928Y-106245D01*
X306270Y-102477D01*
X310038Y-103819D01*
X308696Y-107587D01*
G37*
G36*
X328302Y-66185D02*
X324388Y-65367D01*
X325206Y-61453D01*
X329120Y-62271D01*
X328302Y-66185D01*
G37*
G36*
X326666Y-74016D02*
X322752Y-73198D01*
X323570Y-69284D01*
X327484Y-70102D01*
X326666Y-74016D01*
G37*
G36*
X318835Y-72380D02*
X314921Y-71562D01*
X315739Y-67648D01*
X319653Y-68466D01*
X318835Y-72380D01*
G37*
G36*
X320471Y-64549D02*
X316557Y-63731D01*
X317375Y-59817D01*
X321289Y-60635D01*
X320471Y-64549D01*
G37*
G36*
X334258Y-20868D02*
X330269Y-20589D01*
X330548Y-16600D01*
X334537Y-16879D01*
X334258Y-20868D01*
G37*
G36*
X333699Y-28848D02*
X329710Y-28569D01*
X329989Y-24580D01*
X333978Y-24859D01*
X333699Y-28848D01*
G37*
G36*
X325719Y-28290D02*
X321730Y-28011D01*
X322009Y-24022D01*
X325998Y-24301D01*
X325719Y-28290D01*
G37*
G36*
X326277Y-20310D02*
X322288Y-20031D01*
X322567Y-16042D01*
X326556Y-16321D01*
X326277Y-20310D01*
G37*
G36*
X333978Y24859D02*
X329989Y24580D01*
X329710Y28569D01*
X333699Y28848D01*
X333978Y24859D01*
G37*
G36*
X334537Y16879D02*
X330548Y16600D01*
X330269Y20589D01*
X334258Y20868D01*
X334537Y16879D01*
G37*
G36*
X326556Y16321D02*
X322567Y16042D01*
X322288Y20031D01*
X326277Y20310D01*
X326556Y16321D01*
G37*
G36*
X325998Y24301D02*
X322009Y24022D01*
X321730Y28011D01*
X325719Y28290D01*
X325998Y24301D01*
G37*
G36*
X327484Y70102D02*
X323570Y69284D01*
X322752Y73198D01*
X326666Y74016D01*
X327484Y70102D01*
G37*
G36*
X329120Y62271D02*
X325206Y61453D01*
X324388Y65367D01*
X328302Y66185D01*
X329120Y62271D01*
G37*
G36*
X321289Y60635D02*
X317375Y59817D01*
X316557Y63731D01*
X320471Y64549D01*
X321289Y60635D01*
G37*
G36*
X319653Y68466D02*
X315739Y67648D01*
X314921Y71562D01*
X318835Y72380D01*
X319653Y68466D01*
G37*
G36*
X314891Y114039D02*
X311123Y112697D01*
X309781Y116465D01*
X313549Y117807D01*
X314891Y114039D01*
G37*
G36*
X317575Y106502D02*
X313807Y105160D01*
X312465Y108928D01*
X316233Y110270D01*
X317575Y106502D01*
G37*
G36*
X310038Y103819D02*
X306270Y102477D01*
X304928Y106245D01*
X308696Y107587D01*
X310038Y103819D01*
G37*
G36*
X307355Y111355D02*
X303587Y110013D01*
X302245Y113781D01*
X306013Y115123D01*
X307355Y111355D01*
G37*
G36*
X296432Y155852D02*
X292881Y154011D01*
X291040Y157562D01*
X294591Y159403D01*
X296432Y155852D01*
G37*
G36*
X300113Y148750D02*
X296562Y146909D01*
X294721Y150460D01*
X298272Y152301D01*
X300113Y148750D01*
G37*
G36*
X293011Y145068D02*
X289460Y143227D01*
X287619Y146778D01*
X291170Y148619D01*
X293011Y145068D01*
G37*
G36*
X289329Y152171D02*
X285778Y150330D01*
X283937Y153881D01*
X287488Y155722D01*
X289329Y152171D01*
G37*
G36*
X272451Y194763D02*
X269183Y192457D01*
X266877Y195725D01*
X270145Y198031D01*
X272451Y194763D01*
G37*
G36*
X277063Y188226D02*
X273795Y185920D01*
X271489Y189188D01*
X274757Y191494D01*
X277063Y188226D01*
G37*
G36*
X270526Y183615D02*
X267258Y181309D01*
X264952Y184577D01*
X268220Y186883D01*
X270526Y183615D01*
G37*
G36*
X265914Y190152D02*
X262646Y187846D01*
X260340Y191114D01*
X263608Y193420D01*
X265914Y190152D01*
G37*
G36*
X243385Y230052D02*
X240466Y227319D01*
X237733Y230238D01*
X240652Y232971D01*
X243385Y230052D01*
G37*
G36*
X248852Y224211D02*
X245933Y221478D01*
X243200Y224397D01*
X246119Y227130D01*
X248852Y224211D01*
G37*
G36*
X243010Y218745D02*
X240091Y216012D01*
X237358Y218931D01*
X240277Y221664D01*
X243010Y218745D01*
G37*
G36*
X237544Y224586D02*
X234625Y221853D01*
X231892Y224772D01*
X234811Y227505D01*
X237544Y224586D01*
G37*
G36*
X209796Y261048D02*
X207273Y257945D01*
X204170Y260468D01*
X206693Y263571D01*
X209796Y261048D01*
G37*
G36*
X216005Y256003D02*
X213482Y252900D01*
X210379Y255423D01*
X212902Y258526D01*
X216005Y256003D01*
G37*
G36*
X210959Y249795D02*
X208436Y246692D01*
X205333Y249215D01*
X207856Y252318D01*
X210959Y249795D01*
G37*
G36*
X204751Y254840D02*
X202228Y251737D01*
X199125Y254260D01*
X201648Y257363D01*
X204751Y254840D01*
G37*
G36*
X172298Y287183D02*
X170220Y283767D01*
X166804Y285845D01*
X168882Y289261D01*
X172298Y287183D01*
G37*
G36*
X179134Y283027D02*
X177056Y279611D01*
X173640Y281689D01*
X175718Y285105D01*
X179134Y283027D01*
G37*
G36*
X174978Y276192D02*
X172900Y272776D01*
X169484Y274854D01*
X171562Y278270D01*
X174978Y276192D01*
G37*
G36*
X168142Y280348D02*
X166064Y276932D01*
X162648Y279010D01*
X164726Y282426D01*
X168142Y280348D01*
G37*
G36*
X131592Y307970D02*
X129997Y304303D01*
X126330Y305898D01*
X127925Y309565D01*
X131592Y307970D01*
G37*
G36*
X138928Y304780D02*
X137333Y301113D01*
X133666Y302708D01*
X135261Y306375D01*
X138928Y304780D01*
G37*
G36*
X135738Y297444D02*
X134143Y293777D01*
X130476Y295372D01*
X132071Y299039D01*
X135738Y297444D01*
G37*
G36*
X128402Y300634D02*
X126807Y296967D01*
X123140Y298562D01*
X124735Y302229D01*
X128402Y300634D01*
G37*
G36*
X88423Y323020D02*
X87347Y319168D01*
X83495Y320244D01*
X84571Y324096D01*
X88423Y323020D01*
G37*
G36*
X96128Y320868D02*
X95052Y317016D01*
X91200Y318092D01*
X92276Y321944D01*
X96128Y320868D01*
G37*
G36*
X93977Y313163D02*
X92901Y309311D01*
X89049Y310387D01*
X90125Y314239D01*
X93977Y313163D01*
G37*
G36*
X86272Y315315D02*
X85196Y311463D01*
X81344Y312539D01*
X82420Y316391D01*
X86272Y315315D01*
G37*
G36*
X43617Y332052D02*
X43075Y328090D01*
X39113Y328632D01*
X39655Y332594D01*
X43617Y332052D01*
G37*
G36*
X51543Y330967D02*
X51001Y327005D01*
X47039Y327547D01*
X47581Y331509D01*
X51543Y330967D01*
G37*
G36*
X50457Y323041D02*
X49915Y319079D01*
X45953Y319621D01*
X46495Y323583D01*
X50457Y323041D01*
G37*
G36*
X42531Y324126D02*
X41989Y320164D01*
X38027Y320706D01*
X38569Y324668D01*
X42531Y324126D01*
G37*
D10*
X-4000Y291300D03*
X4000Y291300D03*
X4000Y283300D03*
X-4000Y283300D03*
D11*
G36*
X-47858Y289376D02*
X-47232Y285426D01*
X-51182Y284800D01*
X-51808Y288750D01*
X-47858Y289376D01*
G37*
G36*
X-39957Y290627D02*
X-39331Y286677D01*
X-43281Y286051D01*
X-43907Y290001D01*
X-39957Y290627D01*
G37*
G36*
X-38705Y282726D02*
X-38079Y278776D01*
X-42029Y278150D01*
X-42655Y282100D01*
X-38705Y282726D01*
G37*
G36*
X-46607Y281474D02*
X-45981Y277524D01*
X-49931Y276898D01*
X-50557Y280848D01*
X-46607Y281474D01*
G37*
G36*
X-92537Y278327D02*
X-91301Y274523D01*
X-95105Y273287D01*
X-96341Y277091D01*
X-92537Y278327D01*
G37*
G36*
X-84928Y280799D02*
X-83692Y276995D01*
X-87496Y275759D01*
X-88732Y279563D01*
X-84928Y280799D01*
G37*
G36*
X-82456Y273190D02*
X-81220Y269386D01*
X-85024Y268150D01*
X-86260Y271954D01*
X-82456Y273190D01*
G37*
G36*
X-90065Y270718D02*
X-88829Y266914D01*
X-92633Y265678D01*
X-93869Y269482D01*
X-90065Y270718D01*
G37*
G36*
X-134937Y260423D02*
X-133122Y256860D01*
X-136685Y255045D01*
X-138500Y258608D01*
X-134937Y260423D01*
G37*
G36*
X-127809Y264055D02*
X-125994Y260492D01*
X-129557Y258677D01*
X-131372Y262240D01*
X-127809Y264055D01*
G37*
G36*
X-124177Y256927D02*
X-122362Y253364D01*
X-125925Y251549D01*
X-127740Y255112D01*
X-124177Y256927D01*
G37*
G36*
X-131306Y253295D02*
X-129491Y249732D01*
X-133054Y247917D01*
X-134869Y251480D01*
X-131306Y253295D01*
G37*
G36*
X-174016Y236109D02*
X-171665Y232874D01*
X-174900Y230523D01*
X-177251Y233758D01*
X-174016Y236109D01*
G37*
G36*
X-167544Y240811D02*
X-165193Y237576D01*
X-168428Y235225D01*
X-170779Y238460D01*
X-167544Y240811D01*
G37*
G36*
X-162841Y234339D02*
X-160490Y231104D01*
X-163725Y228753D01*
X-166076Y231988D01*
X-162841Y234339D01*
G37*
G36*
X-169314Y229636D02*
X-166963Y226401D01*
X-170198Y224050D01*
X-172549Y227285D01*
X-169314Y229636D01*
G37*
G36*
X-208809Y205980D02*
X-205981Y203152D01*
X-208809Y200324D01*
X-211637Y203152D01*
X-208809Y205980D01*
G37*
G36*
X-203152Y211637D02*
X-200324Y208809D01*
X-203152Y205981D01*
X-205980Y208809D01*
X-203152Y211637D01*
G37*
G36*
X-197495Y205980D02*
X-194667Y203152D01*
X-197495Y200324D01*
X-200323Y203152D01*
X-197495Y205980D01*
G37*
G36*
X-203152Y200323D02*
X-200324Y197495D01*
X-203152Y194667D01*
X-205980Y197495D01*
X-203152Y200323D01*
G37*
G36*
X-238460Y170779D02*
X-235225Y168428D01*
X-237576Y165193D01*
X-240811Y167544D01*
X-238460Y170779D01*
G37*
G36*
X-233758Y177251D02*
X-230523Y174900D01*
X-232874Y171665D01*
X-236109Y174016D01*
X-233758Y177251D01*
G37*
G36*
X-227285Y172549D02*
X-224050Y170198D01*
X-226401Y166963D01*
X-229636Y169314D01*
X-227285Y172549D01*
G37*
G36*
X-231988Y166076D02*
X-228753Y163725D01*
X-231104Y160490D01*
X-234339Y162841D01*
X-231988Y166076D01*
G37*
G36*
X-262240Y131372D02*
X-258677Y129557D01*
X-260492Y125994D01*
X-264055Y127809D01*
X-262240Y131372D01*
G37*
G36*
X-258608Y138500D02*
X-255045Y136685D01*
X-256860Y133122D01*
X-260423Y134937D01*
X-258608Y138500D01*
G37*
G36*
X-251480Y134869D02*
X-247917Y133054D01*
X-249732Y129491D01*
X-253295Y131306D01*
X-251480Y134869D01*
G37*
G36*
X-255112Y127740D02*
X-251549Y125925D01*
X-253364Y122362D01*
X-256927Y124177D01*
X-255112Y127740D01*
G37*
G36*
X-279563Y88732D02*
X-275759Y87496D01*
X-276995Y83692D01*
X-280799Y84928D01*
X-279563Y88732D01*
G37*
G36*
X-277091Y96341D02*
X-273287Y95105D01*
X-274523Y91301D01*
X-278327Y92537D01*
X-277091Y96341D01*
G37*
G36*
X-269482Y93869D02*
X-265678Y92633D01*
X-266914Y88829D01*
X-270718Y90065D01*
X-269482Y93869D01*
G37*
G36*
X-271954Y86260D02*
X-268150Y85024D01*
X-269386Y81220D01*
X-273190Y82456D01*
X-271954Y86260D01*
G37*
G36*
X-290001Y43907D02*
X-286051Y43281D01*
X-286677Y39331D01*
X-290627Y39957D01*
X-290001Y43907D01*
G37*
G36*
X-288750Y51808D02*
X-284800Y51182D01*
X-285426Y47232D01*
X-289376Y47858D01*
X-288750Y51808D01*
G37*
G36*
X-280848Y50557D02*
X-276898Y49931D01*
X-277524Y45981D01*
X-281474Y46607D01*
X-280848Y50557D01*
G37*
G36*
X-282100Y42655D02*
X-278150Y42029D01*
X-278776Y38079D01*
X-282726Y38705D01*
X-282100Y42655D01*
G37*
D10*
X-291300Y-4000D03*
X-291300Y4000D03*
X-283300Y4000D03*
X-283300Y-4000D03*
D11*
G36*
X-289376Y-47858D02*
X-285426Y-47232D01*
X-284800Y-51182D01*
X-288750Y-51808D01*
X-289376Y-47858D01*
G37*
G36*
X-290627Y-39957D02*
X-286677Y-39331D01*
X-286051Y-43281D01*
X-290001Y-43907D01*
X-290627Y-39957D01*
G37*
G36*
X-282726Y-38705D02*
X-278776Y-38079D01*
X-278150Y-42029D01*
X-282100Y-42655D01*
X-282726Y-38705D01*
G37*
G36*
X-281474Y-46607D02*
X-277524Y-45981D01*
X-276898Y-49931D01*
X-280848Y-50557D01*
X-281474Y-46607D01*
G37*
G36*
X-278327Y-92537D02*
X-274523Y-91301D01*
X-273287Y-95105D01*
X-277091Y-96341D01*
X-278327Y-92537D01*
G37*
G36*
X-280799Y-84928D02*
X-276995Y-83692D01*
X-275759Y-87496D01*
X-279563Y-88732D01*
X-280799Y-84928D01*
G37*
G36*
X-273190Y-82456D02*
X-269386Y-81220D01*
X-268150Y-85024D01*
X-271954Y-86260D01*
X-273190Y-82456D01*
G37*
G36*
X-270718Y-90065D02*
X-266914Y-88829D01*
X-265678Y-92633D01*
X-269482Y-93869D01*
X-270718Y-90065D01*
G37*
G36*
X-260423Y-134937D02*
X-256860Y-133122D01*
X-255045Y-136685D01*
X-258608Y-138500D01*
X-260423Y-134937D01*
G37*
G36*
X-264055Y-127809D02*
X-260492Y-125994D01*
X-258677Y-129557D01*
X-262240Y-131372D01*
X-264055Y-127809D01*
G37*
G36*
X-256927Y-124177D02*
X-253364Y-122362D01*
X-251549Y-125925D01*
X-255112Y-127740D01*
X-256927Y-124177D01*
G37*
G36*
X-253295Y-131306D02*
X-249732Y-129491D01*
X-247917Y-133054D01*
X-251480Y-134869D01*
X-253295Y-131306D01*
G37*
G36*
X-236109Y-174016D02*
X-232874Y-171665D01*
X-230523Y-174900D01*
X-233758Y-177251D01*
X-236109Y-174016D01*
G37*
G36*
X-240811Y-167544D02*
X-237576Y-165193D01*
X-235225Y-168428D01*
X-238460Y-170779D01*
X-240811Y-167544D01*
G37*
G36*
X-234339Y-162841D02*
X-231104Y-160490D01*
X-228753Y-163725D01*
X-231988Y-166076D01*
X-234339Y-162841D01*
G37*
G36*
X-229636Y-169314D02*
X-226401Y-166963D01*
X-224050Y-170198D01*
X-227285Y-172549D01*
X-229636Y-169314D01*
G37*
G36*
X-205980Y-208809D02*
X-203152Y-205981D01*
X-200324Y-208809D01*
X-203152Y-211637D01*
X-205980Y-208809D01*
G37*
G36*
X-211637Y-203152D02*
X-208809Y-200324D01*
X-205981Y-203152D01*
X-208809Y-205980D01*
X-211637Y-203152D01*
G37*
G36*
X-205980Y-197495D02*
X-203152Y-194667D01*
X-200324Y-197495D01*
X-203152Y-200323D01*
X-205980Y-197495D01*
G37*
G36*
X-200323Y-203152D02*
X-197495Y-200324D01*
X-194667Y-203152D01*
X-197495Y-205980D01*
X-200323Y-203152D01*
G37*
G36*
X-170779Y-238460D02*
X-168428Y-235225D01*
X-165193Y-237576D01*
X-167544Y-240811D01*
X-170779Y-238460D01*
G37*
G36*
X-177251Y-233758D02*
X-174900Y-230523D01*
X-171665Y-232874D01*
X-174016Y-236109D01*
X-177251Y-233758D01*
G37*
G36*
X-172549Y-227285D02*
X-170198Y-224050D01*
X-166963Y-226401D01*
X-169314Y-229636D01*
X-172549Y-227285D01*
G37*
G36*
X-166076Y-231988D02*
X-163725Y-228753D01*
X-160490Y-231104D01*
X-162841Y-234339D01*
X-166076Y-231988D01*
G37*
G36*
X-131372Y-262240D02*
X-129557Y-258677D01*
X-125994Y-260492D01*
X-127809Y-264055D01*
X-131372Y-262240D01*
G37*
G36*
X-138500Y-258608D02*
X-136685Y-255045D01*
X-133122Y-256860D01*
X-134937Y-260423D01*
X-138500Y-258608D01*
G37*
G36*
X-134869Y-251480D02*
X-133054Y-247917D01*
X-129491Y-249732D01*
X-131306Y-253295D01*
X-134869Y-251480D01*
G37*
G36*
X-127740Y-255112D02*
X-125925Y-251549D01*
X-122362Y-253364D01*
X-124177Y-256927D01*
X-127740Y-255112D01*
G37*
G36*
X-88732Y-279563D02*
X-87496Y-275759D01*
X-83692Y-276995D01*
X-84928Y-280799D01*
X-88732Y-279563D01*
G37*
G36*
X-96341Y-277091D02*
X-95105Y-273287D01*
X-91301Y-274523D01*
X-92537Y-278327D01*
X-96341Y-277091D01*
G37*
G36*
X-93869Y-269482D02*
X-92633Y-265678D01*
X-88829Y-266914D01*
X-90065Y-270718D01*
X-93869Y-269482D01*
G37*
G36*
X-86260Y-271954D02*
X-85024Y-268150D01*
X-81220Y-269386D01*
X-82456Y-273190D01*
X-86260Y-271954D01*
G37*
G36*
X-43907Y-290001D02*
X-43281Y-286051D01*
X-39331Y-286677D01*
X-39957Y-290627D01*
X-43907Y-290001D01*
G37*
G36*
X-51808Y-288750D02*
X-51182Y-284800D01*
X-47232Y-285426D01*
X-47858Y-289376D01*
X-51808Y-288750D01*
G37*
G36*
X-50557Y-280848D02*
X-49931Y-276898D01*
X-45981Y-277524D01*
X-46607Y-281474D01*
X-50557Y-280848D01*
G37*
G36*
X-42655Y-282100D02*
X-42029Y-278150D01*
X-38079Y-278776D01*
X-38705Y-282726D01*
X-42655Y-282100D01*
G37*
D10*
X4000Y-291300D03*
X-4000Y-291300D03*
X-4000Y-283300D03*
X4000Y-283300D03*
D11*
G36*
X47858Y-289376D02*
X47232Y-285426D01*
X51182Y-284800D01*
X51808Y-288750D01*
X47858Y-289376D01*
G37*
G36*
X39957Y-290627D02*
X39331Y-286677D01*
X43281Y-286051D01*
X43907Y-290001D01*
X39957Y-290627D01*
G37*
G36*
X38705Y-282726D02*
X38079Y-278776D01*
X42029Y-278150D01*
X42655Y-282100D01*
X38705Y-282726D01*
G37*
G36*
X46607Y-281474D02*
X45981Y-277524D01*
X49931Y-276898D01*
X50557Y-280848D01*
X46607Y-281474D01*
G37*
G36*
X92537Y-278327D02*
X91301Y-274523D01*
X95105Y-273287D01*
X96341Y-277091D01*
X92537Y-278327D01*
G37*
G36*
X84928Y-280799D02*
X83692Y-276995D01*
X87496Y-275759D01*
X88732Y-279563D01*
X84928Y-280799D01*
G37*
G36*
X82456Y-273190D02*
X81220Y-269386D01*
X85024Y-268150D01*
X86260Y-271954D01*
X82456Y-273190D01*
G37*
G36*
X90065Y-270718D02*
X88829Y-266914D01*
X92633Y-265678D01*
X93869Y-269482D01*
X90065Y-270718D01*
G37*
G36*
X134937Y-260423D02*
X133122Y-256860D01*
X136685Y-255045D01*
X138500Y-258608D01*
X134937Y-260423D01*
G37*
G36*
X127809Y-264055D02*
X125994Y-260492D01*
X129557Y-258677D01*
X131372Y-262240D01*
X127809Y-264055D01*
G37*
G36*
X124177Y-256927D02*
X122362Y-253364D01*
X125925Y-251549D01*
X127740Y-255112D01*
X124177Y-256927D01*
G37*
G36*
X131306Y-253295D02*
X129491Y-249732D01*
X133054Y-247917D01*
X134869Y-251480D01*
X131306Y-253295D01*
G37*
G36*
X174016Y-236109D02*
X171665Y-232874D01*
X174900Y-230523D01*
X177251Y-233758D01*
X174016Y-236109D01*
G37*
G36*
X167544Y-240811D02*
X165193Y-237576D01*
X168428Y-235225D01*
X170779Y-238460D01*
X167544Y-240811D01*
G37*
G36*
X162841Y-234339D02*
X160490Y-231104D01*
X163725Y-228753D01*
X166076Y-231988D01*
X162841Y-234339D01*
G37*
G36*
X169314Y-229636D02*
X166963Y-226401D01*
X170198Y-224050D01*
X172549Y-227285D01*
X169314Y-229636D01*
G37*
G36*
X208809Y-205980D02*
X205981Y-203152D01*
X208809Y-200324D01*
X211637Y-203152D01*
X208809Y-205980D01*
G37*
G36*
X203152Y-211637D02*
X200324Y-208809D01*
X203152Y-205981D01*
X205980Y-208809D01*
X203152Y-211637D01*
G37*
G36*
X197495Y-205980D02*
X194667Y-203152D01*
X197495Y-200324D01*
X200323Y-203152D01*
X197495Y-205980D01*
G37*
G36*
X203152Y-200323D02*
X200324Y-197495D01*
X203152Y-194667D01*
X205980Y-197495D01*
X203152Y-200323D01*
G37*
G36*
X238460Y-170779D02*
X235225Y-168428D01*
X237576Y-165193D01*
X240811Y-167544D01*
X238460Y-170779D01*
G37*
G36*
X233758Y-177251D02*
X230523Y-174900D01*
X232874Y-171665D01*
X236109Y-174016D01*
X233758Y-177251D01*
G37*
G36*
X227285Y-172549D02*
X224050Y-170198D01*
X226401Y-166963D01*
X229636Y-169314D01*
X227285Y-172549D01*
G37*
G36*
X231988Y-166076D02*
X228753Y-163725D01*
X231104Y-160490D01*
X234339Y-162841D01*
X231988Y-166076D01*
G37*
G36*
X262240Y-131372D02*
X258677Y-129557D01*
X260492Y-125994D01*
X264055Y-127809D01*
X262240Y-131372D01*
G37*
G36*
X258608Y-138500D02*
X255045Y-136685D01*
X256860Y-133122D01*
X260423Y-134937D01*
X258608Y-138500D01*
G37*
G36*
X251480Y-134869D02*
X247917Y-133054D01*
X249732Y-129491D01*
X253295Y-131306D01*
X251480Y-134869D01*
G37*
G36*
X255112Y-127740D02*
X251549Y-125925D01*
X253364Y-122362D01*
X256927Y-124177D01*
X255112Y-127740D01*
G37*
G36*
X279563Y-88732D02*
X275759Y-87496D01*
X276995Y-83692D01*
X280799Y-84928D01*
X279563Y-88732D01*
G37*
G36*
X277091Y-96341D02*
X273287Y-95105D01*
X274523Y-91301D01*
X278327Y-92537D01*
X277091Y-96341D01*
G37*
G36*
X269482Y-93869D02*
X265678Y-92633D01*
X266914Y-88829D01*
X270718Y-90065D01*
X269482Y-93869D01*
G37*
G36*
X271954Y-86260D02*
X268150Y-85024D01*
X269386Y-81220D01*
X273190Y-82456D01*
X271954Y-86260D01*
G37*
G36*
X290001Y-43907D02*
X286051Y-43281D01*
X286677Y-39331D01*
X290627Y-39957D01*
X290001Y-43907D01*
G37*
G36*
X288750Y-51808D02*
X284800Y-51182D01*
X285426Y-47232D01*
X289376Y-47858D01*
X288750Y-51808D01*
G37*
G36*
X280848Y-50557D02*
X276898Y-49931D01*
X277524Y-45981D01*
X281474Y-46607D01*
X280848Y-50557D01*
G37*
G36*
X282100Y-42655D02*
X278150Y-42029D01*
X278776Y-38079D01*
X282726Y-38705D01*
X282100Y-42655D01*
G37*
D10*
X291300Y4000D03*
X291300Y-4000D03*
X283300Y-4000D03*
X283300Y4000D03*
D11*
G36*
X289376Y47858D02*
X285426Y47232D01*
X284800Y51182D01*
X288750Y51808D01*
X289376Y47858D01*
G37*
G36*
X290627Y39957D02*
X286677Y39331D01*
X286051Y43281D01*
X290001Y43907D01*
X290627Y39957D01*
G37*
G36*
X282726Y38705D02*
X278776Y38079D01*
X278150Y42029D01*
X282100Y42655D01*
X282726Y38705D01*
G37*
G36*
X281474Y46607D02*
X277524Y45981D01*
X276898Y49931D01*
X280848Y50557D01*
X281474Y46607D01*
G37*
G36*
X278327Y92537D02*
X274523Y91301D01*
X273287Y95105D01*
X277091Y96341D01*
X278327Y92537D01*
G37*
G36*
X280799Y84928D02*
X276995Y83692D01*
X275759Y87496D01*
X279563Y88732D01*
X280799Y84928D01*
G37*
G36*
X273190Y82456D02*
X269386Y81220D01*
X268150Y85024D01*
X271954Y86260D01*
X273190Y82456D01*
G37*
G36*
X270718Y90065D02*
X266914Y88829D01*
X265678Y92633D01*
X269482Y93869D01*
X270718Y90065D01*
G37*
G36*
X260423Y134937D02*
X256860Y133122D01*
X255045Y136685D01*
X258608Y138500D01*
X260423Y134937D01*
G37*
G36*
X264055Y127809D02*
X260492Y125994D01*
X258677Y129557D01*
X262240Y131372D01*
X264055Y127809D01*
G37*
G36*
X256927Y124177D02*
X253364Y122362D01*
X251549Y125925D01*
X255112Y127740D01*
X256927Y124177D01*
G37*
G36*
X253295Y131306D02*
X249732Y129491D01*
X247917Y133054D01*
X251480Y134869D01*
X253295Y131306D01*
G37*
G36*
X236109Y174016D02*
X232874Y171665D01*
X230523Y174900D01*
X233758Y177251D01*
X236109Y174016D01*
G37*
G36*
X240811Y167544D02*
X237576Y165193D01*
X235225Y168428D01*
X238460Y170779D01*
X240811Y167544D01*
G37*
G36*
X234339Y162841D02*
X231104Y160490D01*
X228753Y163725D01*
X231988Y166076D01*
X234339Y162841D01*
G37*
G36*
X229636Y169314D02*
X226401Y166963D01*
X224050Y170198D01*
X227285Y172549D01*
X229636Y169314D01*
G37*
G36*
X205980Y208809D02*
X203152Y205981D01*
X200324Y208809D01*
X203152Y211637D01*
X205980Y208809D01*
G37*
G36*
X211637Y203152D02*
X208809Y200324D01*
X205981Y203152D01*
X208809Y205980D01*
X211637Y203152D01*
G37*
G36*
X205980Y197495D02*
X203152Y194667D01*
X200324Y197495D01*
X203152Y200323D01*
X205980Y197495D01*
G37*
G36*
X200323Y203152D02*
X197495Y200324D01*
X194667Y203152D01*
X197495Y205980D01*
X200323Y203152D01*
G37*
G36*
X170779Y238460D02*
X168428Y235225D01*
X165193Y237576D01*
X167544Y240811D01*
X170779Y238460D01*
G37*
G36*
X177251Y233758D02*
X174900Y230523D01*
X171665Y232874D01*
X174016Y236109D01*
X177251Y233758D01*
G37*
G36*
X172549Y227285D02*
X170198Y224050D01*
X166963Y226401D01*
X169314Y229636D01*
X172549Y227285D01*
G37*
G36*
X166076Y231988D02*
X163725Y228753D01*
X160490Y231104D01*
X162841Y234339D01*
X166076Y231988D01*
G37*
G36*
X131372Y262240D02*
X129557Y258677D01*
X125994Y260492D01*
X127809Y264055D01*
X131372Y262240D01*
G37*
G36*
X138500Y258608D02*
X136685Y255045D01*
X133122Y256860D01*
X134937Y260423D01*
X138500Y258608D01*
G37*
G36*
X134869Y251480D02*
X133054Y247917D01*
X129491Y249732D01*
X131306Y253295D01*
X134869Y251480D01*
G37*
G36*
X127740Y255112D02*
X125925Y251549D01*
X122362Y253364D01*
X124177Y256927D01*
X127740Y255112D01*
G37*
G36*
X88732Y279563D02*
X87496Y275759D01*
X83692Y276995D01*
X84928Y280799D01*
X88732Y279563D01*
G37*
G36*
X96341Y277091D02*
X95105Y273287D01*
X91301Y274523D01*
X92537Y278327D01*
X96341Y277091D01*
G37*
G36*
X93869Y269482D02*
X92633Y265678D01*
X88829Y266914D01*
X90065Y270718D01*
X93869Y269482D01*
G37*
G36*
X86260Y271954D02*
X85024Y268150D01*
X81220Y269386D01*
X82456Y273190D01*
X86260Y271954D01*
G37*
G36*
X43907Y290001D02*
X43281Y286051D01*
X39331Y286677D01*
X39957Y290627D01*
X43907Y290001D01*
G37*
G36*
X51808Y288750D02*
X51182Y284800D01*
X47232Y285426D01*
X47858Y289376D01*
X51808Y288750D01*
G37*
G36*
X50557Y280848D02*
X49931Y276898D01*
X45981Y277524D01*
X46607Y281474D01*
X50557Y280848D01*
G37*
G36*
X42655Y282100D02*
X42029Y278150D01*
X38079Y278776D01*
X38705Y282726D01*
X42655Y282100D01*
G37*
D10*
X-4000Y249700D03*
X4000Y249700D03*
X4000Y241700D03*
X-4000Y241700D03*
D11*
G36*
X-48207Y247051D02*
X-47479Y243119D01*
X-51411Y242391D01*
X-52139Y246323D01*
X-48207Y247051D01*
G37*
G36*
X-40341Y248508D02*
X-39613Y244576D01*
X-43545Y243848D01*
X-44273Y247780D01*
X-40341Y248508D01*
G37*
G36*
X-38883Y240642D02*
X-38155Y236710D01*
X-42087Y235982D01*
X-42815Y239914D01*
X-38883Y240642D01*
G37*
G36*
X-46749Y239185D02*
X-46021Y235253D01*
X-49953Y234525D01*
X-50681Y238457D01*
X-46749Y239185D01*
G37*
G36*
X-92792Y233978D02*
X-91346Y230250D01*
X-95074Y228804D01*
X-96520Y232532D01*
X-92792Y233978D01*
G37*
G36*
X-85333Y236871D02*
X-83887Y233143D01*
X-87615Y231697D01*
X-89061Y235425D01*
X-85333Y236871D01*
G37*
G36*
X-82440Y229413D02*
X-80994Y225685D01*
X-84722Y224239D01*
X-86168Y227967D01*
X-82440Y229413D01*
G37*
G36*
X-89899Y226520D02*
X-88453Y222792D01*
X-92181Y221346D01*
X-93627Y225074D01*
X-89899Y226520D01*
G37*
G36*
X-134200Y212952D02*
X-132098Y209550D01*
X-135500Y207448D01*
X-137602Y210850D01*
X-134200Y212952D01*
G37*
G36*
X-127393Y217155D02*
X-125291Y213753D01*
X-128693Y211651D01*
X-130795Y215053D01*
X-127393Y217155D01*
G37*
G36*
X-123189Y210349D02*
X-121087Y206947D01*
X-124489Y204845D01*
X-126591Y208247D01*
X-123189Y210349D01*
G37*
G36*
X-129996Y206145D02*
X-127894Y202743D01*
X-131296Y200641D01*
X-133398Y204043D01*
X-129996Y206145D01*
G37*
G36*
X-171050Y184656D02*
X-168353Y181703D01*
X-171306Y179006D01*
X-174003Y181959D01*
X-171050Y184656D01*
G37*
G36*
X-165142Y190051D02*
X-162445Y187098D01*
X-165398Y184401D01*
X-168095Y187354D01*
X-165142Y190051D01*
G37*
G36*
X-159748Y184143D02*
X-157051Y181190D01*
X-160004Y178493D01*
X-162701Y181446D01*
X-159748Y184143D01*
G37*
G36*
X-165656Y178748D02*
X-162959Y175795D01*
X-165912Y173098D01*
X-168609Y176051D01*
X-165656Y178748D01*
G37*
G36*
X-202064Y150091D02*
X-198875Y147678D01*
X-201288Y144489D01*
X-204477Y146902D01*
X-202064Y150091D01*
G37*
G36*
X-197238Y156472D02*
X-194049Y154059D01*
X-196462Y150870D01*
X-199651Y153283D01*
X-197238Y156472D01*
G37*
G36*
X-190858Y151646D02*
X-187669Y149233D01*
X-190082Y146044D01*
X-193271Y148457D01*
X-190858Y151646D01*
G37*
G36*
X-195683Y145265D02*
X-192494Y142852D01*
X-194907Y139663D01*
X-198096Y142076D01*
X-195683Y145265D01*
G37*
G36*
X-226203Y110405D02*
X-222624Y108620D01*
X-224409Y105041D01*
X-227988Y106826D01*
X-226203Y110405D01*
G37*
G36*
X-222634Y117564D02*
X-219055Y115779D01*
X-220840Y112200D01*
X-224419Y113985D01*
X-222634Y117564D01*
G37*
G36*
X-215474Y113995D02*
X-211895Y112210D01*
X-213680Y108631D01*
X-217259Y110416D01*
X-215474Y113995D01*
G37*
G36*
X-219044Y106835D02*
X-215465Y105050D01*
X-217250Y101471D01*
X-220829Y103256D01*
X-219044Y106835D01*
G37*
G36*
X-242638Y66959D02*
X-238792Y65863D01*
X-239888Y62017D01*
X-243734Y63113D01*
X-242638Y66959D01*
G37*
G36*
X-240447Y74653D02*
X-236601Y73557D01*
X-237697Y69711D01*
X-241543Y70807D01*
X-240447Y74653D01*
G37*
G36*
X-232753Y72461D02*
X-228907Y71365D01*
X-230003Y67519D01*
X-233849Y68615D01*
X-232753Y72461D01*
G37*
G36*
X-234944Y64767D02*
X-231098Y63671D01*
X-232194Y59825D01*
X-236040Y60921D01*
X-234944Y64767D01*
G37*
G36*
X-250810Y21233D02*
X-246828Y20863D01*
X-247198Y16881D01*
X-251180Y17251D01*
X-250810Y21233D01*
G37*
G36*
X-250071Y29199D02*
X-246089Y28829D01*
X-246459Y24847D01*
X-250441Y25217D01*
X-250071Y29199D01*
G37*
G36*
X-242105Y28460D02*
X-238123Y28090D01*
X-238493Y24108D01*
X-242475Y24478D01*
X-242105Y28460D01*
G37*
G36*
X-242844Y20494D02*
X-238862Y20124D01*
X-239232Y16142D01*
X-243214Y16512D01*
X-242844Y20494D01*
G37*
G36*
X-250441Y-25217D02*
X-246459Y-24847D01*
X-246089Y-28829D01*
X-250071Y-29199D01*
X-250441Y-25217D01*
G37*
G36*
X-251180Y-17251D02*
X-247198Y-16881D01*
X-246828Y-20863D01*
X-250810Y-21233D01*
X-251180Y-17251D01*
G37*
G36*
X-243214Y-16512D02*
X-239232Y-16142D01*
X-238862Y-20124D01*
X-242844Y-20494D01*
X-243214Y-16512D01*
G37*
G36*
X-242475Y-24478D02*
X-238493Y-24108D01*
X-238123Y-28090D01*
X-242105Y-28460D01*
X-242475Y-24478D01*
G37*
G36*
X-241543Y-70807D02*
X-237697Y-69711D01*
X-236601Y-73557D01*
X-240447Y-74653D01*
X-241543Y-70807D01*
G37*
G36*
X-243734Y-63113D02*
X-239888Y-62017D01*
X-238792Y-65863D01*
X-242638Y-66959D01*
X-243734Y-63113D01*
G37*
G36*
X-236040Y-60921D02*
X-232194Y-59825D01*
X-231098Y-63671D01*
X-234944Y-64767D01*
X-236040Y-60921D01*
G37*
G36*
X-233849Y-68615D02*
X-230003Y-67519D01*
X-228907Y-71365D01*
X-232753Y-72461D01*
X-233849Y-68615D01*
G37*
G36*
X-224419Y-113985D02*
X-220840Y-112200D01*
X-219055Y-115779D01*
X-222634Y-117564D01*
X-224419Y-113985D01*
G37*
G36*
X-227988Y-106826D02*
X-224409Y-105041D01*
X-222624Y-108620D01*
X-226203Y-110405D01*
X-227988Y-106826D01*
G37*
G36*
X-220829Y-103256D02*
X-217250Y-101471D01*
X-215465Y-105050D01*
X-219044Y-106835D01*
X-220829Y-103256D01*
G37*
G36*
X-217259Y-110416D02*
X-213680Y-108631D01*
X-211895Y-112210D01*
X-215474Y-113995D01*
X-217259Y-110416D01*
G37*
G36*
X-199651Y-153283D02*
X-196462Y-150870D01*
X-194049Y-154059D01*
X-197238Y-156472D01*
X-199651Y-153283D01*
G37*
G36*
X-204477Y-146902D02*
X-201288Y-144489D01*
X-198875Y-147678D01*
X-202064Y-150091D01*
X-204477Y-146902D01*
G37*
G36*
X-198096Y-142076D02*
X-194907Y-139663D01*
X-192494Y-142852D01*
X-195683Y-145265D01*
X-198096Y-142076D01*
G37*
G36*
X-193271Y-148457D02*
X-190082Y-146044D01*
X-187669Y-149233D01*
X-190858Y-151646D01*
X-193271Y-148457D01*
G37*
G36*
X-168095Y-187354D02*
X-165398Y-184401D01*
X-162445Y-187098D01*
X-165142Y-190051D01*
X-168095Y-187354D01*
G37*
G36*
X-174003Y-181959D02*
X-171306Y-179006D01*
X-168353Y-181703D01*
X-171050Y-184656D01*
X-174003Y-181959D01*
G37*
G36*
X-168609Y-176051D02*
X-165912Y-173098D01*
X-162959Y-175795D01*
X-165656Y-178748D01*
X-168609Y-176051D01*
G37*
G36*
X-162701Y-181446D02*
X-160004Y-178493D01*
X-157051Y-181190D01*
X-159748Y-184143D01*
X-162701Y-181446D01*
G37*
G36*
X-130795Y-215053D02*
X-128693Y-211651D01*
X-125291Y-213753D01*
X-127393Y-217155D01*
X-130795Y-215053D01*
G37*
G36*
X-137602Y-210850D02*
X-135500Y-207448D01*
X-132098Y-209550D01*
X-134200Y-212952D01*
X-137602Y-210850D01*
G37*
G36*
X-133398Y-204043D02*
X-131296Y-200641D01*
X-127894Y-202743D01*
X-129996Y-206145D01*
X-133398Y-204043D01*
G37*
G36*
X-126591Y-208247D02*
X-124489Y-204845D01*
X-121087Y-206947D01*
X-123189Y-210349D01*
X-126591Y-208247D01*
G37*
G36*
X-89061Y-235425D02*
X-87615Y-231697D01*
X-83887Y-233143D01*
X-85333Y-236871D01*
X-89061Y-235425D01*
G37*
G36*
X-96520Y-232532D02*
X-95074Y-228804D01*
X-91346Y-230250D01*
X-92792Y-233978D01*
X-96520Y-232532D01*
G37*
G36*
X-93627Y-225074D02*
X-92181Y-221346D01*
X-88453Y-222792D01*
X-89899Y-226520D01*
X-93627Y-225074D01*
G37*
G36*
X-86168Y-227967D02*
X-84722Y-224239D01*
X-80994Y-225685D01*
X-82440Y-229413D01*
X-86168Y-227967D01*
G37*
G36*
X-44273Y-247780D02*
X-43545Y-243848D01*
X-39613Y-244576D01*
X-40341Y-248508D01*
X-44273Y-247780D01*
G37*
G36*
X-52139Y-246323D02*
X-51411Y-242391D01*
X-47479Y-243119D01*
X-48207Y-247051D01*
X-52139Y-246323D01*
G37*
G36*
X-50681Y-238457D02*
X-49953Y-234525D01*
X-46021Y-235253D01*
X-46749Y-239185D01*
X-50681Y-238457D01*
G37*
G36*
X-42815Y-239914D02*
X-42087Y-235982D01*
X-38155Y-236710D01*
X-38883Y-240642D01*
X-42815Y-239914D01*
G37*
D10*
X4000Y-249700D03*
X-4000Y-249700D03*
X-4000Y-241700D03*
X4000Y-241700D03*
D11*
G36*
X48207Y-247051D02*
X47479Y-243119D01*
X51411Y-242391D01*
X52139Y-246323D01*
X48207Y-247051D01*
G37*
G36*
X40341Y-248508D02*
X39613Y-244576D01*
X43545Y-243848D01*
X44273Y-247780D01*
X40341Y-248508D01*
G37*
G36*
X38883Y-240642D02*
X38155Y-236710D01*
X42087Y-235982D01*
X42815Y-239914D01*
X38883Y-240642D01*
G37*
G36*
X46749Y-239185D02*
X46021Y-235253D01*
X49953Y-234525D01*
X50681Y-238457D01*
X46749Y-239185D01*
G37*
G36*
X92792Y-233978D02*
X91346Y-230250D01*
X95074Y-228804D01*
X96520Y-232532D01*
X92792Y-233978D01*
G37*
G36*
X85333Y-236871D02*
X83887Y-233143D01*
X87615Y-231697D01*
X89061Y-235425D01*
X85333Y-236871D01*
G37*
G36*
X82440Y-229413D02*
X80994Y-225685D01*
X84722Y-224239D01*
X86168Y-227967D01*
X82440Y-229413D01*
G37*
G36*
X89899Y-226520D02*
X88453Y-222792D01*
X92181Y-221346D01*
X93627Y-225074D01*
X89899Y-226520D01*
G37*
G36*
X134200Y-212952D02*
X132098Y-209550D01*
X135500Y-207448D01*
X137602Y-210850D01*
X134200Y-212952D01*
G37*
G36*
X127393Y-217155D02*
X125291Y-213753D01*
X128693Y-211651D01*
X130795Y-215053D01*
X127393Y-217155D01*
G37*
G36*
X123189Y-210349D02*
X121087Y-206947D01*
X124489Y-204845D01*
X126591Y-208247D01*
X123189Y-210349D01*
G37*
G36*
X129996Y-206145D02*
X127894Y-202743D01*
X131296Y-200641D01*
X133398Y-204043D01*
X129996Y-206145D01*
G37*
G36*
X171050Y-184656D02*
X168353Y-181703D01*
X171306Y-179006D01*
X174003Y-181959D01*
X171050Y-184656D01*
G37*
G36*
X165142Y-190051D02*
X162445Y-187098D01*
X165398Y-184401D01*
X168095Y-187354D01*
X165142Y-190051D01*
G37*
G36*
X159748Y-184143D02*
X157051Y-181190D01*
X160004Y-178493D01*
X162701Y-181446D01*
X159748Y-184143D01*
G37*
G36*
X165656Y-178748D02*
X162959Y-175795D01*
X165912Y-173098D01*
X168609Y-176051D01*
X165656Y-178748D01*
G37*
G36*
X202064Y-150091D02*
X198875Y-147678D01*
X201288Y-144489D01*
X204477Y-146902D01*
X202064Y-150091D01*
G37*
G36*
X197238Y-156472D02*
X194049Y-154059D01*
X196462Y-150870D01*
X199651Y-153283D01*
X197238Y-156472D01*
G37*
G36*
X190858Y-151646D02*
X187669Y-149233D01*
X190082Y-146044D01*
X193271Y-148457D01*
X190858Y-151646D01*
G37*
G36*
X195683Y-145265D02*
X192494Y-142852D01*
X194907Y-139663D01*
X198096Y-142076D01*
X195683Y-145265D01*
G37*
G36*
X226203Y-110405D02*
X222624Y-108620D01*
X224409Y-105041D01*
X227988Y-106826D01*
X226203Y-110405D01*
G37*
G36*
X222634Y-117564D02*
X219055Y-115779D01*
X220840Y-112200D01*
X224419Y-113985D01*
X222634Y-117564D01*
G37*
G36*
X215474Y-113995D02*
X211895Y-112210D01*
X213680Y-108631D01*
X217259Y-110416D01*
X215474Y-113995D01*
G37*
G36*
X219044Y-106835D02*
X215465Y-105050D01*
X217250Y-101471D01*
X220829Y-103256D01*
X219044Y-106835D01*
G37*
G36*
X242638Y-66959D02*
X238792Y-65863D01*
X239888Y-62017D01*
X243734Y-63113D01*
X242638Y-66959D01*
G37*
G36*
X240447Y-74653D02*
X236601Y-73557D01*
X237697Y-69711D01*
X241543Y-70807D01*
X240447Y-74653D01*
G37*
G36*
X232753Y-72461D02*
X228907Y-71365D01*
X230003Y-67519D01*
X233849Y-68615D01*
X232753Y-72461D01*
G37*
G36*
X234944Y-64767D02*
X231098Y-63671D01*
X232194Y-59825D01*
X236040Y-60921D01*
X234944Y-64767D01*
G37*
G36*
X250810Y-21233D02*
X246828Y-20863D01*
X247198Y-16881D01*
X251180Y-17251D01*
X250810Y-21233D01*
G37*
G36*
X250071Y-29199D02*
X246089Y-28829D01*
X246459Y-24847D01*
X250441Y-25217D01*
X250071Y-29199D01*
G37*
G36*
X242105Y-28460D02*
X238123Y-28090D01*
X238493Y-24108D01*
X242475Y-24478D01*
X242105Y-28460D01*
G37*
G36*
X242844Y-20494D02*
X238862Y-20124D01*
X239232Y-16142D01*
X243214Y-16512D01*
X242844Y-20494D01*
G37*
G36*
X250441Y25217D02*
X246459Y24847D01*
X246089Y28829D01*
X250071Y29199D01*
X250441Y25217D01*
G37*
G36*
X251180Y17251D02*
X247198Y16881D01*
X246828Y20863D01*
X250810Y21233D01*
X251180Y17251D01*
G37*
G36*
X243214Y16512D02*
X239232Y16142D01*
X238862Y20124D01*
X242844Y20494D01*
X243214Y16512D01*
G37*
G36*
X242475Y24478D02*
X238493Y24108D01*
X238123Y28090D01*
X242105Y28460D01*
X242475Y24478D01*
G37*
G36*
X241543Y70807D02*
X237697Y69711D01*
X236601Y73557D01*
X240447Y74653D01*
X241543Y70807D01*
G37*
G36*
X243734Y63113D02*
X239888Y62017D01*
X238792Y65863D01*
X242638Y66959D01*
X243734Y63113D01*
G37*
G36*
X236040Y60921D02*
X232194Y59825D01*
X231098Y63671D01*
X234944Y64767D01*
X236040Y60921D01*
G37*
G36*
X233849Y68615D02*
X230003Y67519D01*
X228907Y71365D01*
X232753Y72461D01*
X233849Y68615D01*
G37*
G36*
X224419Y113985D02*
X220840Y112200D01*
X219055Y115779D01*
X222634Y117564D01*
X224419Y113985D01*
G37*
G36*
X227988Y106826D02*
X224409Y105041D01*
X222624Y108620D01*
X226203Y110405D01*
X227988Y106826D01*
G37*
G36*
X220829Y103256D02*
X217250Y101471D01*
X215465Y105050D01*
X219044Y106835D01*
X220829Y103256D01*
G37*
G36*
X217259Y110416D02*
X213680Y108631D01*
X211895Y112210D01*
X215474Y113995D01*
X217259Y110416D01*
G37*
G36*
X199651Y153283D02*
X196462Y150870D01*
X194049Y154059D01*
X197238Y156472D01*
X199651Y153283D01*
G37*
G36*
X204477Y146902D02*
X201288Y144489D01*
X198875Y147678D01*
X202064Y150091D01*
X204477Y146902D01*
G37*
G36*
X198096Y142076D02*
X194907Y139663D01*
X192494Y142852D01*
X195683Y145265D01*
X198096Y142076D01*
G37*
G36*
X193271Y148457D02*
X190082Y146044D01*
X187669Y149233D01*
X190858Y151646D01*
X193271Y148457D01*
G37*
G36*
X168095Y187354D02*
X165398Y184401D01*
X162445Y187098D01*
X165142Y190051D01*
X168095Y187354D01*
G37*
G36*
X174003Y181959D02*
X171306Y179006D01*
X168353Y181703D01*
X171050Y184656D01*
X174003Y181959D01*
G37*
G36*
X168609Y176051D02*
X165912Y173098D01*
X162959Y175795D01*
X165656Y178748D01*
X168609Y176051D01*
G37*
G36*
X162701Y181446D02*
X160004Y178493D01*
X157051Y181190D01*
X159748Y184143D01*
X162701Y181446D01*
G37*
G36*
X130795Y215053D02*
X128693Y211651D01*
X125291Y213753D01*
X127393Y217155D01*
X130795Y215053D01*
G37*
G36*
X137602Y210850D02*
X135500Y207448D01*
X132098Y209550D01*
X134200Y212952D01*
X137602Y210850D01*
G37*
G36*
X133398Y204043D02*
X131296Y200641D01*
X127894Y202743D01*
X129996Y206145D01*
X133398Y204043D01*
G37*
G36*
X126591Y208247D02*
X124489Y204845D01*
X121087Y206947D01*
X123189Y210349D01*
X126591Y208247D01*
G37*
G36*
X89061Y235425D02*
X87615Y231697D01*
X83887Y233143D01*
X85333Y236871D01*
X89061Y235425D01*
G37*
G36*
X96520Y232532D02*
X95074Y228804D01*
X91346Y230250D01*
X92792Y233978D01*
X96520Y232532D01*
G37*
G36*
X93627Y225074D02*
X92181Y221346D01*
X88453Y222792D01*
X89899Y226520D01*
X93627Y225074D01*
G37*
G36*
X86168Y227967D02*
X84722Y224239D01*
X80994Y225685D01*
X82440Y229413D01*
X86168Y227967D01*
G37*
G36*
X44273Y247780D02*
X43545Y243848D01*
X39613Y244576D01*
X40341Y248508D01*
X44273Y247780D01*
G37*
G36*
X52139Y246323D02*
X51411Y242391D01*
X47479Y243119D01*
X48207Y247051D01*
X52139Y246323D01*
G37*
G36*
X50681Y238457D02*
X49953Y234525D01*
X46021Y235253D01*
X46749Y239185D01*
X50681Y238457D01*
G37*
G36*
X42815Y239914D02*
X42087Y235982D01*
X38155Y236710D01*
X38883Y240642D01*
X42815Y239914D01*
G37*
D10*
X-4000Y209600D03*
X4000Y209600D03*
X4000Y201600D03*
X-4000Y201600D03*
D11*
G36*
X-49030Y205853D02*
X-48144Y201953D01*
X-52044Y201067D01*
X-52930Y204967D01*
X-49030Y205853D01*
G37*
G36*
X-41229Y207625D02*
X-40343Y203725D01*
X-44243Y202839D01*
X-45129Y206739D01*
X-41229Y207625D01*
G37*
G36*
X-39457Y199824D02*
X-38571Y195924D01*
X-42471Y195038D01*
X-43357Y198938D01*
X-39457Y199824D01*
G37*
G36*
X-47258Y198051D02*
X-46372Y194151D01*
X-50272Y193265D01*
X-51158Y197165D01*
X-47258Y198051D01*
G37*
G36*
X-93619Y189771D02*
X-91878Y186170D01*
X-95479Y184429D01*
X-97220Y188030D01*
X-93619Y189771D01*
G37*
G36*
X-86416Y193252D02*
X-84675Y189651D01*
X-88276Y187910D01*
X-90017Y191511D01*
X-86416Y193252D01*
G37*
G36*
X-82934Y186050D02*
X-81193Y182449D01*
X-84794Y180708D01*
X-86535Y184309D01*
X-82934Y186050D01*
G37*
G36*
X-90137Y182568D02*
X-88396Y178967D01*
X-91997Y177226D01*
X-93738Y180827D01*
X-90137Y182568D01*
G37*
G36*
X-133496Y164185D02*
X-131001Y161060D01*
X-134126Y158565D01*
X-136621Y161690D01*
X-133496Y164185D01*
G37*
G36*
X-127244Y169176D02*
X-124749Y166051D01*
X-127874Y163556D01*
X-130369Y166681D01*
X-127244Y169176D01*
G37*
G36*
X-122253Y162924D02*
X-119758Y159799D01*
X-122883Y157304D01*
X-125378Y160429D01*
X-122253Y162924D01*
G37*
G36*
X-128505Y157933D02*
X-126010Y154808D01*
X-129135Y152313D01*
X-131630Y155438D01*
X-128505Y157933D01*
G37*
G36*
X-166681Y130369D02*
X-163556Y127874D01*
X-166051Y124749D01*
X-169176Y127244D01*
X-166681Y130369D01*
G37*
G36*
X-161690Y136621D02*
X-158565Y134126D01*
X-161060Y131001D01*
X-164185Y133496D01*
X-161690Y136621D01*
G37*
G36*
X-155438Y131630D02*
X-152313Y129135D01*
X-154808Y126010D01*
X-157933Y128505D01*
X-155438Y131630D01*
G37*
G36*
X-160429Y125378D02*
X-157304Y122883D01*
X-159799Y119758D01*
X-162924Y122253D01*
X-160429Y125378D01*
G37*
G36*
X-191511Y90017D02*
X-187910Y88276D01*
X-189651Y84675D01*
X-193252Y86416D01*
X-191511Y90017D01*
G37*
G36*
X-188030Y97220D02*
X-184429Y95479D01*
X-186170Y91878D01*
X-189771Y93619D01*
X-188030Y97220D01*
G37*
G36*
X-180827Y93738D02*
X-177226Y91997D01*
X-178967Y88396D01*
X-182568Y90137D01*
X-180827Y93738D01*
G37*
G36*
X-184309Y86535D02*
X-180708Y84794D01*
X-182449Y81193D01*
X-186050Y82934D01*
X-184309Y86535D01*
G37*
G36*
X-206739Y45129D02*
X-202839Y44243D01*
X-203725Y40343D01*
X-207625Y41229D01*
X-206739Y45129D01*
G37*
G36*
X-204967Y52930D02*
X-201067Y52044D01*
X-201953Y48144D01*
X-205853Y49030D01*
X-204967Y52930D01*
G37*
G36*
X-197165Y51158D02*
X-193265Y50272D01*
X-194151Y46372D01*
X-198051Y47258D01*
X-197165Y51158D01*
G37*
G36*
X-198938Y43357D02*
X-195038Y42471D01*
X-195924Y38571D01*
X-199824Y39457D01*
X-198938Y43357D01*
G37*
D10*
X-209600Y-4000D03*
X-209600Y4000D03*
X-201600Y4000D03*
X-201600Y-4000D03*
D11*
G36*
X-205853Y-49030D02*
X-201953Y-48144D01*
X-201067Y-52044D01*
X-204967Y-52930D01*
X-205853Y-49030D01*
G37*
G36*
X-207625Y-41229D02*
X-203725Y-40343D01*
X-202839Y-44243D01*
X-206739Y-45129D01*
X-207625Y-41229D01*
G37*
G36*
X-199824Y-39457D02*
X-195924Y-38571D01*
X-195038Y-42471D01*
X-198938Y-43357D01*
X-199824Y-39457D01*
G37*
G36*
X-198051Y-47258D02*
X-194151Y-46372D01*
X-193265Y-50272D01*
X-197165Y-51158D01*
X-198051Y-47258D01*
G37*
G36*
X-189771Y-93619D02*
X-186170Y-91878D01*
X-184429Y-95479D01*
X-188030Y-97220D01*
X-189771Y-93619D01*
G37*
G36*
X-193252Y-86416D02*
X-189651Y-84675D01*
X-187910Y-88276D01*
X-191511Y-90017D01*
X-193252Y-86416D01*
G37*
G36*
X-186050Y-82934D02*
X-182449Y-81193D01*
X-180708Y-84794D01*
X-184309Y-86535D01*
X-186050Y-82934D01*
G37*
G36*
X-182568Y-90137D02*
X-178967Y-88396D01*
X-177226Y-91997D01*
X-180827Y-93738D01*
X-182568Y-90137D01*
G37*
G36*
X-164185Y-133496D02*
X-161060Y-131001D01*
X-158565Y-134126D01*
X-161690Y-136621D01*
X-164185Y-133496D01*
G37*
G36*
X-169176Y-127244D02*
X-166051Y-124749D01*
X-163556Y-127874D01*
X-166681Y-130369D01*
X-169176Y-127244D01*
G37*
G36*
X-162924Y-122253D02*
X-159799Y-119758D01*
X-157304Y-122883D01*
X-160429Y-125378D01*
X-162924Y-122253D01*
G37*
G36*
X-157933Y-128505D02*
X-154808Y-126010D01*
X-152313Y-129135D01*
X-155438Y-131630D01*
X-157933Y-128505D01*
G37*
G36*
X-130369Y-166681D02*
X-127874Y-163556D01*
X-124749Y-166051D01*
X-127244Y-169176D01*
X-130369Y-166681D01*
G37*
G36*
X-136621Y-161690D02*
X-134126Y-158565D01*
X-131001Y-161060D01*
X-133496Y-164185D01*
X-136621Y-161690D01*
G37*
G36*
X-131630Y-155438D02*
X-129135Y-152313D01*
X-126010Y-154808D01*
X-128505Y-157933D01*
X-131630Y-155438D01*
G37*
G36*
X-125378Y-160429D02*
X-122883Y-157304D01*
X-119758Y-159799D01*
X-122253Y-162924D01*
X-125378Y-160429D01*
G37*
G36*
X-90017Y-191511D02*
X-88276Y-187910D01*
X-84675Y-189651D01*
X-86416Y-193252D01*
X-90017Y-191511D01*
G37*
G36*
X-97220Y-188030D02*
X-95479Y-184429D01*
X-91878Y-186170D01*
X-93619Y-189771D01*
X-97220Y-188030D01*
G37*
G36*
X-93738Y-180827D02*
X-91997Y-177226D01*
X-88396Y-178967D01*
X-90137Y-182568D01*
X-93738Y-180827D01*
G37*
G36*
X-86535Y-184309D02*
X-84794Y-180708D01*
X-81193Y-182449D01*
X-82934Y-186050D01*
X-86535Y-184309D01*
G37*
G36*
X-45129Y-206739D02*
X-44243Y-202839D01*
X-40343Y-203725D01*
X-41229Y-207625D01*
X-45129Y-206739D01*
G37*
G36*
X-52930Y-204967D02*
X-52044Y-201067D01*
X-48144Y-201953D01*
X-49030Y-205853D01*
X-52930Y-204967D01*
G37*
G36*
X-51158Y-197165D02*
X-50272Y-193265D01*
X-46372Y-194151D01*
X-47258Y-198051D01*
X-51158Y-197165D01*
G37*
G36*
X-43357Y-198938D02*
X-42471Y-195038D01*
X-38571Y-195924D01*
X-39457Y-199824D01*
X-43357Y-198938D01*
G37*
D10*
X4000Y-209600D03*
X-4000Y-209600D03*
X-4000Y-201600D03*
X4000Y-201600D03*
D11*
G36*
X49030Y-205853D02*
X48144Y-201953D01*
X52044Y-201067D01*
X52930Y-204967D01*
X49030Y-205853D01*
G37*
G36*
X41229Y-207625D02*
X40343Y-203725D01*
X44243Y-202839D01*
X45129Y-206739D01*
X41229Y-207625D01*
G37*
G36*
X39457Y-199824D02*
X38571Y-195924D01*
X42471Y-195038D01*
X43357Y-198938D01*
X39457Y-199824D01*
G37*
G36*
X47258Y-198051D02*
X46372Y-194151D01*
X50272Y-193265D01*
X51158Y-197165D01*
X47258Y-198051D01*
G37*
G36*
X93619Y-189771D02*
X91878Y-186170D01*
X95479Y-184429D01*
X97220Y-188030D01*
X93619Y-189771D01*
G37*
G36*
X86416Y-193252D02*
X84675Y-189651D01*
X88276Y-187910D01*
X90017Y-191511D01*
X86416Y-193252D01*
G37*
G36*
X82934Y-186050D02*
X81193Y-182449D01*
X84794Y-180708D01*
X86535Y-184309D01*
X82934Y-186050D01*
G37*
G36*
X90137Y-182568D02*
X88396Y-178967D01*
X91997Y-177226D01*
X93738Y-180827D01*
X90137Y-182568D01*
G37*
G36*
X133496Y-164185D02*
X131001Y-161060D01*
X134126Y-158565D01*
X136621Y-161690D01*
X133496Y-164185D01*
G37*
G36*
X127244Y-169176D02*
X124749Y-166051D01*
X127874Y-163556D01*
X130369Y-166681D01*
X127244Y-169176D01*
G37*
G36*
X122253Y-162924D02*
X119758Y-159799D01*
X122883Y-157304D01*
X125378Y-160429D01*
X122253Y-162924D01*
G37*
G36*
X128505Y-157933D02*
X126010Y-154808D01*
X129135Y-152313D01*
X131630Y-155438D01*
X128505Y-157933D01*
G37*
G36*
X166681Y-130369D02*
X163556Y-127874D01*
X166051Y-124749D01*
X169176Y-127244D01*
X166681Y-130369D01*
G37*
G36*
X161690Y-136621D02*
X158565Y-134126D01*
X161060Y-131001D01*
X164185Y-133496D01*
X161690Y-136621D01*
G37*
G36*
X155438Y-131630D02*
X152313Y-129135D01*
X154808Y-126010D01*
X157933Y-128505D01*
X155438Y-131630D01*
G37*
G36*
X160429Y-125378D02*
X157304Y-122883D01*
X159799Y-119758D01*
X162924Y-122253D01*
X160429Y-125378D01*
G37*
G36*
X191511Y-90017D02*
X187910Y-88276D01*
X189651Y-84675D01*
X193252Y-86416D01*
X191511Y-90017D01*
G37*
G36*
X188030Y-97220D02*
X184429Y-95479D01*
X186170Y-91878D01*
X189771Y-93619D01*
X188030Y-97220D01*
G37*
G36*
X180827Y-93738D02*
X177226Y-91997D01*
X178967Y-88396D01*
X182568Y-90137D01*
X180827Y-93738D01*
G37*
G36*
X184309Y-86535D02*
X180708Y-84794D01*
X182449Y-81193D01*
X186050Y-82934D01*
X184309Y-86535D01*
G37*
G36*
X206739Y-45129D02*
X202839Y-44243D01*
X203725Y-40343D01*
X207625Y-41229D01*
X206739Y-45129D01*
G37*
G36*
X204967Y-52930D02*
X201067Y-52044D01*
X201953Y-48144D01*
X205853Y-49030D01*
X204967Y-52930D01*
G37*
G36*
X197165Y-51158D02*
X193265Y-50272D01*
X194151Y-46372D01*
X198051Y-47258D01*
X197165Y-51158D01*
G37*
G36*
X198938Y-43357D02*
X195038Y-42471D01*
X195924Y-38571D01*
X199824Y-39457D01*
X198938Y-43357D01*
G37*
D10*
X209600Y4000D03*
X209600Y-4000D03*
X201600Y-4000D03*
X201600Y4000D03*
D11*
G36*
X205853Y49030D02*
X201953Y48144D01*
X201067Y52044D01*
X204967Y52930D01*
X205853Y49030D01*
G37*
G36*
X207625Y41229D02*
X203725Y40343D01*
X202839Y44243D01*
X206739Y45129D01*
X207625Y41229D01*
G37*
G36*
X199824Y39457D02*
X195924Y38571D01*
X195038Y42471D01*
X198938Y43357D01*
X199824Y39457D01*
G37*
G36*
X198051Y47258D02*
X194151Y46372D01*
X193265Y50272D01*
X197165Y51158D01*
X198051Y47258D01*
G37*
G36*
X189771Y93619D02*
X186170Y91878D01*
X184429Y95479D01*
X188030Y97220D01*
X189771Y93619D01*
G37*
G36*
X193252Y86416D02*
X189651Y84675D01*
X187910Y88276D01*
X191511Y90017D01*
X193252Y86416D01*
G37*
G36*
X186050Y82934D02*
X182449Y81193D01*
X180708Y84794D01*
X184309Y86535D01*
X186050Y82934D01*
G37*
G36*
X182568Y90137D02*
X178967Y88396D01*
X177226Y91997D01*
X180827Y93738D01*
X182568Y90137D01*
G37*
G36*
X164185Y133496D02*
X161060Y131001D01*
X158565Y134126D01*
X161690Y136621D01*
X164185Y133496D01*
G37*
G36*
X169176Y127244D02*
X166051Y124749D01*
X163556Y127874D01*
X166681Y130369D01*
X169176Y127244D01*
G37*
G36*
X162924Y122253D02*
X159799Y119758D01*
X157304Y122883D01*
X160429Y125378D01*
X162924Y122253D01*
G37*
G36*
X157933Y128505D02*
X154808Y126010D01*
X152313Y129135D01*
X155438Y131630D01*
X157933Y128505D01*
G37*
G36*
X130369Y166681D02*
X127874Y163556D01*
X124749Y166051D01*
X127244Y169176D01*
X130369Y166681D01*
G37*
G36*
X136621Y161690D02*
X134126Y158565D01*
X131001Y161060D01*
X133496Y164185D01*
X136621Y161690D01*
G37*
G36*
X131630Y155438D02*
X129135Y152313D01*
X126010Y154808D01*
X128505Y157933D01*
X131630Y155438D01*
G37*
G36*
X125378Y160429D02*
X122883Y157304D01*
X119758Y159799D01*
X122253Y162924D01*
X125378Y160429D01*
G37*
G36*
X90017Y191511D02*
X88276Y187910D01*
X84675Y189651D01*
X86416Y193252D01*
X90017Y191511D01*
G37*
G36*
X97220Y188030D02*
X95479Y184429D01*
X91878Y186170D01*
X93619Y189771D01*
X97220Y188030D01*
G37*
G36*
X93738Y180827D02*
X91997Y177226D01*
X88396Y178967D01*
X90137Y182568D01*
X93738Y180827D01*
G37*
G36*
X86535Y184309D02*
X84794Y180708D01*
X81193Y182449D01*
X82934Y186050D01*
X86535Y184309D01*
G37*
G36*
X45129Y206739D02*
X44243Y202839D01*
X40343Y203725D01*
X41229Y207625D01*
X45129Y206739D01*
G37*
G36*
X52930Y204967D02*
X52044Y201067D01*
X48144Y201953D01*
X49030Y205853D01*
X52930Y204967D01*
G37*
G36*
X51158Y197165D02*
X50272Y193265D01*
X46372Y194151D01*
X47258Y198051D01*
X51158Y197165D01*
G37*
G36*
X43357Y198938D02*
X42471Y195038D01*
X38571Y195924D01*
X39457Y199824D01*
X43357Y198938D01*
G37*
D10*
X-4000Y167900D03*
X4000Y167900D03*
X4000Y159900D03*
X-4000Y159900D03*
D11*
G36*
X-45905Y163593D02*
X-44870Y159730D01*
X-48733Y158695D01*
X-49768Y162558D01*
X-45905Y163593D01*
G37*
G36*
X-38178Y165663D02*
X-37143Y161800D01*
X-41006Y160765D01*
X-42041Y164628D01*
X-38178Y165663D01*
G37*
G36*
X-36107Y157936D02*
X-35072Y154073D01*
X-38935Y153038D01*
X-39970Y156901D01*
X-36107Y157936D01*
G37*
G36*
X-43835Y155865D02*
X-42800Y152002D01*
X-46663Y150967D01*
X-47698Y154830D01*
X-43835Y155865D01*
G37*
G36*
X-86682Y146138D02*
X-84682Y142674D01*
X-88146Y140674D01*
X-90146Y144138D01*
X-86682Y146138D01*
G37*
G36*
X-79754Y150138D02*
X-77754Y146674D01*
X-81218Y144674D01*
X-83218Y148138D01*
X-79754Y150138D01*
G37*
G36*
X-75754Y143209D02*
X-73754Y139745D01*
X-77218Y137745D01*
X-79218Y141209D01*
X-75754Y143209D01*
G37*
G36*
X-82682Y139209D02*
X-80682Y135745D01*
X-84146Y133745D01*
X-86146Y137209D01*
X-82682Y139209D01*
G37*
G36*
X-121552Y118723D02*
X-118724Y115895D01*
X-121552Y113067D01*
X-124380Y115895D01*
X-121552Y118723D01*
G37*
G36*
X-115895Y124380D02*
X-113067Y121552D01*
X-115895Y118724D01*
X-118723Y121552D01*
X-115895Y124380D01*
G37*
G36*
X-110238Y118723D02*
X-107410Y115895D01*
X-110238Y113067D01*
X-113066Y115895D01*
X-110238Y118723D01*
G37*
G36*
X-115895Y113066D02*
X-113067Y110238D01*
X-115895Y107410D01*
X-118723Y110238D01*
X-115895Y113066D01*
G37*
G36*
X-148138Y83218D02*
X-144674Y81218D01*
X-146674Y77754D01*
X-150138Y79754D01*
X-148138Y83218D01*
G37*
G36*
X-144138Y90146D02*
X-140674Y88146D01*
X-142674Y84682D01*
X-146138Y86682D01*
X-144138Y90146D01*
G37*
G36*
X-137209Y86146D02*
X-133745Y84146D01*
X-135745Y80682D01*
X-139209Y82682D01*
X-137209Y86146D01*
G37*
G36*
X-141209Y79218D02*
X-137745Y77218D01*
X-139745Y73754D01*
X-143209Y75754D01*
X-141209Y79218D01*
G37*
G36*
X-164628Y42041D02*
X-160765Y41006D01*
X-161800Y37143D01*
X-165663Y38178D01*
X-164628Y42041D01*
G37*
G36*
X-162558Y49768D02*
X-158695Y48733D01*
X-159730Y44870D01*
X-163593Y45905D01*
X-162558Y49768D01*
G37*
G36*
X-154830Y47698D02*
X-150967Y46663D01*
X-152002Y42800D01*
X-155865Y43835D01*
X-154830Y47698D01*
G37*
G36*
X-156901Y39970D02*
X-153038Y38935D01*
X-154073Y35072D01*
X-157936Y36107D01*
X-156901Y39970D01*
G37*
D10*
X-167900Y-4000D03*
X-167900Y4000D03*
X-159900Y4000D03*
X-159900Y-4000D03*
D11*
G36*
X-163593Y-45905D02*
X-159730Y-44870D01*
X-158695Y-48733D01*
X-162558Y-49768D01*
X-163593Y-45905D01*
G37*
G36*
X-165663Y-38178D02*
X-161800Y-37143D01*
X-160765Y-41006D01*
X-164628Y-42041D01*
X-165663Y-38178D01*
G37*
G36*
X-157936Y-36107D02*
X-154073Y-35072D01*
X-153038Y-38935D01*
X-156901Y-39970D01*
X-157936Y-36107D01*
G37*
G36*
X-155865Y-43835D02*
X-152002Y-42800D01*
X-150967Y-46663D01*
X-154830Y-47698D01*
X-155865Y-43835D01*
G37*
G36*
X-146138Y-86682D02*
X-142674Y-84682D01*
X-140674Y-88146D01*
X-144138Y-90146D01*
X-146138Y-86682D01*
G37*
G36*
X-150138Y-79754D02*
X-146674Y-77754D01*
X-144674Y-81218D01*
X-148138Y-83218D01*
X-150138Y-79754D01*
G37*
G36*
X-143209Y-75754D02*
X-139745Y-73754D01*
X-137745Y-77218D01*
X-141209Y-79218D01*
X-143209Y-75754D01*
G37*
G36*
X-139209Y-82682D02*
X-135745Y-80682D01*
X-133745Y-84146D01*
X-137209Y-86146D01*
X-139209Y-82682D01*
G37*
G36*
X-118723Y-121552D02*
X-115895Y-118724D01*
X-113067Y-121552D01*
X-115895Y-124380D01*
X-118723Y-121552D01*
G37*
G36*
X-124380Y-115895D02*
X-121552Y-113067D01*
X-118724Y-115895D01*
X-121552Y-118723D01*
X-124380Y-115895D01*
G37*
G36*
X-118723Y-110238D02*
X-115895Y-107410D01*
X-113067Y-110238D01*
X-115895Y-113066D01*
X-118723Y-110238D01*
G37*
G36*
X-113066Y-115895D02*
X-110238Y-113067D01*
X-107410Y-115895D01*
X-110238Y-118723D01*
X-113066Y-115895D01*
G37*
G36*
X-83218Y-148138D02*
X-81218Y-144674D01*
X-77754Y-146674D01*
X-79754Y-150138D01*
X-83218Y-148138D01*
G37*
G36*
X-90146Y-144138D02*
X-88146Y-140674D01*
X-84682Y-142674D01*
X-86682Y-146138D01*
X-90146Y-144138D01*
G37*
G36*
X-86146Y-137209D02*
X-84146Y-133745D01*
X-80682Y-135745D01*
X-82682Y-139209D01*
X-86146Y-137209D01*
G37*
G36*
X-79218Y-141209D02*
X-77218Y-137745D01*
X-73754Y-139745D01*
X-75754Y-143209D01*
X-79218Y-141209D01*
G37*
G36*
X-42041Y-164628D02*
X-41006Y-160765D01*
X-37143Y-161800D01*
X-38178Y-165663D01*
X-42041Y-164628D01*
G37*
G36*
X-49768Y-162558D02*
X-48733Y-158695D01*
X-44870Y-159730D01*
X-45905Y-163593D01*
X-49768Y-162558D01*
G37*
G36*
X-47698Y-154830D02*
X-46663Y-150967D01*
X-42800Y-152002D01*
X-43835Y-155865D01*
X-47698Y-154830D01*
G37*
G36*
X-39970Y-156901D02*
X-38935Y-153038D01*
X-35072Y-154073D01*
X-36107Y-157936D01*
X-39970Y-156901D01*
G37*
D10*
X4000Y-167900D03*
X-4000Y-167900D03*
X-4000Y-159900D03*
X4000Y-159900D03*
D11*
G36*
X45905Y-163593D02*
X44870Y-159730D01*
X48733Y-158695D01*
X49768Y-162558D01*
X45905Y-163593D01*
G37*
G36*
X38178Y-165663D02*
X37143Y-161800D01*
X41006Y-160765D01*
X42041Y-164628D01*
X38178Y-165663D01*
G37*
G36*
X36107Y-157936D02*
X35072Y-154073D01*
X38935Y-153038D01*
X39970Y-156901D01*
X36107Y-157936D01*
G37*
G36*
X43835Y-155865D02*
X42800Y-152002D01*
X46663Y-150967D01*
X47698Y-154830D01*
X43835Y-155865D01*
G37*
G36*
X86682Y-146138D02*
X84682Y-142674D01*
X88146Y-140674D01*
X90146Y-144138D01*
X86682Y-146138D01*
G37*
G36*
X79754Y-150138D02*
X77754Y-146674D01*
X81218Y-144674D01*
X83218Y-148138D01*
X79754Y-150138D01*
G37*
G36*
X75754Y-143209D02*
X73754Y-139745D01*
X77218Y-137745D01*
X79218Y-141209D01*
X75754Y-143209D01*
G37*
G36*
X82682Y-139209D02*
X80682Y-135745D01*
X84146Y-133745D01*
X86146Y-137209D01*
X82682Y-139209D01*
G37*
G36*
X121552Y-118723D02*
X118724Y-115895D01*
X121552Y-113067D01*
X124380Y-115895D01*
X121552Y-118723D01*
G37*
G36*
X115895Y-124380D02*
X113067Y-121552D01*
X115895Y-118724D01*
X118723Y-121552D01*
X115895Y-124380D01*
G37*
G36*
X110238Y-118723D02*
X107410Y-115895D01*
X110238Y-113067D01*
X113066Y-115895D01*
X110238Y-118723D01*
G37*
G36*
X115895Y-113066D02*
X113067Y-110238D01*
X115895Y-107410D01*
X118723Y-110238D01*
X115895Y-113066D01*
G37*
G36*
X148138Y-83218D02*
X144674Y-81218D01*
X146674Y-77754D01*
X150138Y-79754D01*
X148138Y-83218D01*
G37*
G36*
X144138Y-90146D02*
X140674Y-88146D01*
X142674Y-84682D01*
X146138Y-86682D01*
X144138Y-90146D01*
G37*
G36*
X137209Y-86146D02*
X133745Y-84146D01*
X135745Y-80682D01*
X139209Y-82682D01*
X137209Y-86146D01*
G37*
G36*
X141209Y-79218D02*
X137745Y-77218D01*
X139745Y-73754D01*
X143209Y-75754D01*
X141209Y-79218D01*
G37*
G36*
X164628Y-42041D02*
X160765Y-41006D01*
X161800Y-37143D01*
X165663Y-38178D01*
X164628Y-42041D01*
G37*
G36*
X162558Y-49768D02*
X158695Y-48733D01*
X159730Y-44870D01*
X163593Y-45905D01*
X162558Y-49768D01*
G37*
G36*
X154830Y-47698D02*
X150967Y-46663D01*
X152002Y-42800D01*
X155865Y-43835D01*
X154830Y-47698D01*
G37*
G36*
X156901Y-39970D02*
X153038Y-38935D01*
X154073Y-35072D01*
X157936Y-36107D01*
X156901Y-39970D01*
G37*
D10*
X167900Y4000D03*
X167900Y-4000D03*
X159900Y-4000D03*
X159900Y4000D03*
D11*
G36*
X163593Y45905D02*
X159730Y44870D01*
X158695Y48733D01*
X162558Y49768D01*
X163593Y45905D01*
G37*
G36*
X165663Y38178D02*
X161800Y37143D01*
X160765Y41006D01*
X164628Y42041D01*
X165663Y38178D01*
G37*
G36*
X157936Y36107D02*
X154073Y35072D01*
X153038Y38935D01*
X156901Y39970D01*
X157936Y36107D01*
G37*
G36*
X155865Y43835D02*
X152002Y42800D01*
X150967Y46663D01*
X154830Y47698D01*
X155865Y43835D01*
G37*
G36*
X146138Y86682D02*
X142674Y84682D01*
X140674Y88146D01*
X144138Y90146D01*
X146138Y86682D01*
G37*
G36*
X150138Y79754D02*
X146674Y77754D01*
X144674Y81218D01*
X148138Y83218D01*
X150138Y79754D01*
G37*
G36*
X143209Y75754D02*
X139745Y73754D01*
X137745Y77218D01*
X141209Y79218D01*
X143209Y75754D01*
G37*
G36*
X139209Y82682D02*
X135745Y80682D01*
X133745Y84146D01*
X137209Y86146D01*
X139209Y82682D01*
G37*
G36*
X118723Y121552D02*
X115895Y118724D01*
X113067Y121552D01*
X115895Y124380D01*
X118723Y121552D01*
G37*
G36*
X124380Y115895D02*
X121552Y113067D01*
X118724Y115895D01*
X121552Y118723D01*
X124380Y115895D01*
G37*
G36*
X118723Y110238D02*
X115895Y107410D01*
X113067Y110238D01*
X115895Y113066D01*
X118723Y110238D01*
G37*
G36*
X113066Y115895D02*
X110238Y113067D01*
X107410Y115895D01*
X110238Y118723D01*
X113066Y115895D01*
G37*
G36*
X83218Y148138D02*
X81218Y144674D01*
X77754Y146674D01*
X79754Y150138D01*
X83218Y148138D01*
G37*
G36*
X90146Y144138D02*
X88146Y140674D01*
X84682Y142674D01*
X86682Y146138D01*
X90146Y144138D01*
G37*
G36*
X86146Y137209D02*
X84146Y133745D01*
X80682Y135745D01*
X82682Y139209D01*
X86146Y137209D01*
G37*
G36*
X79218Y141209D02*
X77218Y137745D01*
X73754Y139745D01*
X75754Y143209D01*
X79218Y141209D01*
G37*
G36*
X42041Y164628D02*
X41006Y160765D01*
X37143Y161800D01*
X38178Y165663D01*
X42041Y164628D01*
G37*
G36*
X49768Y162558D02*
X48733Y158695D01*
X44870Y159730D01*
X45905Y163593D01*
X49768Y162558D01*
G37*
G36*
X47698Y154830D02*
X46663Y150967D01*
X42800Y152002D01*
X43835Y155865D01*
X47698Y154830D01*
G37*
G36*
X39970Y156901D02*
X38935Y153038D01*
X35072Y154073D01*
X36107Y157936D01*
X39970Y156901D01*
G37*
D10*
X-4000Y126700D03*
X4000Y126700D03*
X4000Y118700D03*
X-4000Y118700D03*
D11*
G36*
X-45898Y120254D02*
X-44530Y116496D01*
X-48288Y115128D01*
X-49656Y118886D01*
X-45898Y120254D01*
G37*
G36*
X-38380Y122990D02*
X-37012Y119232D01*
X-40770Y117864D01*
X-42138Y121622D01*
X-38380Y122990D01*
G37*
G36*
X-35644Y115473D02*
X-34276Y111715D01*
X-38034Y110347D01*
X-39402Y114105D01*
X-35644Y115473D01*
G37*
G36*
X-43162Y112736D02*
X-41794Y108978D01*
X-45552Y107610D01*
X-46920Y111368D01*
X-43162Y112736D01*
G37*
G36*
X-84259Y97304D02*
X-81688Y94241D01*
X-84751Y91670D01*
X-87322Y94733D01*
X-84259Y97304D01*
G37*
G36*
X-78131Y102446D02*
X-75560Y99383D01*
X-78623Y96812D01*
X-81194Y99875D01*
X-78131Y102446D01*
G37*
G36*
X-72989Y96318D02*
X-70418Y93255D01*
X-73481Y90684D01*
X-76052Y93747D01*
X-72989Y96318D01*
G37*
G36*
X-79117Y91175D02*
X-76546Y88112D01*
X-79609Y85541D01*
X-82180Y88604D01*
X-79117Y91175D01*
G37*
G36*
X-112457Y62618D02*
X-108993Y60618D01*
X-110993Y57154D01*
X-114457Y59154D01*
X-112457Y62618D01*
G37*
G36*
X-108457Y69546D02*
X-104993Y67546D01*
X-106993Y64082D01*
X-110457Y66082D01*
X-108457Y69546D01*
G37*
G36*
X-101529Y65546D02*
X-98065Y63546D01*
X-100065Y60082D01*
X-103529Y62082D01*
X-101529Y65546D01*
G37*
G36*
X-105529Y58618D02*
X-102065Y56618D01*
X-104065Y53154D01*
X-107529Y55154D01*
X-105529Y58618D01*
G37*
G36*
X-127092Y20378D02*
X-123154Y19684D01*
X-123848Y15746D01*
X-127786Y16440D01*
X-127092Y20378D01*
G37*
G36*
X-125703Y28256D02*
X-121765Y27562D01*
X-122459Y23624D01*
X-126397Y24318D01*
X-125703Y28256D01*
G37*
G36*
X-117824Y26867D02*
X-113886Y26173D01*
X-114580Y22235D01*
X-118518Y22929D01*
X-117824Y26867D01*
G37*
G36*
X-119213Y18989D02*
X-115275Y18295D01*
X-115969Y14357D01*
X-119907Y15051D01*
X-119213Y18989D01*
G37*
G36*
X-126397Y-24318D02*
X-122459Y-23624D01*
X-121765Y-27562D01*
X-125703Y-28256D01*
X-126397Y-24318D01*
G37*
G36*
X-127786Y-16440D02*
X-123848Y-15746D01*
X-123154Y-19684D01*
X-127092Y-20378D01*
X-127786Y-16440D01*
G37*
G36*
X-119907Y-15051D02*
X-115969Y-14357D01*
X-115275Y-18295D01*
X-119213Y-18989D01*
X-119907Y-15051D01*
G37*
G36*
X-118518Y-22929D02*
X-114580Y-22235D01*
X-113886Y-26173D01*
X-117824Y-26867D01*
X-118518Y-22929D01*
G37*
G36*
X-110457Y-66082D02*
X-106993Y-64082D01*
X-104993Y-67546D01*
X-108457Y-69546D01*
X-110457Y-66082D01*
G37*
G36*
X-114457Y-59154D02*
X-110993Y-57154D01*
X-108993Y-60618D01*
X-112457Y-62618D01*
X-114457Y-59154D01*
G37*
G36*
X-107529Y-55154D02*
X-104065Y-53154D01*
X-102065Y-56618D01*
X-105529Y-58618D01*
X-107529Y-55154D01*
G37*
G36*
X-103529Y-62082D02*
X-100065Y-60082D01*
X-98065Y-63546D01*
X-101529Y-65546D01*
X-103529Y-62082D01*
G37*
G36*
X-81194Y-99875D02*
X-78623Y-96812D01*
X-75560Y-99383D01*
X-78131Y-102446D01*
X-81194Y-99875D01*
G37*
G36*
X-87322Y-94733D02*
X-84751Y-91670D01*
X-81688Y-94241D01*
X-84259Y-97304D01*
X-87322Y-94733D01*
G37*
G36*
X-82180Y-88604D02*
X-79609Y-85541D01*
X-76546Y-88112D01*
X-79117Y-91175D01*
X-82180Y-88604D01*
G37*
G36*
X-76052Y-93747D02*
X-73481Y-90684D01*
X-70418Y-93255D01*
X-72989Y-96318D01*
X-76052Y-93747D01*
G37*
G36*
X-42138Y-121622D02*
X-40770Y-117864D01*
X-37012Y-119232D01*
X-38380Y-122990D01*
X-42138Y-121622D01*
G37*
G36*
X-49656Y-118886D02*
X-48288Y-115128D01*
X-44530Y-116496D01*
X-45898Y-120254D01*
X-49656Y-118886D01*
G37*
G36*
X-46920Y-111368D02*
X-45552Y-107610D01*
X-41794Y-108978D01*
X-43162Y-112736D01*
X-46920Y-111368D01*
G37*
G36*
X-39402Y-114105D02*
X-38034Y-110347D01*
X-34276Y-111715D01*
X-35644Y-115473D01*
X-39402Y-114105D01*
G37*
D10*
X4000Y-126700D03*
X-4000Y-126700D03*
X-4000Y-118700D03*
X4000Y-118700D03*
D11*
G36*
X45898Y-120254D02*
X44530Y-116496D01*
X48288Y-115128D01*
X49656Y-118886D01*
X45898Y-120254D01*
G37*
G36*
X38380Y-122990D02*
X37012Y-119232D01*
X40770Y-117864D01*
X42138Y-121622D01*
X38380Y-122990D01*
G37*
G36*
X35644Y-115473D02*
X34276Y-111715D01*
X38034Y-110347D01*
X39402Y-114105D01*
X35644Y-115473D01*
G37*
G36*
X43162Y-112736D02*
X41794Y-108978D01*
X45552Y-107610D01*
X46920Y-111368D01*
X43162Y-112736D01*
G37*
G36*
X84259Y-97304D02*
X81688Y-94241D01*
X84751Y-91670D01*
X87322Y-94733D01*
X84259Y-97304D01*
G37*
G36*
X78131Y-102446D02*
X75560Y-99383D01*
X78623Y-96812D01*
X81194Y-99875D01*
X78131Y-102446D01*
G37*
G36*
X72989Y-96318D02*
X70418Y-93255D01*
X73481Y-90684D01*
X76052Y-93747D01*
X72989Y-96318D01*
G37*
G36*
X79117Y-91175D02*
X76546Y-88112D01*
X79609Y-85541D01*
X82180Y-88604D01*
X79117Y-91175D01*
G37*
G36*
X112457Y-62618D02*
X108993Y-60618D01*
X110993Y-57154D01*
X114457Y-59154D01*
X112457Y-62618D01*
G37*
G36*
X108457Y-69546D02*
X104993Y-67546D01*
X106993Y-64082D01*
X110457Y-66082D01*
X108457Y-69546D01*
G37*
G36*
X101529Y-65546D02*
X98065Y-63546D01*
X100065Y-60082D01*
X103529Y-62082D01*
X101529Y-65546D01*
G37*
G36*
X105529Y-58618D02*
X102065Y-56618D01*
X104065Y-53154D01*
X107529Y-55154D01*
X105529Y-58618D01*
G37*
G36*
X127092Y-20378D02*
X123154Y-19684D01*
X123848Y-15746D01*
X127786Y-16440D01*
X127092Y-20378D01*
G37*
G36*
X125703Y-28256D02*
X121765Y-27562D01*
X122459Y-23624D01*
X126397Y-24318D01*
X125703Y-28256D01*
G37*
G36*
X117824Y-26867D02*
X113886Y-26173D01*
X114580Y-22235D01*
X118518Y-22929D01*
X117824Y-26867D01*
G37*
G36*
X119213Y-18989D02*
X115275Y-18295D01*
X115969Y-14357D01*
X119907Y-15051D01*
X119213Y-18989D01*
G37*
G36*
X126397Y24318D02*
X122459Y23624D01*
X121765Y27562D01*
X125703Y28256D01*
X126397Y24318D01*
G37*
G36*
X127786Y16440D02*
X123848Y15746D01*
X123154Y19684D01*
X127092Y20378D01*
X127786Y16440D01*
G37*
G36*
X119907Y15051D02*
X115969Y14357D01*
X115275Y18295D01*
X119213Y18989D01*
X119907Y15051D01*
G37*
G36*
X118518Y22929D02*
X114580Y22235D01*
X113886Y26173D01*
X117824Y26867D01*
X118518Y22929D01*
G37*
G36*
X110457Y66082D02*
X106993Y64082D01*
X104993Y67546D01*
X108457Y69546D01*
X110457Y66082D01*
G37*
G36*
X114457Y59154D02*
X110993Y57154D01*
X108993Y60618D01*
X112457Y62618D01*
X114457Y59154D01*
G37*
G36*
X107529Y55154D02*
X104065Y53154D01*
X102065Y56618D01*
X105529Y58618D01*
X107529Y55154D01*
G37*
G36*
X103529Y62082D02*
X100065Y60082D01*
X98065Y63546D01*
X101529Y65546D01*
X103529Y62082D01*
G37*
G36*
X81194Y99875D02*
X78623Y96812D01*
X75560Y99383D01*
X78131Y102446D01*
X81194Y99875D01*
G37*
G36*
X87322Y94733D02*
X84751Y91670D01*
X81688Y94241D01*
X84259Y97304D01*
X87322Y94733D01*
G37*
G36*
X82180Y88604D02*
X79609Y85541D01*
X76546Y88112D01*
X79117Y91175D01*
X82180Y88604D01*
G37*
G36*
X76052Y93747D02*
X73481Y90684D01*
X70418Y93255D01*
X72989Y96318D01*
X76052Y93747D01*
G37*
G36*
X42138Y121622D02*
X40770Y117864D01*
X37012Y119232D01*
X38380Y122990D01*
X42138Y121622D01*
G37*
G36*
X49656Y118886D02*
X48288Y115128D01*
X44530Y116496D01*
X45898Y120254D01*
X49656Y118886D01*
G37*
G36*
X46920Y111368D02*
X45552Y107610D01*
X41794Y108978D01*
X43162Y112736D01*
X46920Y111368D01*
G37*
G36*
X39402Y114105D02*
X38034Y110347D01*
X34276Y111715D01*
X35644Y115473D01*
X39402Y114105D01*
G37*
D10*
X-4000Y86700D03*
X4000Y86700D03*
X4000Y78700D03*
X-4000Y78700D03*
D11*
G36*
X-40294Y79041D02*
X-38553Y75440D01*
X-42154Y73699D01*
X-43895Y77300D01*
X-40294Y79041D01*
G37*
G36*
X-33092Y82523D02*
X-31351Y78922D01*
X-34952Y77181D01*
X-36693Y80782D01*
X-33092Y82523D01*
G37*
G36*
X-29610Y75321D02*
X-27869Y71720D01*
X-31470Y69979D01*
X-33211Y73580D01*
X-29610Y75321D01*
G37*
G36*
X-36813Y71839D02*
X-35072Y68238D01*
X-38673Y66497D01*
X-40414Y70098D01*
X-36813Y71839D01*
G37*
G36*
X-70594Y53742D02*
X-67469Y51247D01*
X-69964Y48122D01*
X-73089Y50617D01*
X-70594Y53742D01*
G37*
G36*
X-65603Y59994D02*
X-62478Y57499D01*
X-64973Y54374D01*
X-68098Y56869D01*
X-65603Y59994D01*
G37*
G36*
X-59351Y55003D02*
X-56226Y52508D01*
X-58721Y49383D01*
X-61846Y51878D01*
X-59351Y55003D01*
G37*
G36*
X-64342Y48751D02*
X-61217Y46256D01*
X-63712Y43131D01*
X-66837Y45626D01*
X-64342Y48751D01*
G37*
G36*
X-86920Y17781D02*
X-83020Y16895D01*
X-83906Y12995D01*
X-87806Y13881D01*
X-86920Y17781D01*
G37*
G36*
X-85148Y25582D02*
X-81248Y24696D01*
X-82134Y20796D01*
X-86034Y21682D01*
X-85148Y25582D01*
G37*
G36*
X-77347Y23810D02*
X-73447Y22924D01*
X-74333Y19024D01*
X-78233Y19910D01*
X-77347Y23810D01*
G37*
G36*
X-79119Y16009D02*
X-75219Y15123D01*
X-76105Y11223D01*
X-80005Y12109D01*
X-79119Y16009D01*
G37*
G36*
X-86034Y-21682D02*
X-82134Y-20796D01*
X-81248Y-24696D01*
X-85148Y-25582D01*
X-86034Y-21682D01*
G37*
G36*
X-87806Y-13881D02*
X-83906Y-12995D01*
X-83020Y-16895D01*
X-86920Y-17781D01*
X-87806Y-13881D01*
G37*
G36*
X-80005Y-12109D02*
X-76105Y-11223D01*
X-75219Y-15123D01*
X-79119Y-16009D01*
X-80005Y-12109D01*
G37*
G36*
X-78233Y-19910D02*
X-74333Y-19024D01*
X-73447Y-22924D01*
X-77347Y-23810D01*
X-78233Y-19910D01*
G37*
G36*
X-68098Y-56869D02*
X-64973Y-54374D01*
X-62478Y-57499D01*
X-65603Y-59994D01*
X-68098Y-56869D01*
G37*
G36*
X-73089Y-50617D02*
X-69964Y-48122D01*
X-67469Y-51247D01*
X-70594Y-53742D01*
X-73089Y-50617D01*
G37*
G36*
X-66837Y-45626D02*
X-63712Y-43131D01*
X-61217Y-46256D01*
X-64342Y-48751D01*
X-66837Y-45626D01*
G37*
G36*
X-61846Y-51878D02*
X-58721Y-49383D01*
X-56226Y-52508D01*
X-59351Y-55003D01*
X-61846Y-51878D01*
G37*
G36*
X-36693Y-80782D02*
X-34952Y-77181D01*
X-31351Y-78922D01*
X-33092Y-82523D01*
X-36693Y-80782D01*
G37*
G36*
X-43895Y-77300D02*
X-42154Y-73699D01*
X-38553Y-75440D01*
X-40294Y-79041D01*
X-43895Y-77300D01*
G37*
G36*
X-40414Y-70098D02*
X-38673Y-66497D01*
X-35072Y-68238D01*
X-36813Y-71839D01*
X-40414Y-70098D01*
G37*
G36*
X-33211Y-73580D02*
X-31470Y-69979D01*
X-27869Y-71720D01*
X-29610Y-75321D01*
X-33211Y-73580D01*
G37*
D10*
X4000Y-86700D03*
X-4000Y-86700D03*
X-4000Y-78700D03*
X4000Y-78700D03*
D11*
G36*
X40294Y-79041D02*
X38553Y-75440D01*
X42154Y-73699D01*
X43895Y-77300D01*
X40294Y-79041D01*
G37*
G36*
X33092Y-82523D02*
X31351Y-78922D01*
X34952Y-77181D01*
X36693Y-80782D01*
X33092Y-82523D01*
G37*
G36*
X29610Y-75321D02*
X27869Y-71720D01*
X31470Y-69979D01*
X33211Y-73580D01*
X29610Y-75321D01*
G37*
G36*
X36813Y-71839D02*
X35072Y-68238D01*
X38673Y-66497D01*
X40414Y-70098D01*
X36813Y-71839D01*
G37*
G36*
X70594Y-53742D02*
X67469Y-51247D01*
X69964Y-48122D01*
X73089Y-50617D01*
X70594Y-53742D01*
G37*
G36*
X65603Y-59994D02*
X62478Y-57499D01*
X64973Y-54374D01*
X68098Y-56869D01*
X65603Y-59994D01*
G37*
G36*
X59351Y-55003D02*
X56226Y-52508D01*
X58721Y-49383D01*
X61846Y-51878D01*
X59351Y-55003D01*
G37*
G36*
X64342Y-48751D02*
X61217Y-46256D01*
X63712Y-43131D01*
X66837Y-45626D01*
X64342Y-48751D01*
G37*
G36*
X86920Y-17781D02*
X83020Y-16895D01*
X83906Y-12995D01*
X87806Y-13881D01*
X86920Y-17781D01*
G37*
G36*
X85148Y-25582D02*
X81248Y-24696D01*
X82134Y-20796D01*
X86034Y-21682D01*
X85148Y-25582D01*
G37*
G36*
X77347Y-23810D02*
X73447Y-22924D01*
X74333Y-19024D01*
X78233Y-19910D01*
X77347Y-23810D01*
G37*
G36*
X79119Y-16009D02*
X75219Y-15123D01*
X76105Y-11223D01*
X80005Y-12109D01*
X79119Y-16009D01*
G37*
G36*
X86034Y21682D02*
X82134Y20796D01*
X81248Y24696D01*
X85148Y25582D01*
X86034Y21682D01*
G37*
G36*
X87806Y13881D02*
X83906Y12995D01*
X83020Y16895D01*
X86920Y17781D01*
X87806Y13881D01*
G37*
G36*
X80005Y12109D02*
X76105Y11223D01*
X75219Y15123D01*
X79119Y16009D01*
X80005Y12109D01*
G37*
G36*
X78233Y19910D02*
X74333Y19024D01*
X73447Y22924D01*
X77347Y23810D01*
X78233Y19910D01*
G37*
G36*
X68098Y56869D02*
X64973Y54374D01*
X62478Y57499D01*
X65603Y59994D01*
X68098Y56869D01*
G37*
G36*
X73089Y50617D02*
X69964Y48122D01*
X67469Y51247D01*
X70594Y53742D01*
X73089Y50617D01*
G37*
G36*
X66837Y45626D02*
X63712Y43131D01*
X61217Y46256D01*
X64342Y48751D01*
X66837Y45626D01*
G37*
G36*
X61846Y51878D02*
X58721Y49383D01*
X56226Y52508D01*
X59351Y55003D01*
X61846Y51878D01*
G37*
G36*
X36693Y80782D02*
X34952Y77181D01*
X31351Y78922D01*
X33092Y82523D01*
X36693Y80782D01*
G37*
G36*
X43895Y77300D02*
X42154Y73699D01*
X38553Y75440D01*
X40294Y79041D01*
X43895Y77300D01*
G37*
G36*
X40414Y70098D02*
X38673Y66497D01*
X35072Y68238D01*
X36813Y71839D01*
X40414Y70098D01*
G37*
G36*
X33211Y73580D02*
X31470Y69979D01*
X27869Y71720D01*
X29610Y75321D01*
X33211Y73580D01*
G37*
D10*
X-4000Y44000D03*
X4000Y44000D03*
X4000Y36000D03*
X-4000Y36000D03*
D11*
G36*
X-40837Y21268D02*
X-37373Y19268D01*
X-39373Y15804D01*
X-42837Y17804D01*
X-40837Y21268D01*
G37*
G36*
X-36837Y28196D02*
X-33373Y26196D01*
X-35373Y22732D01*
X-38837Y24732D01*
X-36837Y28196D01*
G37*
G36*
X-29909Y24196D02*
X-26445Y22196D01*
X-28445Y18732D01*
X-31909Y20732D01*
X-29909Y24196D01*
G37*
G36*
X-33909Y17268D02*
X-30445Y15268D01*
X-32445Y11804D01*
X-35909Y13804D01*
X-33909Y17268D01*
G37*
G36*
X-38837Y-24732D02*
X-35373Y-22732D01*
X-33373Y-26196D01*
X-36837Y-28196D01*
X-38837Y-24732D01*
G37*
G36*
X-42837Y-17804D02*
X-39373Y-15804D01*
X-37373Y-19268D01*
X-40837Y-21268D01*
X-42837Y-17804D01*
G37*
G36*
X-35909Y-13804D02*
X-32445Y-11804D01*
X-30445Y-15268D01*
X-33909Y-17268D01*
X-35909Y-13804D01*
G37*
G36*
X-31909Y-20732D02*
X-28445Y-18732D01*
X-26445Y-22196D01*
X-29909Y-24196D01*
X-31909Y-20732D01*
G37*
D10*
X4000Y-44000D03*
X-4000Y-44000D03*
X-4000Y-36000D03*
X4000Y-36000D03*
D11*
G36*
X40837Y-21268D02*
X37373Y-19268D01*
X39373Y-15804D01*
X42837Y-17804D01*
X40837Y-21268D01*
G37*
G36*
X36837Y-28196D02*
X33373Y-26196D01*
X35373Y-22732D01*
X38837Y-24732D01*
X36837Y-28196D01*
G37*
G36*
X29909Y-24196D02*
X26445Y-22196D01*
X28445Y-18732D01*
X31909Y-20732D01*
X29909Y-24196D01*
G37*
G36*
X33909Y-17268D02*
X30445Y-15268D01*
X32445Y-11804D01*
X35909Y-13804D01*
X33909Y-17268D01*
G37*
G36*
X38837Y24732D02*
X35373Y22732D01*
X33373Y26196D01*
X36837Y28196D01*
X38837Y24732D01*
G37*
G36*
X42837Y17804D02*
X39373Y15804D01*
X37373Y19268D01*
X40837Y21268D01*
X42837Y17804D01*
G37*
G36*
X35909Y13804D02*
X32445Y11804D01*
X30445Y15268D01*
X33909Y17268D01*
X35909Y13804D01*
G37*
G36*
X31909Y20732D02*
X28445Y18732D01*
X26445Y22196D01*
X29909Y24196D01*
X31909Y20732D01*
G37*
D10*
X4000Y4000D03*
X4000Y-4000D03*
X-4000Y-4000D03*
X-4000Y4000D03*
M02*
