G04 EAGLE Gerber RS-274X export*
G75*
%MOMM*%
%FSLAX34Y34*%
%LPD*%
%INTop Silkscreen*%
%IPPOS*%
%AMOC8*
5,1,8,0,0,1.08239X$1,22.5*%
G01*
%ADD10C,0.101600*%
%ADD11C,0.127000*%


D10*
X-15240Y-352552D02*
X-23368Y-352044D01*
D11*
X-2000Y328900D02*
X0Y328900D01*
X-2000Y328900D02*
X-5000Y328900D01*
X-2000Y328900D01*
X0Y328900D01*
X5000Y328900D01*
X0Y328900D01*
X0Y323900D01*
X0Y330900D01*
X0Y333900D01*
X0Y330900D02*
X-2000Y328900D01*
X-44785Y325837D02*
X-46767Y325565D01*
X-49739Y325158D01*
X-46767Y325565D01*
X-44785Y325837D01*
X-39831Y326515D01*
X-44785Y325837D01*
X-44107Y320883D01*
X-45057Y327818D01*
X-45464Y330790D01*
X-45057Y327818D02*
X-46767Y325565D01*
X-88736Y316704D02*
X-90662Y316166D01*
X-93552Y315359D01*
X-90662Y316166D01*
X-88736Y316704D01*
X-83920Y318048D01*
X-88736Y316704D01*
X-87392Y311888D01*
X-89274Y318630D01*
X-90081Y321519D01*
X-89274Y318630D02*
X-90662Y316166D01*
X-131034Y301671D02*
X-132868Y300873D01*
X-135619Y299677D01*
X-132868Y300873D01*
X-131034Y301671D01*
X-126449Y303665D01*
X-131034Y301671D01*
X-129040Y297085D01*
X-131832Y303505D01*
X-133028Y306256D01*
X-131832Y303505D02*
X-132868Y300873D01*
X-170891Y281019D02*
X-172600Y279979D01*
X-175163Y278421D01*
X-172600Y279979D01*
X-170891Y281019D01*
X-166619Y283616D01*
X-170891Y281019D01*
X-168294Y276746D01*
X-171930Y282727D01*
X-173489Y285291D01*
X-171930Y282727D02*
X-172600Y279979D01*
X-207565Y255131D02*
X-209117Y253870D01*
X-211445Y251978D01*
X-209117Y253870D01*
X-207565Y255131D01*
X-203685Y258285D01*
X-207565Y255131D01*
X-204411Y251251D01*
X-208826Y256684D01*
X-210718Y259012D01*
X-208826Y256684D02*
X-209117Y253870D01*
X-240372Y224492D02*
X-241738Y223031D01*
X-243788Y220841D01*
X-241738Y223031D01*
X-240372Y224492D01*
X-236956Y228143D01*
X-240372Y224492D01*
X-236721Y221075D01*
X-241832Y225858D01*
X-244023Y227908D01*
X-241832Y225858D02*
X-241738Y223031D01*
X-268701Y189670D02*
X-269854Y188036D01*
X-271584Y185584D01*
X-269854Y188036D01*
X-268701Y189670D01*
X-265819Y193756D01*
X-268701Y189670D01*
X-264616Y186788D01*
X-270336Y190823D01*
X-272787Y192552D01*
X-270336Y190823D02*
X-269854Y188036D01*
X-292025Y151315D02*
X-292946Y149540D01*
X-294326Y146876D01*
X-292946Y149540D01*
X-292025Y151315D01*
X-289724Y155754D01*
X-292025Y151315D01*
X-287586Y149014D01*
X-293801Y152236D01*
X-296465Y153616D01*
X-293801Y152236D02*
X-292946Y149540D01*
X-309910Y110142D02*
X-310581Y108258D01*
X-311587Y105432D01*
X-310581Y108258D01*
X-309910Y110142D01*
X-308232Y114852D01*
X-309910Y110142D01*
X-305199Y108465D01*
X-311794Y110813D01*
X-314620Y111819D01*
X-311794Y110813D02*
X-310581Y108258D01*
X-322021Y66917D02*
X-322430Y64959D01*
X-323043Y62022D01*
X-322430Y64959D01*
X-322021Y66917D01*
X-320998Y71811D01*
X-322021Y66917D01*
X-317126Y65894D01*
X-323978Y67326D01*
X-326915Y67939D01*
X-323978Y67326D02*
X-322430Y64959D01*
X-328133Y22445D02*
X-328273Y20450D01*
X-328482Y17457D01*
X-328273Y20450D01*
X-328133Y22445D01*
X-327784Y27433D01*
X-328133Y22445D01*
X-323145Y22096D01*
X-330128Y22584D01*
X-333121Y22794D01*
X-330128Y22584D02*
X-328273Y20450D01*
X-328133Y-22445D02*
X-327994Y-24440D01*
X-327784Y-27433D01*
X-327994Y-24440D01*
X-328133Y-22445D01*
X-328482Y-17457D01*
X-328133Y-22445D01*
X-323145Y-22096D01*
X-330128Y-22584D01*
X-333121Y-22794D01*
X-330128Y-22584D02*
X-327994Y-24440D01*
X-322021Y-66917D02*
X-321612Y-68874D01*
X-320998Y-71811D01*
X-321612Y-68874D01*
X-322021Y-66917D01*
X-323043Y-62022D01*
X-322021Y-66917D01*
X-317126Y-65894D01*
X-323978Y-67326D01*
X-326915Y-67939D01*
X-323978Y-67326D02*
X-321612Y-68874D01*
X-309910Y-110142D02*
X-309239Y-112026D01*
X-308232Y-114852D01*
X-309239Y-112026D01*
X-309910Y-110142D01*
X-311587Y-105432D01*
X-309910Y-110142D01*
X-305199Y-108465D01*
X-311794Y-110813D01*
X-314620Y-111819D01*
X-311794Y-110813D02*
X-309239Y-112026D01*
X-292025Y-151315D02*
X-291105Y-153091D01*
X-289724Y-155754D01*
X-291105Y-153091D01*
X-292025Y-151315D01*
X-294326Y-146876D01*
X-292025Y-151315D01*
X-287586Y-149014D01*
X-293801Y-152236D01*
X-296465Y-153616D01*
X-293801Y-152236D02*
X-291105Y-153091D01*
X-268701Y-189670D02*
X-267549Y-191304D01*
X-265819Y-193756D01*
X-267549Y-191304D01*
X-268701Y-189670D01*
X-271584Y-185584D01*
X-268701Y-189670D01*
X-264616Y-186788D01*
X-270336Y-190823D01*
X-272787Y-192552D01*
X-270336Y-190823D02*
X-267549Y-191304D01*
X-240372Y-224492D02*
X-239005Y-225952D01*
X-236956Y-228143D01*
X-239005Y-225952D01*
X-240372Y-224492D01*
X-243788Y-220841D01*
X-240372Y-224492D01*
X-236721Y-221075D01*
X-241832Y-225858D01*
X-244023Y-227908D01*
X-241832Y-225858D02*
X-239005Y-225952D01*
X-207565Y-255131D02*
X-206013Y-256393D01*
X-203685Y-258285D01*
X-206013Y-256393D01*
X-207565Y-255131D01*
X-211445Y-251978D01*
X-207565Y-255131D01*
X-204411Y-251251D01*
X-208826Y-256684D01*
X-210718Y-259012D01*
X-208826Y-256684D02*
X-206013Y-256393D01*
X-170891Y-281019D02*
X-169182Y-282058D01*
X-166619Y-283616D01*
X-169182Y-282058D01*
X-170891Y-281019D01*
X-175163Y-278421D01*
X-170891Y-281019D01*
X-168294Y-276746D01*
X-171930Y-282727D01*
X-173489Y-285291D01*
X-171930Y-282727D02*
X-169182Y-282058D01*
X-131034Y-301671D02*
X-129200Y-302468D01*
X-126449Y-303665D01*
X-129200Y-302468D01*
X-131034Y-301671D01*
X-135619Y-299677D01*
X-131034Y-301671D01*
X-129040Y-297085D01*
X-131832Y-303505D01*
X-133028Y-306256D01*
X-131832Y-303505D02*
X-129200Y-302468D01*
X-88736Y-316704D02*
X-86810Y-317241D01*
X-83920Y-318048D01*
X-86810Y-317241D01*
X-88736Y-316704D01*
X-93552Y-315359D01*
X-88736Y-316704D01*
X-87392Y-311888D01*
X-89274Y-318630D01*
X-90081Y-321519D01*
X-89274Y-318630D02*
X-86810Y-317241D01*
X-44785Y-325837D02*
X-42804Y-326108D01*
X-39831Y-326515D01*
X-42804Y-326108D01*
X-44785Y-325837D01*
X-49739Y-325158D01*
X-44785Y-325837D01*
X-44107Y-320883D01*
X-45057Y-327818D01*
X-45464Y-330790D01*
X-45057Y-327818D02*
X-42804Y-326108D01*
X0Y-328900D02*
X2000Y-328900D01*
X5000Y-328900D01*
X2000Y-328900D01*
X0Y-328900D01*
X-5000Y-328900D01*
X0Y-328900D01*
X0Y-323900D01*
X0Y-330900D01*
X0Y-333900D01*
X0Y-330900D02*
X2000Y-328900D01*
X44785Y-325837D02*
X46767Y-325565D01*
X49739Y-325158D01*
X46767Y-325565D01*
X44785Y-325837D01*
X39831Y-326515D01*
X44785Y-325837D01*
X44107Y-320883D01*
X45057Y-327818D01*
X45464Y-330790D01*
X45057Y-327818D02*
X46767Y-325565D01*
X88736Y-316704D02*
X90662Y-316166D01*
X93552Y-315359D01*
X90662Y-316166D01*
X88736Y-316704D01*
X83920Y-318048D01*
X88736Y-316704D01*
X87392Y-311888D01*
X89274Y-318630D01*
X90081Y-321519D01*
X89274Y-318630D02*
X90662Y-316166D01*
X131034Y-301671D02*
X132868Y-300873D01*
X135619Y-299677D01*
X132868Y-300873D01*
X131034Y-301671D01*
X126449Y-303665D01*
X131034Y-301671D01*
X129040Y-297085D01*
X131832Y-303505D01*
X133028Y-306256D01*
X131832Y-303505D02*
X132868Y-300873D01*
X170891Y-281019D02*
X172600Y-279979D01*
X175163Y-278421D01*
X172600Y-279979D01*
X170891Y-281019D01*
X166619Y-283616D01*
X170891Y-281019D01*
X168294Y-276746D01*
X171930Y-282727D01*
X173489Y-285291D01*
X171930Y-282727D02*
X172600Y-279979D01*
X207565Y-255131D02*
X209117Y-253870D01*
X211445Y-251978D01*
X209117Y-253870D01*
X207565Y-255131D01*
X203685Y-258285D01*
X207565Y-255131D01*
X204411Y-251251D01*
X208826Y-256684D01*
X210718Y-259012D01*
X208826Y-256684D02*
X209117Y-253870D01*
X240372Y-224492D02*
X241738Y-223031D01*
X243788Y-220841D01*
X241738Y-223031D01*
X240372Y-224492D01*
X236956Y-228143D01*
X240372Y-224492D01*
X236721Y-221075D01*
X241832Y-225858D01*
X244023Y-227908D01*
X241832Y-225858D02*
X241738Y-223031D01*
X268701Y-189670D02*
X269854Y-188036D01*
X271584Y-185584D01*
X269854Y-188036D01*
X268701Y-189670D01*
X265819Y-193756D01*
X268701Y-189670D01*
X264616Y-186788D01*
X270336Y-190823D01*
X272787Y-192552D01*
X270336Y-190823D02*
X269854Y-188036D01*
X292025Y-151315D02*
X292946Y-149540D01*
X294326Y-146876D01*
X292946Y-149540D01*
X292025Y-151315D01*
X289724Y-155754D01*
X292025Y-151315D01*
X287586Y-149014D01*
X293801Y-152236D01*
X296465Y-153616D01*
X293801Y-152236D02*
X292946Y-149540D01*
X309910Y-110142D02*
X310581Y-108258D01*
X311587Y-105432D01*
X310581Y-108258D01*
X309910Y-110142D01*
X308232Y-114852D01*
X309910Y-110142D01*
X305199Y-108465D01*
X311794Y-110813D01*
X314620Y-111819D01*
X311794Y-110813D02*
X310581Y-108258D01*
X322021Y-66917D02*
X322430Y-64959D01*
X323043Y-62022D01*
X322430Y-64959D01*
X322021Y-66917D01*
X320998Y-71811D01*
X322021Y-66917D01*
X317126Y-65894D01*
X323978Y-67326D01*
X326915Y-67939D01*
X323978Y-67326D02*
X322430Y-64959D01*
X328133Y-22445D02*
X328273Y-20450D01*
X328482Y-17457D01*
X328273Y-20450D01*
X328133Y-22445D01*
X327784Y-27433D01*
X328133Y-22445D01*
X323145Y-22096D01*
X330128Y-22584D01*
X333121Y-22794D01*
X330128Y-22584D02*
X328273Y-20450D01*
X328133Y22445D02*
X327994Y24440D01*
X327784Y27433D01*
X327994Y24440D01*
X328133Y22445D01*
X328482Y17457D01*
X328133Y22445D01*
X323145Y22096D01*
X330128Y22584D01*
X333121Y22794D01*
X330128Y22584D02*
X327994Y24440D01*
X322021Y66917D02*
X321612Y68874D01*
X320998Y71811D01*
X321612Y68874D01*
X322021Y66917D01*
X323043Y62022D01*
X322021Y66917D01*
X317126Y65894D01*
X323978Y67326D01*
X326915Y67939D01*
X323978Y67326D02*
X321612Y68874D01*
X309910Y110142D02*
X309239Y112026D01*
X308232Y114852D01*
X309239Y112026D01*
X309910Y110142D01*
X311587Y105432D01*
X309910Y110142D01*
X305199Y108465D01*
X311794Y110813D01*
X314620Y111819D01*
X311794Y110813D02*
X309239Y112026D01*
X292025Y151315D02*
X291105Y153091D01*
X289724Y155754D01*
X291105Y153091D01*
X292025Y151315D01*
X294326Y146876D01*
X292025Y151315D01*
X287586Y149014D01*
X293801Y152236D01*
X296465Y153616D01*
X293801Y152236D02*
X291105Y153091D01*
X268701Y189670D02*
X267549Y191304D01*
X265819Y193756D01*
X267549Y191304D01*
X268701Y189670D01*
X271584Y185584D01*
X268701Y189670D01*
X264616Y186788D01*
X270336Y190823D01*
X272787Y192552D01*
X270336Y190823D02*
X267549Y191304D01*
X240372Y224492D02*
X239005Y225952D01*
X236956Y228143D01*
X239005Y225952D01*
X240372Y224492D01*
X243788Y220841D01*
X240372Y224492D01*
X236721Y221075D01*
X241832Y225858D01*
X244023Y227908D01*
X241832Y225858D02*
X239005Y225952D01*
X207565Y255131D02*
X206013Y256393D01*
X203685Y258285D01*
X206013Y256393D01*
X207565Y255131D01*
X211445Y251978D01*
X207565Y255131D01*
X204411Y251251D01*
X208826Y256684D01*
X210718Y259012D01*
X208826Y256684D02*
X206013Y256393D01*
X170891Y281019D02*
X169182Y282058D01*
X166619Y283616D01*
X169182Y282058D01*
X170891Y281019D01*
X175163Y278421D01*
X170891Y281019D01*
X168294Y276746D01*
X171930Y282727D01*
X173489Y285291D01*
X171930Y282727D02*
X169182Y282058D01*
X131034Y301671D02*
X129200Y302468D01*
X126449Y303665D01*
X129200Y302468D01*
X131034Y301671D01*
X135619Y299677D01*
X131034Y301671D01*
X129040Y297085D01*
X131832Y303505D01*
X133028Y306256D01*
X131832Y303505D02*
X129200Y302468D01*
X88736Y316704D02*
X86810Y317241D01*
X83920Y318048D01*
X86810Y317241D01*
X88736Y316704D01*
X93552Y315359D01*
X88736Y316704D01*
X87392Y311888D01*
X89274Y318630D01*
X90081Y321519D01*
X89274Y318630D02*
X86810Y317241D01*
X44785Y325837D02*
X42804Y326108D01*
X39831Y326515D01*
X42804Y326108D01*
X44785Y325837D01*
X49739Y325158D01*
X44785Y325837D01*
X44107Y320883D01*
X45057Y327818D01*
X45464Y330790D01*
X45057Y327818D02*
X42804Y326108D01*
X0Y287300D02*
X-2000Y287300D01*
X-5000Y287300D01*
X-2000Y287300D01*
X0Y287300D01*
X5000Y287300D01*
X0Y287300D01*
X0Y282300D01*
X0Y289300D01*
X0Y292300D01*
X0Y289300D02*
X-2000Y287300D01*
X-44944Y283763D02*
X-46919Y283450D01*
X-49882Y282981D01*
X-46919Y283450D01*
X-44944Y283763D01*
X-40005Y284545D01*
X-44944Y283763D01*
X-44161Y278824D01*
X-45256Y285738D01*
X-45726Y288701D01*
X-45256Y285738D02*
X-46919Y283450D01*
X-88781Y273239D02*
X-90683Y272620D01*
X-93536Y271693D01*
X-90683Y272620D01*
X-88781Y273239D01*
X-84025Y274784D01*
X-88781Y273239D01*
X-87236Y268483D01*
X-89399Y275141D01*
X-90326Y277994D01*
X-89399Y275141D02*
X-90683Y272620D01*
X-130431Y255986D02*
X-132213Y255078D01*
X-134887Y253716D01*
X-132213Y255078D01*
X-130431Y255986D01*
X-125976Y258256D01*
X-130431Y255986D01*
X-128162Y251531D01*
X-131339Y257768D01*
X-132701Y260441D01*
X-131339Y257768D02*
X-132213Y255078D01*
X-168871Y232431D02*
X-170489Y231255D01*
X-172916Y229492D01*
X-170489Y231255D01*
X-168871Y232431D01*
X-164826Y235370D01*
X-168871Y232431D01*
X-165932Y228386D01*
X-170046Y234049D01*
X-171810Y236476D01*
X-170046Y234049D02*
X-170489Y231255D01*
X-203152Y203152D02*
X-204566Y201738D01*
X-206687Y199616D01*
X-204566Y201738D01*
X-203152Y203152D01*
X-199616Y206687D01*
X-203152Y203152D01*
X-199616Y199616D01*
X-204566Y204566D01*
X-206687Y206687D01*
X-204566Y204566D02*
X-204566Y201738D01*
X-232431Y168871D02*
X-233606Y167253D01*
X-235370Y164826D01*
X-233606Y167253D01*
X-232431Y168871D01*
X-229492Y172916D01*
X-232431Y168871D01*
X-228386Y165932D01*
X-234049Y170046D01*
X-236476Y171810D01*
X-234049Y170046D02*
X-233606Y167253D01*
X-255986Y130431D02*
X-256894Y128649D01*
X-258256Y125976D01*
X-256894Y128649D01*
X-255986Y130431D01*
X-253716Y134887D01*
X-255986Y130431D01*
X-251531Y128162D01*
X-257768Y131339D01*
X-260441Y132701D01*
X-257768Y131339D02*
X-256894Y128649D01*
X-273239Y88781D02*
X-273857Y86878D01*
X-274784Y84025D01*
X-273857Y86878D01*
X-273239Y88781D01*
X-271693Y93536D01*
X-273239Y88781D01*
X-268483Y87236D01*
X-275141Y89399D01*
X-277994Y90326D01*
X-275141Y89399D02*
X-273857Y86878D01*
X-283763Y44944D02*
X-284076Y42968D01*
X-284545Y40005D01*
X-284076Y42968D01*
X-283763Y44944D01*
X-282981Y49882D01*
X-283763Y44944D01*
X-278824Y44161D01*
X-285738Y45256D01*
X-288701Y45726D01*
X-285738Y45256D02*
X-284076Y42968D01*
X-287300Y0D02*
X-287300Y-2000D01*
X-287300Y-5000D01*
X-287300Y-2000D01*
X-287300Y0D01*
X-287300Y5000D01*
X-287300Y0D01*
X-282300Y0D01*
X-289300Y0D01*
X-292300Y0D01*
X-289300Y0D02*
X-287300Y-2000D01*
X-283763Y-44944D02*
X-283450Y-46919D01*
X-282981Y-49882D01*
X-283450Y-46919D01*
X-283763Y-44944D01*
X-284545Y-40005D01*
X-283763Y-44944D01*
X-278824Y-44161D01*
X-285738Y-45256D01*
X-288701Y-45726D01*
X-285738Y-45256D02*
X-283450Y-46919D01*
X-273239Y-88781D02*
X-272620Y-90683D01*
X-271693Y-93536D01*
X-272620Y-90683D01*
X-273239Y-88781D01*
X-274784Y-84025D01*
X-273239Y-88781D01*
X-268483Y-87236D01*
X-275141Y-89399D01*
X-277994Y-90326D01*
X-275141Y-89399D02*
X-272620Y-90683D01*
X-255986Y-130431D02*
X-255078Y-132213D01*
X-253716Y-134887D01*
X-255078Y-132213D01*
X-255986Y-130431D01*
X-258256Y-125976D01*
X-255986Y-130431D01*
X-251531Y-128162D01*
X-257768Y-131339D01*
X-260441Y-132701D01*
X-257768Y-131339D02*
X-255078Y-132213D01*
X-232431Y-168871D02*
X-231255Y-170489D01*
X-229492Y-172916D01*
X-231255Y-170489D01*
X-232431Y-168871D01*
X-235370Y-164826D01*
X-232431Y-168871D01*
X-228386Y-165932D01*
X-234049Y-170046D01*
X-236476Y-171810D01*
X-234049Y-170046D02*
X-231255Y-170489D01*
X-203152Y-203152D02*
X-201738Y-204566D01*
X-199616Y-206687D01*
X-201738Y-204566D01*
X-203152Y-203152D01*
X-206687Y-199616D01*
X-203152Y-203152D01*
X-199616Y-199616D01*
X-204566Y-204566D01*
X-206687Y-206687D01*
X-204566Y-204566D02*
X-201738Y-204566D01*
X-168871Y-232431D02*
X-167253Y-233606D01*
X-164826Y-235370D01*
X-167253Y-233606D01*
X-168871Y-232431D01*
X-172916Y-229492D01*
X-168871Y-232431D01*
X-165932Y-228386D01*
X-170046Y-234049D01*
X-171810Y-236476D01*
X-170046Y-234049D02*
X-167253Y-233606D01*
X-130431Y-255986D02*
X-128649Y-256894D01*
X-125976Y-258256D01*
X-128649Y-256894D01*
X-130431Y-255986D01*
X-134887Y-253716D01*
X-130431Y-255986D01*
X-128162Y-251531D01*
X-131339Y-257768D01*
X-132701Y-260441D01*
X-131339Y-257768D02*
X-128649Y-256894D01*
X-88781Y-273239D02*
X-86878Y-273857D01*
X-84025Y-274784D01*
X-86878Y-273857D01*
X-88781Y-273239D01*
X-93536Y-271693D01*
X-88781Y-273239D01*
X-87236Y-268483D01*
X-89399Y-275141D01*
X-90326Y-277994D01*
X-89399Y-275141D02*
X-86878Y-273857D01*
X-44944Y-283763D02*
X-42968Y-284076D01*
X-40005Y-284545D01*
X-42968Y-284076D01*
X-44944Y-283763D01*
X-49882Y-282981D01*
X-44944Y-283763D01*
X-44161Y-278824D01*
X-45256Y-285738D01*
X-45726Y-288701D01*
X-45256Y-285738D02*
X-42968Y-284076D01*
X0Y-287300D02*
X2000Y-287300D01*
X5000Y-287300D01*
X2000Y-287300D01*
X0Y-287300D01*
X-5000Y-287300D01*
X0Y-287300D01*
X0Y-282300D01*
X0Y-289300D01*
X0Y-292300D01*
X0Y-289300D02*
X2000Y-287300D01*
X44944Y-283763D02*
X46919Y-283450D01*
X49882Y-282981D01*
X46919Y-283450D01*
X44944Y-283763D01*
X40005Y-284545D01*
X44944Y-283763D01*
X44161Y-278824D01*
X45256Y-285738D01*
X45726Y-288701D01*
X45256Y-285738D02*
X46919Y-283450D01*
X88781Y-273239D02*
X90683Y-272620D01*
X93536Y-271693D01*
X90683Y-272620D01*
X88781Y-273239D01*
X84025Y-274784D01*
X88781Y-273239D01*
X87236Y-268483D01*
X89399Y-275141D01*
X90326Y-277994D01*
X89399Y-275141D02*
X90683Y-272620D01*
X130431Y-255986D02*
X132213Y-255078D01*
X134887Y-253716D01*
X132213Y-255078D01*
X130431Y-255986D01*
X125976Y-258256D01*
X130431Y-255986D01*
X128162Y-251531D01*
X131339Y-257768D01*
X132701Y-260441D01*
X131339Y-257768D02*
X132213Y-255078D01*
X168871Y-232431D02*
X170489Y-231255D01*
X172916Y-229492D01*
X170489Y-231255D01*
X168871Y-232431D01*
X164826Y-235370D01*
X168871Y-232431D01*
X165932Y-228386D01*
X170046Y-234049D01*
X171810Y-236476D01*
X170046Y-234049D02*
X170489Y-231255D01*
X203152Y-203152D02*
X204566Y-201738D01*
X206687Y-199616D01*
X204566Y-201738D01*
X203152Y-203152D01*
X199616Y-206687D01*
X203152Y-203152D01*
X199616Y-199616D01*
X204566Y-204566D01*
X206687Y-206687D01*
X204566Y-204566D02*
X204566Y-201738D01*
X232431Y-168871D02*
X233606Y-167253D01*
X235370Y-164826D01*
X233606Y-167253D01*
X232431Y-168871D01*
X229492Y-172916D01*
X232431Y-168871D01*
X228386Y-165932D01*
X234049Y-170046D01*
X236476Y-171810D01*
X234049Y-170046D02*
X233606Y-167253D01*
X255986Y-130431D02*
X256894Y-128649D01*
X258256Y-125976D01*
X256894Y-128649D01*
X255986Y-130431D01*
X253716Y-134887D01*
X255986Y-130431D01*
X251531Y-128162D01*
X257768Y-131339D01*
X260441Y-132701D01*
X257768Y-131339D02*
X256894Y-128649D01*
X273239Y-88781D02*
X273857Y-86878D01*
X274784Y-84025D01*
X273857Y-86878D01*
X273239Y-88781D01*
X271693Y-93536D01*
X273239Y-88781D01*
X268483Y-87236D01*
X275141Y-89399D01*
X277994Y-90326D01*
X275141Y-89399D02*
X273857Y-86878D01*
X283763Y-44944D02*
X284076Y-42968D01*
X284545Y-40005D01*
X284076Y-42968D01*
X283763Y-44944D01*
X282981Y-49882D01*
X283763Y-44944D01*
X278824Y-44161D01*
X285738Y-45256D01*
X288701Y-45726D01*
X285738Y-45256D02*
X284076Y-42968D01*
X287300Y0D02*
X287300Y2000D01*
X287300Y5000D01*
X287300Y2000D01*
X287300Y0D01*
X287300Y-5000D01*
X287300Y0D01*
X282300Y0D01*
X289300Y0D01*
X292300Y0D01*
X289300Y0D02*
X287300Y2000D01*
X283763Y44944D02*
X283450Y46919D01*
X282981Y49882D01*
X283450Y46919D01*
X283763Y44944D01*
X284545Y40005D01*
X283763Y44944D01*
X278824Y44161D01*
X285738Y45256D01*
X288701Y45726D01*
X285738Y45256D02*
X283450Y46919D01*
X273239Y88781D02*
X272620Y90683D01*
X271693Y93536D01*
X272620Y90683D01*
X273239Y88781D01*
X274784Y84025D01*
X273239Y88781D01*
X268483Y87236D01*
X275141Y89399D01*
X277994Y90326D01*
X275141Y89399D02*
X272620Y90683D01*
X255986Y130431D02*
X255078Y132213D01*
X253716Y134887D01*
X255078Y132213D01*
X255986Y130431D01*
X258256Y125976D01*
X255986Y130431D01*
X251531Y128162D01*
X257768Y131339D01*
X260441Y132701D01*
X257768Y131339D02*
X255078Y132213D01*
X232431Y168871D02*
X231255Y170489D01*
X229492Y172916D01*
X231255Y170489D01*
X232431Y168871D01*
X235370Y164826D01*
X232431Y168871D01*
X228386Y165932D01*
X234049Y170046D01*
X236476Y171810D01*
X234049Y170046D02*
X231255Y170489D01*
X203152Y203152D02*
X201738Y204566D01*
X199616Y206687D01*
X201738Y204566D01*
X203152Y203152D01*
X206687Y199616D01*
X203152Y203152D01*
X199616Y199616D01*
X204566Y204566D01*
X206687Y206687D01*
X204566Y204566D02*
X201738Y204566D01*
X168871Y232431D02*
X167253Y233606D01*
X164826Y235370D01*
X167253Y233606D01*
X168871Y232431D01*
X172916Y229492D01*
X168871Y232431D01*
X165932Y228386D01*
X170046Y234049D01*
X171810Y236476D01*
X170046Y234049D02*
X167253Y233606D01*
X130431Y255986D02*
X128649Y256894D01*
X125976Y258256D01*
X128649Y256894D01*
X130431Y255986D01*
X134887Y253716D01*
X130431Y255986D01*
X128162Y251531D01*
X131339Y257768D01*
X132701Y260441D01*
X131339Y257768D02*
X128649Y256894D01*
X88781Y273239D02*
X86878Y273857D01*
X84025Y274784D01*
X86878Y273857D01*
X88781Y273239D01*
X93536Y271693D01*
X88781Y273239D01*
X87236Y268483D01*
X89399Y275141D01*
X90326Y277994D01*
X89399Y275141D02*
X86878Y273857D01*
X44944Y283763D02*
X42968Y284076D01*
X40005Y284545D01*
X42968Y284076D01*
X44944Y283763D01*
X49882Y282981D01*
X44944Y283763D01*
X44161Y278824D01*
X45256Y285738D01*
X45726Y288701D01*
X45256Y285738D02*
X42968Y284076D01*
X0Y245700D02*
X-2000Y245700D01*
X-5000Y245700D01*
X-2000Y245700D01*
X0Y245700D01*
X5000Y245700D01*
X0Y245700D01*
X0Y240700D01*
X0Y247700D01*
X0Y250700D01*
X0Y247700D02*
X-2000Y245700D01*
X-45147Y241517D02*
X-47114Y241152D01*
X-50064Y240605D01*
X-47114Y241152D01*
X-45147Y241517D01*
X-40231Y242428D01*
X-45147Y241517D01*
X-44236Y236600D01*
X-45512Y243483D01*
X-46058Y246433D01*
X-45512Y243483D02*
X-47114Y241152D01*
X-88757Y229108D02*
X-90622Y228385D01*
X-93419Y227300D01*
X-90622Y228385D01*
X-88757Y229108D01*
X-84095Y230917D01*
X-88757Y229108D01*
X-86949Y224447D01*
X-89480Y230973D01*
X-90565Y233770D01*
X-89480Y230973D02*
X-90622Y228385D01*
X-129344Y208898D02*
X-131046Y207847D01*
X-133598Y206271D01*
X-131046Y207847D01*
X-129344Y208898D01*
X-125090Y211526D01*
X-129344Y208898D01*
X-126717Y204644D01*
X-130395Y210600D01*
X-131972Y213152D01*
X-130395Y210600D02*
X-131046Y207847D01*
X-165527Y181575D02*
X-167004Y180226D01*
X-169219Y178203D01*
X-167004Y180226D01*
X-165527Y181575D01*
X-161835Y184946D01*
X-165527Y181575D01*
X-162156Y177882D01*
X-166876Y183051D01*
X-168899Y185267D01*
X-166876Y183051D02*
X-167004Y180226D01*
X-196073Y148067D02*
X-197279Y146472D01*
X-199089Y144079D01*
X-197279Y146472D01*
X-196073Y148067D01*
X-193057Y152055D01*
X-196073Y148067D01*
X-192085Y145051D01*
X-197668Y149274D01*
X-200061Y151083D01*
X-197668Y149274D02*
X-197279Y146472D01*
X-219942Y109518D02*
X-220834Y107728D01*
X-222173Y105043D01*
X-220834Y107728D01*
X-219942Y109518D01*
X-217711Y113993D01*
X-219942Y109518D01*
X-215467Y107287D01*
X-221731Y110410D01*
X-224416Y111749D01*
X-221731Y110410D02*
X-220834Y107728D01*
X-236321Y67239D02*
X-236868Y65316D01*
X-237690Y62430D01*
X-236868Y65316D01*
X-236321Y67239D01*
X-234951Y72048D01*
X-236321Y67239D01*
X-231512Y65869D01*
X-238244Y67787D01*
X-241129Y68609D01*
X-238244Y67787D02*
X-236868Y65316D01*
X-244652Y22670D02*
X-244837Y20679D01*
X-245114Y17692D01*
X-244837Y20679D01*
X-244652Y22670D01*
X-244190Y27649D01*
X-244652Y22670D01*
X-239673Y22208D01*
X-246643Y22855D01*
X-249630Y23132D01*
X-246643Y22855D02*
X-244837Y20679D01*
X-244652Y-22670D02*
X-244467Y-24662D01*
X-244190Y-27649D01*
X-244467Y-24662D01*
X-244652Y-22670D01*
X-245114Y-17692D01*
X-244652Y-22670D01*
X-239673Y-22208D01*
X-246643Y-22855D01*
X-249630Y-23132D01*
X-246643Y-22855D02*
X-244467Y-24662D01*
X-236321Y-67239D02*
X-235773Y-69162D01*
X-234951Y-72048D01*
X-235773Y-69162D01*
X-236321Y-67239D01*
X-237690Y-62430D01*
X-236321Y-67239D01*
X-231512Y-65869D01*
X-238244Y-67787D01*
X-241129Y-68609D01*
X-238244Y-67787D02*
X-235773Y-69162D01*
X-219942Y-109518D02*
X-219049Y-111308D01*
X-217711Y-113993D01*
X-219049Y-111308D01*
X-219942Y-109518D01*
X-222173Y-105043D01*
X-219942Y-109518D01*
X-215467Y-107287D01*
X-221731Y-110410D01*
X-224416Y-111749D01*
X-221731Y-110410D02*
X-219049Y-111308D01*
X-196073Y-148067D02*
X-194866Y-149663D01*
X-193057Y-152055D01*
X-194866Y-149663D01*
X-196073Y-148067D01*
X-199089Y-144079D01*
X-196073Y-148067D01*
X-192085Y-145051D01*
X-197668Y-149274D01*
X-200061Y-151083D01*
X-197668Y-149274D02*
X-194866Y-149663D01*
X-165527Y-181575D02*
X-164050Y-182923D01*
X-161835Y-184946D01*
X-164050Y-182923D01*
X-165527Y-181575D01*
X-169219Y-178203D01*
X-165527Y-181575D01*
X-162156Y-177882D01*
X-166876Y-183051D01*
X-168899Y-185267D01*
X-166876Y-183051D02*
X-164050Y-182923D01*
X-129344Y-208898D02*
X-127643Y-209949D01*
X-125090Y-211526D01*
X-127643Y-209949D01*
X-129344Y-208898D01*
X-133598Y-206271D01*
X-129344Y-208898D01*
X-126717Y-204644D01*
X-130395Y-210600D01*
X-131972Y-213152D01*
X-130395Y-210600D02*
X-127643Y-209949D01*
X-88757Y-229108D02*
X-86892Y-229832D01*
X-84095Y-230917D01*
X-86892Y-229832D01*
X-88757Y-229108D01*
X-93419Y-227300D01*
X-88757Y-229108D01*
X-86949Y-224447D01*
X-89480Y-230973D01*
X-90565Y-233770D01*
X-89480Y-230973D02*
X-86892Y-229832D01*
X-45147Y-241517D02*
X-43181Y-241881D01*
X-40231Y-242428D01*
X-43181Y-241881D01*
X-45147Y-241517D01*
X-50064Y-240605D01*
X-45147Y-241517D01*
X-44236Y-236600D01*
X-45512Y-243483D01*
X-46058Y-246433D01*
X-45512Y-243483D02*
X-43181Y-241881D01*
X0Y-245700D02*
X2000Y-245700D01*
X5000Y-245700D01*
X2000Y-245700D01*
X0Y-245700D01*
X-5000Y-245700D01*
X0Y-245700D01*
X0Y-240700D01*
X0Y-247700D01*
X0Y-250700D01*
X0Y-247700D02*
X2000Y-245700D01*
X45147Y-241517D02*
X47114Y-241152D01*
X50064Y-240605D01*
X47114Y-241152D01*
X45147Y-241517D01*
X40231Y-242428D01*
X45147Y-241517D01*
X44236Y-236600D01*
X45512Y-243483D01*
X46058Y-246433D01*
X45512Y-243483D02*
X47114Y-241152D01*
X88757Y-229108D02*
X90622Y-228385D01*
X93419Y-227300D01*
X90622Y-228385D01*
X88757Y-229108D01*
X84095Y-230917D01*
X88757Y-229108D01*
X86949Y-224447D01*
X89480Y-230973D01*
X90565Y-233770D01*
X89480Y-230973D02*
X90622Y-228385D01*
X129344Y-208898D02*
X131046Y-207847D01*
X133598Y-206271D01*
X131046Y-207847D01*
X129344Y-208898D01*
X125090Y-211526D01*
X129344Y-208898D01*
X126717Y-204644D01*
X130395Y-210600D01*
X131972Y-213152D01*
X130395Y-210600D02*
X131046Y-207847D01*
X165527Y-181575D02*
X167004Y-180226D01*
X169219Y-178203D01*
X167004Y-180226D01*
X165527Y-181575D01*
X161835Y-184946D01*
X165527Y-181575D01*
X162156Y-177882D01*
X166876Y-183051D01*
X168899Y-185267D01*
X166876Y-183051D02*
X167004Y-180226D01*
X196073Y-148067D02*
X197279Y-146472D01*
X199089Y-144079D01*
X197279Y-146472D01*
X196073Y-148067D01*
X193057Y-152055D01*
X196073Y-148067D01*
X192085Y-145051D01*
X197668Y-149274D01*
X200061Y-151083D01*
X197668Y-149274D02*
X197279Y-146472D01*
X219942Y-109518D02*
X220834Y-107728D01*
X222173Y-105043D01*
X220834Y-107728D01*
X219942Y-109518D01*
X217711Y-113993D01*
X219942Y-109518D01*
X215467Y-107287D01*
X221731Y-110410D01*
X224416Y-111749D01*
X221731Y-110410D02*
X220834Y-107728D01*
X236321Y-67239D02*
X236868Y-65316D01*
X237690Y-62430D01*
X236868Y-65316D01*
X236321Y-67239D01*
X234951Y-72048D01*
X236321Y-67239D01*
X231512Y-65869D01*
X238244Y-67787D01*
X241129Y-68609D01*
X238244Y-67787D02*
X236868Y-65316D01*
X244652Y-22670D02*
X244837Y-20679D01*
X245114Y-17692D01*
X244837Y-20679D01*
X244652Y-22670D01*
X244190Y-27649D01*
X244652Y-22670D01*
X239673Y-22208D01*
X246643Y-22855D01*
X249630Y-23132D01*
X246643Y-22855D02*
X244837Y-20679D01*
X244652Y22670D02*
X244467Y24662D01*
X244190Y27649D01*
X244467Y24662D01*
X244652Y22670D01*
X245114Y17692D01*
X244652Y22670D01*
X239673Y22208D01*
X246643Y22855D01*
X249630Y23132D01*
X246643Y22855D02*
X244467Y24662D01*
X236321Y67239D02*
X235773Y69162D01*
X234951Y72048D01*
X235773Y69162D01*
X236321Y67239D01*
X237690Y62430D01*
X236321Y67239D01*
X231512Y65869D01*
X238244Y67787D01*
X241129Y68609D01*
X238244Y67787D02*
X235773Y69162D01*
X219942Y109518D02*
X219049Y111308D01*
X217711Y113993D01*
X219049Y111308D01*
X219942Y109518D01*
X222173Y105043D01*
X219942Y109518D01*
X215467Y107287D01*
X221731Y110410D01*
X224416Y111749D01*
X221731Y110410D02*
X219049Y111308D01*
X196073Y148067D02*
X194866Y149663D01*
X193057Y152055D01*
X194866Y149663D01*
X196073Y148067D01*
X199089Y144079D01*
X196073Y148067D01*
X192085Y145051D01*
X197668Y149274D01*
X200061Y151083D01*
X197668Y149274D02*
X194866Y149663D01*
X165527Y181575D02*
X164050Y182923D01*
X161835Y184946D01*
X164050Y182923D01*
X165527Y181575D01*
X169219Y178203D01*
X165527Y181575D01*
X162156Y177882D01*
X166876Y183051D01*
X168899Y185267D01*
X166876Y183051D02*
X164050Y182923D01*
X129344Y208898D02*
X127643Y209949D01*
X125090Y211526D01*
X127643Y209949D01*
X129344Y208898D01*
X133598Y206271D01*
X129344Y208898D01*
X126717Y204644D01*
X130395Y210600D01*
X131972Y213152D01*
X130395Y210600D02*
X127643Y209949D01*
X88757Y229108D02*
X86892Y229832D01*
X84095Y230917D01*
X86892Y229832D01*
X88757Y229108D01*
X93419Y227300D01*
X88757Y229108D01*
X86949Y224447D01*
X89480Y230973D01*
X90565Y233770D01*
X89480Y230973D02*
X86892Y229832D01*
X45147Y241517D02*
X43181Y241881D01*
X40231Y242428D01*
X43181Y241881D01*
X45147Y241517D01*
X50064Y240605D01*
X45147Y241517D01*
X44236Y236600D01*
X45512Y243483D01*
X46058Y246433D01*
X45512Y243483D02*
X43181Y241881D01*
X0Y205600D02*
X-2000Y205600D01*
X-5000Y205600D01*
X-2000Y205600D01*
X0Y205600D01*
X5000Y205600D01*
X0Y205600D01*
X0Y200600D01*
X0Y207600D01*
X0Y210600D01*
X0Y207600D02*
X-2000Y205600D01*
X-45750Y200445D02*
X-47701Y200002D01*
X-50626Y199337D01*
X-47701Y200002D01*
X-45750Y200445D01*
X-40875Y201553D01*
X-45750Y200445D01*
X-44643Y195569D01*
X-46193Y202395D01*
X-46858Y205321D01*
X-46193Y202395D02*
X-47701Y200002D01*
X-89207Y185239D02*
X-91007Y184369D01*
X-93708Y183063D01*
X-91007Y184369D01*
X-89207Y185239D01*
X-84705Y187415D01*
X-89207Y185239D01*
X-87030Y180738D01*
X-90077Y187040D01*
X-91383Y189741D01*
X-90077Y187040D02*
X-91007Y184369D01*
X-128190Y160745D02*
X-129753Y159497D01*
X-132097Y157625D01*
X-129753Y159497D01*
X-128190Y160745D01*
X-124282Y163864D01*
X-128190Y160745D01*
X-125070Y156837D01*
X-129437Y162308D01*
X-131309Y164652D01*
X-129437Y162308D02*
X-129753Y159497D01*
X-160745Y128190D02*
X-161992Y126626D01*
X-163864Y124282D01*
X-161992Y126626D01*
X-160745Y128190D01*
X-157625Y132097D01*
X-160745Y128190D01*
X-156837Y125070D01*
X-162308Y129437D01*
X-164652Y131309D01*
X-162308Y129437D02*
X-161992Y126626D01*
X-185239Y89207D02*
X-186110Y87406D01*
X-187415Y84705D01*
X-186110Y87406D01*
X-185239Y89207D01*
X-183063Y93708D01*
X-185239Y89207D01*
X-180738Y87030D01*
X-187040Y90077D01*
X-189741Y91383D01*
X-187040Y90077D02*
X-186110Y87406D01*
X-200445Y45750D02*
X-200888Y43800D01*
X-201553Y40875D01*
X-200888Y43800D01*
X-200445Y45750D01*
X-199337Y50626D01*
X-200445Y45750D01*
X-195569Y44643D01*
X-202395Y46193D01*
X-205321Y46858D01*
X-202395Y46193D02*
X-200888Y43800D01*
X-205600Y0D02*
X-205600Y-2000D01*
X-205600Y-5000D01*
X-205600Y-2000D01*
X-205600Y0D01*
X-205600Y5000D01*
X-205600Y0D01*
X-200600Y0D01*
X-207600Y0D01*
X-210600Y0D01*
X-207600Y0D02*
X-205600Y-2000D01*
X-200445Y-45750D02*
X-200002Y-47701D01*
X-199337Y-50626D01*
X-200002Y-47701D01*
X-200445Y-45750D01*
X-201553Y-40875D01*
X-200445Y-45750D01*
X-195569Y-44643D01*
X-202395Y-46193D01*
X-205321Y-46858D01*
X-202395Y-46193D02*
X-200002Y-47701D01*
X-185239Y-89207D02*
X-184369Y-91007D01*
X-183063Y-93708D01*
X-184369Y-91007D01*
X-185239Y-89207D01*
X-187415Y-84705D01*
X-185239Y-89207D01*
X-180738Y-87030D01*
X-187040Y-90077D01*
X-189741Y-91383D01*
X-187040Y-90077D02*
X-184369Y-91007D01*
X-160745Y-128190D02*
X-159497Y-129753D01*
X-157625Y-132097D01*
X-159497Y-129753D01*
X-160745Y-128190D01*
X-163864Y-124282D01*
X-160745Y-128190D01*
X-156837Y-125070D01*
X-162308Y-129437D01*
X-164652Y-131309D01*
X-162308Y-129437D02*
X-159497Y-129753D01*
X-128190Y-160745D02*
X-126626Y-161992D01*
X-124282Y-163864D01*
X-126626Y-161992D01*
X-128190Y-160745D01*
X-132097Y-157625D01*
X-128190Y-160745D01*
X-125070Y-156837D01*
X-129437Y-162308D01*
X-131309Y-164652D01*
X-129437Y-162308D02*
X-126626Y-161992D01*
X-89207Y-185239D02*
X-87406Y-186110D01*
X-84705Y-187415D01*
X-87406Y-186110D01*
X-89207Y-185239D01*
X-93708Y-183063D01*
X-89207Y-185239D01*
X-87030Y-180738D01*
X-90077Y-187040D01*
X-91383Y-189741D01*
X-90077Y-187040D02*
X-87406Y-186110D01*
X-45750Y-200445D02*
X-43800Y-200888D01*
X-40875Y-201553D01*
X-43800Y-200888D01*
X-45750Y-200445D01*
X-50626Y-199337D01*
X-45750Y-200445D01*
X-44643Y-195569D01*
X-46193Y-202395D01*
X-46858Y-205321D01*
X-46193Y-202395D02*
X-43800Y-200888D01*
X0Y-205600D02*
X2000Y-205600D01*
X5000Y-205600D01*
X2000Y-205600D01*
X0Y-205600D01*
X-5000Y-205600D01*
X0Y-205600D01*
X0Y-200600D01*
X0Y-207600D01*
X0Y-210600D01*
X0Y-207600D02*
X2000Y-205600D01*
X45750Y-200445D02*
X47701Y-200002D01*
X50626Y-199337D01*
X47701Y-200002D01*
X45750Y-200445D01*
X40875Y-201553D01*
X45750Y-200445D01*
X44643Y-195569D01*
X46193Y-202395D01*
X46858Y-205321D01*
X46193Y-202395D02*
X47701Y-200002D01*
X89207Y-185239D02*
X91007Y-184369D01*
X93708Y-183063D01*
X91007Y-184369D01*
X89207Y-185239D01*
X84705Y-187415D01*
X89207Y-185239D01*
X87030Y-180738D01*
X90077Y-187040D01*
X91383Y-189741D01*
X90077Y-187040D02*
X91007Y-184369D01*
X128190Y-160745D02*
X129753Y-159497D01*
X132097Y-157625D01*
X129753Y-159497D01*
X128190Y-160745D01*
X124282Y-163864D01*
X128190Y-160745D01*
X125070Y-156837D01*
X129437Y-162308D01*
X131309Y-164652D01*
X129437Y-162308D02*
X129753Y-159497D01*
X160745Y-128190D02*
X161992Y-126626D01*
X163864Y-124282D01*
X161992Y-126626D01*
X160745Y-128190D01*
X157625Y-132097D01*
X160745Y-128190D01*
X156837Y-125070D01*
X162308Y-129437D01*
X164652Y-131309D01*
X162308Y-129437D02*
X161992Y-126626D01*
X185239Y-89207D02*
X186110Y-87406D01*
X187415Y-84705D01*
X186110Y-87406D01*
X185239Y-89207D01*
X183063Y-93708D01*
X185239Y-89207D01*
X180738Y-87030D01*
X187040Y-90077D01*
X189741Y-91383D01*
X187040Y-90077D02*
X186110Y-87406D01*
X200445Y-45750D02*
X200888Y-43800D01*
X201553Y-40875D01*
X200888Y-43800D01*
X200445Y-45750D01*
X199337Y-50626D01*
X200445Y-45750D01*
X195569Y-44643D01*
X202395Y-46193D01*
X205321Y-46858D01*
X202395Y-46193D02*
X200888Y-43800D01*
X205600Y0D02*
X205600Y2000D01*
X205600Y5000D01*
X205600Y2000D01*
X205600Y0D01*
X205600Y-5000D01*
X205600Y0D01*
X200600Y0D01*
X207600Y0D01*
X210600Y0D01*
X207600Y0D02*
X205600Y2000D01*
X200445Y45750D02*
X200002Y47701D01*
X199337Y50626D01*
X200002Y47701D01*
X200445Y45750D01*
X201553Y40875D01*
X200445Y45750D01*
X195569Y44643D01*
X202395Y46193D01*
X205321Y46858D01*
X202395Y46193D02*
X200002Y47701D01*
X185239Y89207D02*
X184369Y91007D01*
X183063Y93708D01*
X184369Y91007D01*
X185239Y89207D01*
X187415Y84705D01*
X185239Y89207D01*
X180738Y87030D01*
X187040Y90077D01*
X189741Y91383D01*
X187040Y90077D02*
X184369Y91007D01*
X160745Y128190D02*
X159497Y129753D01*
X157625Y132097D01*
X159497Y129753D01*
X160745Y128190D01*
X163864Y124282D01*
X160745Y128190D01*
X156837Y125070D01*
X162308Y129437D01*
X164652Y131309D01*
X162308Y129437D02*
X159497Y129753D01*
X128190Y160745D02*
X126626Y161992D01*
X124282Y163864D01*
X126626Y161992D01*
X128190Y160745D01*
X132097Y157625D01*
X128190Y160745D01*
X125070Y156837D01*
X129437Y162308D01*
X131309Y164652D01*
X129437Y162308D02*
X126626Y161992D01*
X89207Y185239D02*
X87406Y186110D01*
X84705Y187415D01*
X87406Y186110D01*
X89207Y185239D01*
X93708Y183063D01*
X89207Y185239D01*
X87030Y180738D01*
X90077Y187040D01*
X91383Y189741D01*
X90077Y187040D02*
X87406Y186110D01*
X45750Y200445D02*
X43800Y200888D01*
X40875Y201553D01*
X43800Y200888D01*
X45750Y200445D01*
X50626Y199337D01*
X45750Y200445D01*
X44643Y195569D01*
X46193Y202395D01*
X46858Y205321D01*
X46193Y202395D02*
X43800Y200888D01*
X0Y163900D02*
X-2000Y163900D01*
X-5000Y163900D01*
X-2000Y163900D01*
X0Y163900D01*
X5000Y163900D01*
X0Y163900D01*
X0Y158900D01*
X0Y165900D01*
X0Y168900D01*
X0Y165900D02*
X-2000Y163900D01*
X-42420Y158315D02*
X-44352Y157798D01*
X-47250Y157021D01*
X-44352Y157798D01*
X-42420Y158315D01*
X-37591Y159609D01*
X-42420Y158315D01*
X-41126Y153486D01*
X-42938Y160247D01*
X-43715Y163145D01*
X-42938Y160247D02*
X-44352Y157798D01*
X-81950Y141942D02*
X-83682Y140942D01*
X-86280Y139442D01*
X-83682Y140942D01*
X-81950Y141942D01*
X-77620Y144442D01*
X-81950Y141942D01*
X-79450Y137611D01*
X-82950Y143674D01*
X-84450Y146272D01*
X-82950Y143674D02*
X-83682Y140942D01*
X-115895Y115895D02*
X-117309Y114481D01*
X-119430Y112359D01*
X-117309Y114481D01*
X-115895Y115895D01*
X-112359Y119430D01*
X-115895Y115895D01*
X-112359Y112359D01*
X-117309Y117309D01*
X-119430Y119430D01*
X-117309Y117309D02*
X-117309Y114481D01*
X-141942Y81950D02*
X-142942Y80218D01*
X-144442Y77620D01*
X-142942Y80218D01*
X-141942Y81950D01*
X-139442Y86280D01*
X-141942Y81950D01*
X-137611Y79450D01*
X-143674Y82950D01*
X-146272Y84450D01*
X-143674Y82950D02*
X-142942Y80218D01*
X-158315Y42420D02*
X-158833Y40489D01*
X-159609Y37591D01*
X-158833Y40489D01*
X-158315Y42420D01*
X-157021Y47250D01*
X-158315Y42420D01*
X-153486Y41126D01*
X-160247Y42938D01*
X-163145Y43715D01*
X-160247Y42938D02*
X-158833Y40489D01*
X-163900Y0D02*
X-163900Y-2000D01*
X-163900Y-5000D01*
X-163900Y-2000D01*
X-163900Y0D01*
X-163900Y5000D01*
X-163900Y0D01*
X-158900Y0D01*
X-165900Y0D01*
X-168900Y0D01*
X-165900Y0D02*
X-163900Y-2000D01*
X-158315Y-42420D02*
X-157798Y-44352D01*
X-157021Y-47250D01*
X-157798Y-44352D01*
X-158315Y-42420D01*
X-159609Y-37591D01*
X-158315Y-42420D01*
X-153486Y-41126D01*
X-160247Y-42938D01*
X-163145Y-43715D01*
X-160247Y-42938D02*
X-157798Y-44352D01*
X-141942Y-81950D02*
X-140942Y-83682D01*
X-139442Y-86280D01*
X-140942Y-83682D01*
X-141942Y-81950D01*
X-144442Y-77620D01*
X-141942Y-81950D01*
X-137611Y-79450D01*
X-143674Y-82950D01*
X-146272Y-84450D01*
X-143674Y-82950D02*
X-140942Y-83682D01*
X-115895Y-115895D02*
X-114481Y-117309D01*
X-112359Y-119430D01*
X-114481Y-117309D01*
X-115895Y-115895D01*
X-119430Y-112359D01*
X-115895Y-115895D01*
X-112359Y-112359D01*
X-117309Y-117309D01*
X-119430Y-119430D01*
X-117309Y-117309D02*
X-114481Y-117309D01*
X-81950Y-141942D02*
X-80218Y-142942D01*
X-77620Y-144442D01*
X-80218Y-142942D01*
X-81950Y-141942D01*
X-86280Y-139442D01*
X-81950Y-141942D01*
X-79450Y-137611D01*
X-82950Y-143674D01*
X-84450Y-146272D01*
X-82950Y-143674D02*
X-80218Y-142942D01*
X-42420Y-158315D02*
X-40489Y-158833D01*
X-37591Y-159609D01*
X-40489Y-158833D01*
X-42420Y-158315D01*
X-47250Y-157021D01*
X-42420Y-158315D01*
X-41126Y-153486D01*
X-42938Y-160247D01*
X-43715Y-163145D01*
X-42938Y-160247D02*
X-40489Y-158833D01*
X0Y-163900D02*
X2000Y-163900D01*
X5000Y-163900D01*
X2000Y-163900D01*
X0Y-163900D01*
X-5000Y-163900D01*
X0Y-163900D01*
X0Y-158900D01*
X0Y-165900D01*
X0Y-168900D01*
X0Y-165900D02*
X2000Y-163900D01*
X42420Y-158315D02*
X44352Y-157798D01*
X47250Y-157021D01*
X44352Y-157798D01*
X42420Y-158315D01*
X37591Y-159609D01*
X42420Y-158315D01*
X41126Y-153486D01*
X42938Y-160247D01*
X43715Y-163145D01*
X42938Y-160247D02*
X44352Y-157798D01*
X81950Y-141942D02*
X83682Y-140942D01*
X86280Y-139442D01*
X83682Y-140942D01*
X81950Y-141942D01*
X77620Y-144442D01*
X81950Y-141942D01*
X79450Y-137611D01*
X82950Y-143674D01*
X84450Y-146272D01*
X82950Y-143674D02*
X83682Y-140942D01*
X115895Y-115895D02*
X117309Y-114481D01*
X119430Y-112359D01*
X117309Y-114481D01*
X115895Y-115895D01*
X112359Y-119430D01*
X115895Y-115895D01*
X112359Y-112359D01*
X117309Y-117309D01*
X119430Y-119430D01*
X117309Y-117309D02*
X117309Y-114481D01*
X141942Y-81950D02*
X142942Y-80218D01*
X144442Y-77620D01*
X142942Y-80218D01*
X141942Y-81950D01*
X139442Y-86280D01*
X141942Y-81950D01*
X137611Y-79450D01*
X143674Y-82950D01*
X146272Y-84450D01*
X143674Y-82950D02*
X142942Y-80218D01*
X158315Y-42420D02*
X158833Y-40489D01*
X159609Y-37591D01*
X158833Y-40489D01*
X158315Y-42420D01*
X157021Y-47250D01*
X158315Y-42420D01*
X153486Y-41126D01*
X160247Y-42938D01*
X163145Y-43715D01*
X160247Y-42938D02*
X158833Y-40489D01*
X163900Y0D02*
X163900Y2000D01*
X163900Y5000D01*
X163900Y2000D01*
X163900Y0D01*
X163900Y-5000D01*
X163900Y0D01*
X158900Y0D01*
X165900Y0D01*
X168900Y0D01*
X165900Y0D02*
X163900Y2000D01*
X158315Y42420D02*
X157798Y44352D01*
X157021Y47250D01*
X157798Y44352D01*
X158315Y42420D01*
X159609Y37591D01*
X158315Y42420D01*
X153486Y41126D01*
X160247Y42938D01*
X163145Y43715D01*
X160247Y42938D02*
X157798Y44352D01*
X141942Y81950D02*
X140942Y83682D01*
X139442Y86280D01*
X140942Y83682D01*
X141942Y81950D01*
X144442Y77620D01*
X141942Y81950D01*
X137611Y79450D01*
X143674Y82950D01*
X146272Y84450D01*
X143674Y82950D02*
X140942Y83682D01*
X115895Y115895D02*
X114481Y117309D01*
X112359Y119430D01*
X114481Y117309D01*
X115895Y115895D01*
X119430Y112359D01*
X115895Y115895D01*
X112359Y112359D01*
X117309Y117309D01*
X119430Y119430D01*
X117309Y117309D02*
X114481Y117309D01*
X81950Y141942D02*
X80218Y142942D01*
X77620Y144442D01*
X80218Y142942D01*
X81950Y141942D01*
X86280Y139442D01*
X81950Y141942D01*
X79450Y137611D01*
X82950Y143674D01*
X84450Y146272D01*
X82950Y143674D02*
X80218Y142942D01*
X42420Y158315D02*
X40489Y158833D01*
X37591Y159609D01*
X40489Y158833D01*
X42420Y158315D01*
X47250Y157021D01*
X42420Y158315D01*
X41126Y153486D01*
X42938Y160247D01*
X43715Y163145D01*
X42938Y160247D02*
X40489Y158833D01*
X0Y122700D02*
X-2000Y122700D01*
X-5000Y122700D01*
X-2000Y122700D01*
X0Y122700D01*
X5000Y122700D01*
X0Y122700D01*
X0Y117700D01*
X0Y124700D01*
X0Y127700D01*
X0Y124700D02*
X-2000Y122700D01*
X-41966Y115300D02*
X-43845Y114616D01*
X-46664Y113590D01*
X-43845Y114616D01*
X-41966Y115300D01*
X-37267Y117010D01*
X-41966Y115300D01*
X-40256Y110602D01*
X-42650Y117180D01*
X-43676Y119999D01*
X-42650Y117180D02*
X-43845Y114616D01*
X-78870Y93994D02*
X-80402Y92708D01*
X-82700Y90780D01*
X-80402Y92708D01*
X-78870Y93994D01*
X-75040Y97208D01*
X-78870Y93994D01*
X-75656Y90163D01*
X-80156Y95526D01*
X-82084Y97824D01*
X-80156Y95526D02*
X-80402Y92708D01*
X-106261Y61350D02*
X-107261Y59618D01*
X-108761Y57020D01*
X-107261Y59618D01*
X-106261Y61350D01*
X-103761Y65680D01*
X-106261Y61350D01*
X-101931Y58850D01*
X-107993Y62350D01*
X-110591Y63850D01*
X-107993Y62350D02*
X-107261Y59618D01*
X-120836Y21307D02*
X-121183Y19337D01*
X-121704Y16383D01*
X-121183Y19337D01*
X-120836Y21307D01*
X-119968Y26231D01*
X-120836Y21307D01*
X-115912Y20438D01*
X-122806Y21654D01*
X-125760Y22175D01*
X-122806Y21654D02*
X-121183Y19337D01*
X-120836Y-21307D02*
X-120489Y-23276D01*
X-119968Y-26231D01*
X-120489Y-23276D01*
X-120836Y-21307D01*
X-121704Y-16383D01*
X-120836Y-21307D01*
X-115912Y-20438D01*
X-122806Y-21654D01*
X-125760Y-22175D01*
X-122806Y-21654D02*
X-120489Y-23276D01*
X-106261Y-61350D02*
X-105261Y-63082D01*
X-103761Y-65680D01*
X-105261Y-63082D01*
X-106261Y-61350D01*
X-108761Y-57020D01*
X-106261Y-61350D01*
X-101931Y-58850D01*
X-107993Y-62350D01*
X-110591Y-63850D01*
X-107993Y-62350D02*
X-105261Y-63082D01*
X-78870Y-93994D02*
X-77338Y-95279D01*
X-75040Y-97208D01*
X-77338Y-95279D01*
X-78870Y-93994D01*
X-82700Y-90780D01*
X-78870Y-93994D01*
X-75656Y-90163D01*
X-80156Y-95526D01*
X-82084Y-97824D01*
X-80156Y-95526D02*
X-77338Y-95279D01*
X-41966Y-115300D02*
X-40086Y-115984D01*
X-37267Y-117010D01*
X-40086Y-115984D01*
X-41966Y-115300D01*
X-46664Y-113590D01*
X-41966Y-115300D01*
X-40256Y-110602D01*
X-42650Y-117180D01*
X-43676Y-119999D01*
X-42650Y-117180D02*
X-40086Y-115984D01*
X0Y-122700D02*
X2000Y-122700D01*
X5000Y-122700D01*
X2000Y-122700D01*
X0Y-122700D01*
X-5000Y-122700D01*
X0Y-122700D01*
X0Y-117700D01*
X0Y-124700D01*
X0Y-127700D01*
X0Y-124700D02*
X2000Y-122700D01*
X41966Y-115300D02*
X43845Y-114616D01*
X46664Y-113590D01*
X43845Y-114616D01*
X41966Y-115300D01*
X37267Y-117010D01*
X41966Y-115300D01*
X40256Y-110602D01*
X42650Y-117180D01*
X43676Y-119999D01*
X42650Y-117180D02*
X43845Y-114616D01*
X78870Y-93994D02*
X80402Y-92708D01*
X82700Y-90780D01*
X80402Y-92708D01*
X78870Y-93994D01*
X75040Y-97208D01*
X78870Y-93994D01*
X75656Y-90163D01*
X80156Y-95526D01*
X82084Y-97824D01*
X80156Y-95526D02*
X80402Y-92708D01*
X106261Y-61350D02*
X107261Y-59618D01*
X108761Y-57020D01*
X107261Y-59618D01*
X106261Y-61350D01*
X103761Y-65680D01*
X106261Y-61350D01*
X101931Y-58850D01*
X107993Y-62350D01*
X110591Y-63850D01*
X107993Y-62350D02*
X107261Y-59618D01*
X120836Y-21307D02*
X121183Y-19337D01*
X121704Y-16383D01*
X121183Y-19337D01*
X120836Y-21307D01*
X119968Y-26231D01*
X120836Y-21307D01*
X115912Y-20438D01*
X122806Y-21654D01*
X125760Y-22175D01*
X122806Y-21654D02*
X121183Y-19337D01*
X120836Y21307D02*
X120489Y23276D01*
X119968Y26231D01*
X120489Y23276D01*
X120836Y21307D01*
X121704Y16383D01*
X120836Y21307D01*
X115912Y20438D01*
X122806Y21654D01*
X125760Y22175D01*
X122806Y21654D02*
X120489Y23276D01*
X106261Y61350D02*
X105261Y63082D01*
X103761Y65680D01*
X105261Y63082D01*
X106261Y61350D01*
X108761Y57020D01*
X106261Y61350D01*
X101931Y58850D01*
X107993Y62350D01*
X110591Y63850D01*
X107993Y62350D02*
X105261Y63082D01*
X78870Y93994D02*
X77338Y95279D01*
X75040Y97208D01*
X77338Y95279D01*
X78870Y93994D01*
X82700Y90780D01*
X78870Y93994D01*
X75656Y90163D01*
X80156Y95526D01*
X82084Y97824D01*
X80156Y95526D02*
X77338Y95279D01*
X41966Y115300D02*
X40086Y115984D01*
X37267Y117010D01*
X40086Y115984D01*
X41966Y115300D01*
X46664Y113590D01*
X41966Y115300D01*
X40256Y110602D01*
X42650Y117180D01*
X43676Y119999D01*
X42650Y117180D02*
X40086Y115984D01*
X0Y82700D02*
X-2000Y82700D01*
X-5000Y82700D01*
X-2000Y82700D01*
X0Y82700D01*
X5000Y82700D01*
X0Y82700D01*
X0Y77700D01*
X0Y84700D01*
X0Y87700D01*
X0Y84700D02*
X-2000Y82700D01*
X-35882Y74510D02*
X-37683Y73640D01*
X-40384Y72334D01*
X-37683Y73640D01*
X-35882Y74510D01*
X-31381Y76686D01*
X-35882Y74510D01*
X-33706Y70009D01*
X-36753Y76311D01*
X-38058Y79012D01*
X-36753Y76311D02*
X-37683Y73640D01*
X-64657Y51563D02*
X-65905Y50000D01*
X-67777Y47655D01*
X-65905Y50000D01*
X-64657Y51563D01*
X-61538Y55470D01*
X-64657Y51563D01*
X-60750Y48443D01*
X-66221Y52810D01*
X-68565Y54682D01*
X-66221Y52810D02*
X-65905Y50000D01*
X-80627Y18402D02*
X-81070Y16452D01*
X-81734Y13527D01*
X-81070Y16452D01*
X-80627Y18402D01*
X-79519Y23278D01*
X-80627Y18402D01*
X-75751Y17295D01*
X-82577Y18846D01*
X-85502Y19510D01*
X-82577Y18846D02*
X-81070Y16452D01*
X-80627Y-18402D02*
X-80183Y-20353D01*
X-79519Y-23278D01*
X-80183Y-20353D01*
X-80627Y-18402D01*
X-81734Y-13527D01*
X-80627Y-18402D01*
X-75751Y-17295D01*
X-82577Y-18846D01*
X-85502Y-19510D01*
X-82577Y-18846D02*
X-80183Y-20353D01*
X-64657Y-51563D02*
X-63410Y-53126D01*
X-61538Y-55470D01*
X-63410Y-53126D01*
X-64657Y-51563D01*
X-67777Y-47655D01*
X-64657Y-51563D01*
X-60750Y-48443D01*
X-66221Y-52810D01*
X-68565Y-54682D01*
X-66221Y-52810D02*
X-63410Y-53126D01*
X-35882Y-74510D02*
X-34082Y-75381D01*
X-31381Y-76686D01*
X-34082Y-75381D01*
X-35882Y-74510D01*
X-40384Y-72334D01*
X-35882Y-74510D01*
X-33706Y-70009D01*
X-36753Y-76311D01*
X-38058Y-79012D01*
X-36753Y-76311D02*
X-34082Y-75381D01*
X0Y-82700D02*
X2000Y-82700D01*
X5000Y-82700D01*
X2000Y-82700D01*
X0Y-82700D01*
X-5000Y-82700D01*
X0Y-82700D01*
X0Y-77700D01*
X0Y-84700D01*
X0Y-87700D01*
X0Y-84700D02*
X2000Y-82700D01*
X35882Y-74510D02*
X37683Y-73640D01*
X40384Y-72334D01*
X37683Y-73640D01*
X35882Y-74510D01*
X31381Y-76686D01*
X35882Y-74510D01*
X33706Y-70009D01*
X36753Y-76311D01*
X38058Y-79012D01*
X36753Y-76311D02*
X37683Y-73640D01*
X64657Y-51563D02*
X65905Y-50000D01*
X67777Y-47655D01*
X65905Y-50000D01*
X64657Y-51563D01*
X61538Y-55470D01*
X64657Y-51563D01*
X60750Y-48443D01*
X66221Y-52810D01*
X68565Y-54682D01*
X66221Y-52810D02*
X65905Y-50000D01*
X80627Y-18402D02*
X81070Y-16452D01*
X81734Y-13527D01*
X81070Y-16452D01*
X80627Y-18402D01*
X79519Y-23278D01*
X80627Y-18402D01*
X75751Y-17295D01*
X82577Y-18846D01*
X85502Y-19510D01*
X82577Y-18846D02*
X81070Y-16452D01*
X80627Y18402D02*
X80183Y20353D01*
X79519Y23278D01*
X80183Y20353D01*
X80627Y18402D01*
X81734Y13527D01*
X80627Y18402D01*
X75751Y17295D01*
X82577Y18846D01*
X85502Y19510D01*
X82577Y18846D02*
X80183Y20353D01*
X64657Y51563D02*
X63410Y53126D01*
X61538Y55470D01*
X63410Y53126D01*
X64657Y51563D01*
X67777Y47655D01*
X64657Y51563D01*
X60750Y48443D01*
X66221Y52810D01*
X68565Y54682D01*
X66221Y52810D02*
X63410Y53126D01*
X35882Y74510D02*
X34082Y75381D01*
X31381Y76686D01*
X34082Y75381D01*
X35882Y74510D01*
X40384Y72334D01*
X35882Y74510D01*
X33706Y70009D01*
X36753Y76311D01*
X38058Y79012D01*
X36753Y76311D02*
X34082Y75381D01*
X0Y40000D02*
X-2000Y40000D01*
X-5000Y40000D01*
X-2000Y40000D01*
X0Y40000D01*
X5000Y40000D01*
X0Y40000D01*
X0Y35000D01*
X0Y42000D01*
X0Y45000D01*
X0Y42000D02*
X-2000Y40000D01*
X-34641Y20000D02*
X-35641Y18268D01*
X-37141Y15670D01*
X-35641Y18268D01*
X-34641Y20000D01*
X-32141Y24330D01*
X-34641Y20000D01*
X-30311Y17500D01*
X-36373Y21000D01*
X-38971Y22500D01*
X-36373Y21000D02*
X-35641Y18268D01*
X-34641Y-20000D02*
X-33641Y-21732D01*
X-32141Y-24330D01*
X-33641Y-21732D01*
X-34641Y-20000D01*
X-37141Y-15670D01*
X-34641Y-20000D01*
X-30311Y-17500D01*
X-36373Y-21000D01*
X-38971Y-22500D01*
X-36373Y-21000D02*
X-33641Y-21732D01*
X0Y-40000D02*
X2000Y-40000D01*
X5000Y-40000D01*
X2000Y-40000D01*
X0Y-40000D01*
X-5000Y-40000D01*
X0Y-40000D01*
X0Y-35000D01*
X0Y-42000D01*
X0Y-45000D01*
X0Y-42000D02*
X2000Y-40000D01*
X34641Y-20000D02*
X35641Y-18268D01*
X37141Y-15670D01*
X35641Y-18268D01*
X34641Y-20000D01*
X32141Y-24330D01*
X34641Y-20000D01*
X30311Y-17500D01*
X36373Y-21000D01*
X38971Y-22500D01*
X36373Y-21000D02*
X35641Y-18268D01*
X34641Y20000D02*
X33641Y21732D01*
X32141Y24330D01*
X33641Y21732D01*
X34641Y20000D01*
X37141Y15670D01*
X34641Y20000D01*
X30311Y17500D01*
X36373Y21000D01*
X38971Y22500D01*
X36373Y21000D02*
X33641Y21732D01*
X0Y2000D02*
X0Y0D01*
X0Y2000D02*
X0Y5000D01*
X0Y2000D01*
X0Y0D01*
X0Y-5000D01*
X0Y0D01*
X-5000Y0D01*
X2000Y0D01*
X5000Y0D01*
X2000Y0D02*
X0Y2000D01*
M02*
