M48
;GenerationSoftware,Autodesk,EAGLE,9.4.2*%
;CreationDate,2019-09-18T02:25:04Z*%
FMAT,2
ICI,OFF
METRIC,TZ,000.000
T5C0.200
T4C0.350
T3C0.400
T2C0.850
T1C0.900
%
G90
M71
T1
X-34544Y-2008
X-34544Y992
T2
X1900Y-32360
X-1900Y-32360
T3
X860Y-6990
X-40Y-6090
X860Y-5190
X-940Y-5190
X-940Y-6990
T4
X1270Y-13462
X-2057Y10160
X3556Y10414
X-14326Y-4674
X-762Y10160
T5
X-15951Y-5258
X-15799Y-13792
X-18157Y-6766
X-31925Y-12073
X-17656Y-7971
X-7950Y-3556
X-5918Y32741
X-5566Y34110
X-32842Y5369
X-15748Y-29312
X-16412Y-30492
X-22123Y18898
X-26058Y22880
X-22200Y-18847
X-26075Y-22861
X-18803Y-16369
X-19230Y16926
X-14173Y20523
X-14583Y21086
X-34269Y5576
X889Y20549
X559Y34595
X-14097Y-9144
X-18313Y-10185
X-29902Y-17428
X-5486Y-6756
X-21438Y-27102
X-11455Y5410
X-6182Y2969
X-5513Y-3627
X-10694Y31505
X-11405Y33528
X-33273Y-993
X-12344Y-30912
X-13109Y-32899
X-19406Y21717
X-17526Y17780
X-8839Y9017
X-24273Y25776
X-24536Y-15621
X-29458Y-19660
X-35585Y-1092
X-16129Y-19050
X-10981Y-12716
X-24271Y-25768
X-14833Y-15622
X-14275Y-16129
X-20179Y-5545
X-34173Y-9303
X0Y18339
X-9596Y-11134
X-3680Y-14250
X-2036Y-8134
X0Y9423
X-6812Y6727
X-17970Y-4953
X-14718Y29852
X-14055Y28533
X-32817Y-5359
X-31354Y-5069
X-6518Y-32641
X-6227Y-31168
X-15316Y24790
X-16675Y26980
X-26746Y-11582
X-28958Y-13001
X-20523Y14224
X-25801Y18603
X-12344Y-21692
X-7595Y-14986
X-11108Y-22322
X-14101Y-28507
X-20930Y-965
X-31739Y-948
X-5436Y15367
X-10261Y30106
X-5207Y11455
X-6960Y15265
X-2337Y-2565
X-14005Y-12791
X-9421Y-16481
X-17958Y-6299
X-29896Y-10668
X-19434Y27005
X-18399Y25261
X-32412Y-7631
X-30411Y-7208
X-3359Y-33123
X-3171Y-31108
X-11582Y26746
X-12661Y28576
X-28270Y-6985
X-22885Y10008
X-28022Y13846
X-7315Y-23901
X-9123Y-29899
X-20650Y3480
X-30848Y5027
X-7595Y11430
X-9276Y13992
X-432Y13691
X-16827Y26334
X-1778Y-15672
X-4369Y152
X-30855Y-4989
X-18186Y-4039
X-21937Y25027
X-19640Y22446
X-30699Y-12866
X-27552Y-11562
X-7163Y28194
X-6859Y29228
X-28971Y-2862
X-30048Y-2946
X-4259Y-29423
X-24452Y4948
X-29489Y6960
X-21228Y4323
X-19507Y7620
X-20193Y7823
X-12471Y11151
X-21539Y21438
X991Y4369
X-1143Y4267
X-2235Y3759
X-15022Y25942
X-5908Y-29447
X-2667Y-13868
X-18593Y-4343
X-29261Y-7620
X-25755Y21057
X-20938Y17196
X-28318Y-17490
X-23069Y-14161
X1930Y28727
X1827Y27281
X-29074Y1959
X-24917Y1118
X-7518Y-28169
X-7013Y-26146
X-16993Y12243
X-21531Y16403
X-3505Y-20650
X-4428Y-26745
X-15037Y7493
X-14234Y10833
X-10871Y8280
X-8272Y10700
X-5308Y6837
X-25Y889
X-6858Y-10592
X-14336Y-22963
X-18948Y-3962
X-26495Y-5658
X-27005Y1802
X-28281Y17516
X-22543Y14025
X-25796Y-21039
X-28325Y6722
X-25817Y6151
X-11024Y-26975
X-9981Y-24458
X0Y26416
X-13775Y15822
X-17440Y19976
X-7885Y-19397
X-15715Y6409
X-13606Y5552
X-12731Y7255
X-7555Y4267
X-10109Y-6858
X-3026Y-6436
X-5452Y-4673
X-24765Y-3175
X-26267Y-2569
X-18771Y-4801
X-25654Y-6528
X-24486Y9982
X-20500Y-16660
X-9525Y1778
X-17917Y4275
X-23571Y-23546
X-12421Y-12700
X-14493Y-14716
X-19489Y-19575
X-23722Y-7908
X-16866Y-5588
X-16096Y7553
X-30301Y13667
X-26924Y11125
X-7899Y18998
X-6840Y16441
X-5766Y25044
X-4343Y18669
X-7358Y17692
X-19079Y-6292
X-3073Y30683
X-3278Y32728
X-6644Y31450
X-9525Y29388
X-7415Y24824
X-24790Y7530
X-31977Y9642
X-10236Y29083
X-7898Y21943
X-23239Y2920
X-32626Y4189
X-13995Y27483
X-32338Y3284
X-9830Y20041
X-22962Y1981
X-16719Y-29201
X-14986Y-24943
X-14585Y27189
X-2878Y-22145
X-4293Y-33532
X-10414Y19558
X-10580Y-26718
X-11455Y-30861
X-18009Y24816
X-19941Y28827
X-34980Y2253
X-30780Y2058
X-30734Y-3048
X-34879Y-3476
X-10578Y-31152
X-11286Y-33185
X-6481Y-27242
X-7393Y-31265
X-19990Y23470
X-13698Y16914
X-13911Y-16846
X-21006Y-24409
X-20599Y22962
X-22885Y25502
X-31572Y13208
X-27813Y11608
X-23986Y13760
X-20013Y18900
X-22098Y21565
X-25222Y17628
X-24460Y13614
X-23302Y15632
X-2929Y29336
X-2461Y25017
X-24714Y17272
X-2395Y28630
X-1959Y24492
X-26543Y15646
X-3118Y23596
X-3572Y27733
X-27788Y13360
X-24816Y11735
X-22555Y15646
X-8484Y-29642
X-2261Y-7595
X-7163Y-3175
X-3265Y14
X-29362Y9449
X-24111Y7775
X-30023Y7087
X-23978Y5379
X-30531Y4470
X-23533Y3449
X-11969Y-22092
X-10119Y-18562
X-29997Y2337
X-25578Y2108
X-23241Y-10922
X-8000Y-23237
X-6715Y-19432
X-30328Y1753
X-25984Y1397
X-22073Y-13589
X-20958Y-12829
X-11040Y-16363
X-13288Y-19708
X-30226Y-2438
X-27457Y-2235
X-22962Y-15265
X-19819Y-13136
X-29362Y-9525
X-18933Y-5596
X-29642Y-5359
X-20259Y-3488
X-20930Y-2489
X-30201Y-4623
X-2162Y17358
X-2625Y20878
X-28575Y-11608
X-21683Y-8775
X-9703Y20853
X-7298Y15798
X-1194Y16332
X-1537Y20497
X-27457Y-14072
X-20555Y-10005
X-9906Y19329
X-7266Y14668
X1189Y16042
X1383Y19768
X-15286Y10287
X-12949Y8711
X-26863Y-14379
X-16180Y-8524
X-13132Y-11107
X-10541Y-8941
X-24845Y-17826
X-14000Y-9967
X-9912Y-13140
X-6914Y-9675
X-26848Y-21336
X-20685Y-27194
X-10781Y-10986
X-7673Y-7903
X-22454Y-20066
X-12594Y3268
X-8990Y2306
X-19863Y-23571
X-6873Y-7482
X-7615Y6726
X-11297Y4554
X-7699Y3086
X-18069Y-25020
X-6248Y-8611
X-2621Y7869
X-3373Y10119
X-9070Y6860
X-5780Y4332
X-13716Y-26873
X-5537Y-8204
X-9559Y1334
X-11151Y1575
X-16231Y-26162
X-5588Y-7569
X-2880Y-3777
X-11989Y-28397
X-5436Y-5791
X-7417Y-2819
X-3969Y673
X30358Y-13678
X26772Y-11481
X21025Y-9558
X23551Y23516
X16324Y16324
X15348Y24761
X14382Y23360
X19436Y19401
X5664Y-24308
X21951Y7130
X10160Y-18313
X10879Y-20360
X14939Y17583
X19177Y2769
X22926Y2630
X27965Y-18059
X21937Y-14716
X26413Y20237
X20975Y16064
X28326Y-6700
X11153Y26877
X10144Y24441
X1168Y-25832
X14275Y-15316
X17404Y-19938
X8034Y19347
X16155Y-5491
X8255Y-2870
X10465Y7036
X7862Y6002
X3896Y9358
X26219Y3194
X24740Y3404
X19126Y3556
X25650Y-6091
X25007Y-8509
X25029Y-21960
X20302Y-17902
X29058Y16256
X23886Y12790
X-914Y-27127
X29035Y-1931
X24943Y-1168
X27005Y-1804
X7036Y28245
X7013Y26146
X18440Y-9982
X15138Y-7417
X23732Y-12808
X1880Y20701
X2751Y26904
X4775Y-7315
X3810Y-5664
X7239Y0
X26975Y0
X7366Y10262
X16472Y21428
X18466Y5944
X6731Y2235
X21948Y-25042
X19665Y-22477
X30761Y12722
X27627Y11424
X6631Y-28384
X6883Y-29464
X29007Y2413
X29897Y1940
X4250Y29425
X24480Y-4931
X29667Y-5207
X3180Y24095
X20117Y-5842
X24217Y-5951
X13451Y-10260
X23840Y-18231
X-1397Y-14072
X1143Y12497
X11235Y-8559
X17602Y7544
X2819Y-8280
X1727Y-4013
X11997Y7387
X18161Y-27889
X16419Y-26595
X32388Y7634
X30437Y7159
X2171Y33199
X2039Y31182
X11227Y-26863
X12034Y-28852
X28346Y6579
X23085Y-9533
X28850Y-11920
X8077Y23647
X20650Y-3454
X30861Y-4953
X10282Y-13282
X3023Y18085
X6833Y30498
X4080Y-5193
X4343Y0
X6604Y0
X9088Y-11727
X-660Y-14402
X17549Y8107
X-660Y-13284
X29693Y9762
X9883Y29651
X18611Y-25160
X14717Y-29878
X14013Y-28477
X33134Y3342
X31572Y3173
X6486Y32642
X6221Y31135
X15088Y-24917
X15934Y-27462
X26899Y11125
X29693Y11242
X20523Y-14224
X25765Y-18554
X11886Y22010
X15030Y27967
X20930Y991
X31750Y0
X7010Y-10592
X6574Y-15629
X7500Y15060
X2108Y3988
X17348Y8534
X28318Y14358
X9906Y-30023
X10160Y-31699
X10820Y-33706
X33274Y0
X35416Y0
X10692Y31522
X11344Y33538
X18542Y-22428
X22391Y-27436
X24797Y15320
X30118Y18630
X17628Y-17653
X15833Y19297
X10693Y12979
X22381Y27444
X20142Y5817
X34215Y9155
X17875Y4776
X-912Y-14800
X-1975Y-35370
X9474Y-8357
X7020Y-6344
X-1816Y-14738
X-432Y-9373
X5842Y1600
X5918Y-32741
X6172Y-33985
X32766Y-5842
X34010Y-6048
X15752Y29335
X16337Y30445
X22098Y-18999
X22200Y18847
X19366Y15755
X26722Y21891
X14522Y-20301
X12595Y-17611
X18144Y10450
X14046Y9322
X11702Y-4817
X32207Y-12193
X5690Y6579
X6556Y8614
X9099Y5954
X29969Y17277
X10211Y12370
X26635Y-21997
X20164Y-28048
X16459Y-14122
X16078Y5232
X8230Y2845
X-1727Y-33071
X-1750Y-33848
X31571Y-12319
X24478Y-15193
X28941Y-17909
X18796Y22225
X21695Y24750
X22351Y25475
X10188Y-22805
X13957Y-31008
X22465Y10059
X31028Y13993
X8128Y-19482
X13995Y15088
X8966Y-711
X8204Y-559
X34009Y-2838
X11455Y-28651
X11807Y-31212
X13564Y-27635
X13965Y-29784
X-1732Y33174
X14777Y-28523
X17729Y-25248
X20112Y-28708
X26418Y23038
X25095Y21869
X18339Y-24790
X11490Y-15482
X31657Y-8948
X18404Y-5826
X21971Y-24003
X30124Y-12217
X17616Y24434
X19659Y27331
X22022Y-21565
X18807Y-17819
X4321Y26263
X5458Y33205
X10584Y26717
X11659Y30761
X23597Y-19761
X10516Y-8763
X7772Y27229
X3531Y12548
X6435Y27216
X7370Y31292
X26391Y-15875
X18593Y-11227
X5490Y21405
X27254Y-14402
X28575Y-11430
X26289Y-10490
X29185Y-9957
X26644Y-9614
X1573Y-25279
X1941Y-29349
X29388Y-9449
X26308Y-7869
X5668Y-26840
X6054Y-28867
X4526Y-23193
X5554Y-28196
X30074Y-6934
X21557Y-4859
X4216Y-21692
X2282Y-23673
X2383Y-27860
X30404Y-4547
X22411Y-2961
X0Y-22606
X30810Y-356
X25313Y-762
X30785Y2007
X24538Y1262
X30759Y2667
X23395Y2288
X7345Y24247
X6235Y20391
X29667Y5156
X24495Y4828
X22987Y9931
X6676Y19445
X7823Y22936
X29388Y9373
X21607Y6428
X20955Y12903
X19329Y11887
X11828Y20451
X9920Y17125
X29233Y9913
X22685Y7704
X21387Y9982
X28346Y12167
X19426Y8027
X27634Y13618
X19439Y9509
X20295Y7595
X19419Y7262
X26035Y16510
X16078Y10592
X2292Y-17111
X2916Y-21100
X25026Y18006
X16002Y11049
X15612Y-10506
X14374Y-9615
X3131Y-20323
X2620Y-16248
X23159Y20298
X13743Y12065
X10164Y-15229
X8954Y-13331
X14173Y-27280
X25Y-19228
X21361Y22022
X12305Y12835
X11716Y-13355
X10346Y-11744
X18339Y24740
X10052Y13937
X6896Y10991
X9449Y15113
X9200Y13611
X6831Y10133
X16332Y26162
X5785Y9951
X7689Y13274
X15900Y26416
X9272Y-9171
X6172Y-6096
X13614Y27635
X1981Y7620
X7950Y-4415
X5383Y-2862
X1472Y-8236
X1658Y-11737
X12040Y28296
X6020Y13437
X13350Y-6231
X10820Y-5029
X6041Y-9772
X3680Y-6210
X9347Y29388
X4799Y14453
X13225Y-7591
X9746Y-5583
X6629Y29845
X2159Y8534
X2842Y6813
X1626Y3734
X2515Y30709
X889Y9601
X9119Y3757
X7742Y3187
X7242Y946
X2845Y432
X1448Y32004
X838Y9068
X9227Y1109
X-10744Y-2794
X-8988Y1071
X13233Y9068
X17755Y11176
X-686Y15138
X1651Y24816
X-4801Y25400
X-6960Y14326
X-7112Y13284
X-16942Y-8280
X-8122Y961
X12548Y11252
X1006Y33909
X-31674Y12100
X-24892Y15011
X-7366Y19812
X-9119Y-6248
X8572Y21862
X9830Y4750
X-6198Y16637
X9906Y2235
X4623Y12522
X6680Y17856
X3200Y17526
X-2159Y406
X-2489Y-76
X6833Y12725
X-5182Y-127
X-34572Y-120
X-5182Y-2388
X5944Y19329
X33145Y-3320
X20828Y-2184
X-6539Y20694
X-963Y21642
X32070Y5215
X20650Y3277
X-29465Y16940
X-18948Y-22123
X-21723Y-24723
X-22375Y-25478
X-6386Y23766
X-5969Y20142
X-8840Y32925
X-23043Y-8632
X1113Y-15570
M30