G04 EAGLE Gerber RS-274X export*
G75*
%MOMM*%
%FSLAX34Y34*%
%LPD*%
%INMechanical*%
%IPPOS*%
%AMOC8*
5,1,8,0,0,1.08239X$1,22.5*%
G01*
%ADD10C,0.152400*%
%ADD11C,0.000000*%
%ADD12C,0.254000*%


D10*
X360000Y0D02*
X359895Y8699D01*
X359580Y17393D01*
X359054Y26077D01*
X358319Y34745D01*
X357375Y43393D01*
X356222Y52016D01*
X354861Y60609D01*
X353293Y69166D01*
X351519Y77682D01*
X349539Y86154D01*
X347355Y94575D01*
X344968Y102940D01*
X342380Y111246D01*
X339592Y119487D01*
X336606Y127658D01*
X333423Y135754D01*
X330045Y143771D01*
X326475Y151704D01*
X322714Y159549D01*
X318764Y167300D01*
X314628Y174954D01*
X310309Y182506D01*
X305808Y189950D01*
X301129Y197285D01*
X296274Y204503D01*
X291246Y211603D01*
X286048Y218579D01*
X280683Y225427D01*
X275154Y232143D01*
X269464Y238724D01*
X263617Y245166D01*
X257616Y251464D01*
X251464Y257616D01*
X245166Y263617D01*
X238724Y269464D01*
X232143Y275154D01*
X225427Y280683D01*
X218579Y286048D01*
X211603Y291246D01*
X204503Y296274D01*
X197285Y301129D01*
X189950Y305808D01*
X182506Y310309D01*
X174954Y314628D01*
X167300Y318764D01*
X159549Y322714D01*
X151704Y326475D01*
X143771Y330045D01*
X135754Y333423D01*
X127658Y336606D01*
X119487Y339592D01*
X111246Y342380D01*
X102940Y344968D01*
X94575Y347355D01*
X86154Y349539D01*
X77682Y351519D01*
X69166Y353293D01*
X60609Y354861D01*
X52016Y356222D01*
X43393Y357375D01*
X34745Y358319D01*
X26077Y359054D01*
X17393Y359580D01*
X8699Y359895D01*
X0Y360000D01*
X360000Y0D02*
X359895Y-8699D01*
X359580Y-17393D01*
X359054Y-26077D01*
X358319Y-34745D01*
X357375Y-43393D01*
X356222Y-52016D01*
X354861Y-60609D01*
X353293Y-69166D01*
X351519Y-77682D01*
X349539Y-86154D01*
X347355Y-94575D01*
X344968Y-102940D01*
X342380Y-111246D01*
X339592Y-119487D01*
X336606Y-127658D01*
X333423Y-135754D01*
X330045Y-143771D01*
X326475Y-151704D01*
X322714Y-159549D01*
X318764Y-167300D01*
X314628Y-174954D01*
X310309Y-182506D01*
X305808Y-189950D01*
X301129Y-197285D01*
X296274Y-204503D01*
X291246Y-211603D01*
X286048Y-218579D01*
X280683Y-225427D01*
X275154Y-232143D01*
X269464Y-238724D01*
X263617Y-245166D01*
X257616Y-251464D01*
X251464Y-257616D01*
X245166Y-263617D01*
X238724Y-269464D01*
X232143Y-275154D01*
X225427Y-280683D01*
X218579Y-286048D01*
X211603Y-291246D01*
X204503Y-296274D01*
X197285Y-301129D01*
X189950Y-305808D01*
X182506Y-310309D01*
X174954Y-314628D01*
X167300Y-318764D01*
X159549Y-322714D01*
X151704Y-326475D01*
X143771Y-330045D01*
X135754Y-333423D01*
X127658Y-336606D01*
X119487Y-339592D01*
X111246Y-342380D01*
X102940Y-344968D01*
X94575Y-347355D01*
X86154Y-349539D01*
X77682Y-351519D01*
X69166Y-353293D01*
X60609Y-354861D01*
X52016Y-356222D01*
X43393Y-357375D01*
X34745Y-358319D01*
X26077Y-359054D01*
X17393Y-359580D01*
X8699Y-359895D01*
X0Y-360000D01*
X-8699Y-359895D01*
X-17393Y-359580D01*
X-26077Y-359054D01*
X-34745Y-358319D01*
X-43393Y-357375D01*
X-52016Y-356222D01*
X-60609Y-354861D01*
X-69166Y-353293D01*
X-77682Y-351519D01*
X-86154Y-349539D01*
X-94575Y-347355D01*
X-102940Y-344968D01*
X-111246Y-342380D01*
X-119487Y-339592D01*
X-127658Y-336606D01*
X-135754Y-333423D01*
X-143771Y-330045D01*
X-151704Y-326475D01*
X-159549Y-322714D01*
X-167300Y-318764D01*
X-174954Y-314628D01*
X-182506Y-310309D01*
X-189950Y-305808D01*
X-197285Y-301129D01*
X-204503Y-296274D01*
X-211603Y-291246D01*
X-218579Y-286048D01*
X-225427Y-280683D01*
X-232143Y-275154D01*
X-238724Y-269464D01*
X-245166Y-263617D01*
X-251464Y-257616D01*
X-257616Y-251464D01*
X-263617Y-245166D01*
X-269464Y-238724D01*
X-275154Y-232143D01*
X-280683Y-225427D01*
X-286048Y-218579D01*
X-291246Y-211603D01*
X-296274Y-204503D01*
X-301129Y-197285D01*
X-305808Y-189950D01*
X-310309Y-182506D01*
X-314628Y-174954D01*
X-318764Y-167300D01*
X-322714Y-159549D01*
X-326475Y-151704D01*
X-330045Y-143771D01*
X-333423Y-135754D01*
X-336606Y-127658D01*
X-339592Y-119487D01*
X-342380Y-111246D01*
X-344968Y-102940D01*
X-347355Y-94575D01*
X-349539Y-86154D01*
X-351519Y-77682D01*
X-353293Y-69166D01*
X-354861Y-60609D01*
X-356222Y-52016D01*
X-357375Y-43393D01*
X-358319Y-34745D01*
X-359054Y-26077D01*
X-359580Y-17393D01*
X-359895Y-8699D01*
X-360000Y0D01*
X-359895Y8699D01*
X-359580Y17393D01*
X-359054Y26077D01*
X-358319Y34745D01*
X-357375Y43393D01*
X-356222Y52016D01*
X-354861Y60609D01*
X-353293Y69166D01*
X-351519Y77682D01*
X-349539Y86154D01*
X-347355Y94575D01*
X-344968Y102940D01*
X-342380Y111246D01*
X-339592Y119487D01*
X-336606Y127658D01*
X-333423Y135754D01*
X-330045Y143771D01*
X-326475Y151704D01*
X-322714Y159549D01*
X-318764Y167300D01*
X-314628Y174954D01*
X-310309Y182506D01*
X-305808Y189950D01*
X-301129Y197285D01*
X-296274Y204503D01*
X-291246Y211603D01*
X-286048Y218579D01*
X-280683Y225427D01*
X-275154Y232143D01*
X-269464Y238724D01*
X-263617Y245166D01*
X-257616Y251464D01*
X-251464Y257616D01*
X-245166Y263617D01*
X-238724Y269464D01*
X-232143Y275154D01*
X-225427Y280683D01*
X-218579Y286048D01*
X-211603Y291246D01*
X-204503Y296274D01*
X-197285Y301129D01*
X-189950Y305808D01*
X-182506Y310309D01*
X-174954Y314628D01*
X-167300Y318764D01*
X-159549Y322714D01*
X-151704Y326475D01*
X-143771Y330045D01*
X-135754Y333423D01*
X-127658Y336606D01*
X-119487Y339592D01*
X-111246Y342380D01*
X-102940Y344968D01*
X-94575Y347355D01*
X-86154Y349539D01*
X-77682Y351519D01*
X-69166Y353293D01*
X-60609Y354861D01*
X-52016Y356222D01*
X-43393Y357375D01*
X-34745Y358319D01*
X-26077Y359054D01*
X-17393Y359580D01*
X-8699Y359895D01*
X0Y360000D01*
X8699Y359895D01*
X17393Y359580D01*
X26077Y359054D01*
X34745Y358319D01*
X43393Y357375D01*
X52016Y356222D01*
X60609Y354861D01*
X69166Y353293D01*
X77682Y351519D01*
X86154Y349539D01*
X94575Y347355D01*
X102940Y344968D01*
X111246Y342380D01*
X119487Y339592D01*
X127658Y336606D01*
X135754Y333423D01*
X143771Y330045D01*
X151704Y326475D01*
X159549Y322714D01*
X167300Y318764D01*
X174954Y314628D01*
X182506Y310309D01*
X189950Y305808D01*
X197285Y301129D01*
X204503Y296274D01*
X211603Y291246D01*
X218579Y286048D01*
X225427Y280683D01*
X232143Y275154D01*
X238724Y269464D01*
X245166Y263617D01*
X251464Y257616D01*
X257616Y251464D01*
X263617Y245166D01*
X269464Y238724D01*
X275154Y232143D01*
X280683Y225427D01*
X286048Y218579D01*
X291246Y211603D01*
X296274Y204503D01*
X301129Y197285D01*
X305808Y189950D01*
X310309Y182506D01*
X314628Y174954D01*
X318764Y167300D01*
X322714Y159549D01*
X326475Y151704D01*
X330045Y143771D01*
X333423Y135754D01*
X336606Y127658D01*
X339592Y119487D01*
X342380Y111246D01*
X344968Y102940D01*
X347355Y94575D01*
X349539Y86154D01*
X351519Y77682D01*
X353293Y69166D01*
X354861Y60609D01*
X356222Y52016D01*
X357375Y43393D01*
X358319Y34745D01*
X359054Y26077D01*
X359580Y17393D01*
X359895Y8699D01*
X360000Y0D01*
X359895Y-8699D01*
X359580Y-17393D01*
X359054Y-26077D01*
X358319Y-34745D01*
X357375Y-43393D01*
X356222Y-52016D01*
X354861Y-60609D01*
X353293Y-69166D01*
X351519Y-77682D01*
X349539Y-86154D01*
X347355Y-94575D01*
X344968Y-102940D01*
X342380Y-111246D01*
X339592Y-119487D01*
X336606Y-127658D01*
X333423Y-135754D01*
X330045Y-143771D01*
X326475Y-151704D01*
X322714Y-159549D01*
X318764Y-167300D01*
X314628Y-174954D01*
X310309Y-182506D01*
X305808Y-189950D01*
X301129Y-197285D01*
X296274Y-204503D01*
X291246Y-211603D01*
X286048Y-218579D01*
X280683Y-225427D01*
X275154Y-232143D01*
X269464Y-238724D01*
X263617Y-245166D01*
X257616Y-251464D01*
X251464Y-257616D01*
X245166Y-263617D01*
X238724Y-269464D01*
X232143Y-275154D01*
X225427Y-280683D01*
X218579Y-286048D01*
X211603Y-291246D01*
X204503Y-296274D01*
X197285Y-301129D01*
X189950Y-305808D01*
X182506Y-310309D01*
X174954Y-314628D01*
X167300Y-318764D01*
X159549Y-322714D01*
X151704Y-326475D01*
X143771Y-330045D01*
X135754Y-333423D01*
X127658Y-336606D01*
X119487Y-339592D01*
X111246Y-342380D01*
X102940Y-344968D01*
X94575Y-347355D01*
X86154Y-349539D01*
X77682Y-351519D01*
X69166Y-353293D01*
X60609Y-354861D01*
X52016Y-356222D01*
X43393Y-357375D01*
X34745Y-358319D01*
X26077Y-359054D01*
X17393Y-359580D01*
X8699Y-359895D01*
X0Y-360000D01*
X-8699Y-359895D01*
X-17393Y-359580D01*
X-26077Y-359054D01*
X-34745Y-358319D01*
X-43393Y-357375D01*
X-52016Y-356222D01*
X-60609Y-354861D01*
X-69166Y-353293D01*
X-77682Y-351519D01*
X-86154Y-349539D01*
X-94575Y-347355D01*
X-102940Y-344968D01*
X-111246Y-342380D01*
X-119487Y-339592D01*
X-127658Y-336606D01*
X-135754Y-333423D01*
X-143771Y-330045D01*
X-151704Y-326475D01*
X-159549Y-322714D01*
X-167300Y-318764D01*
X-174954Y-314628D01*
X-182506Y-310309D01*
X-189950Y-305808D01*
X-197285Y-301129D01*
X-204503Y-296274D01*
X-211603Y-291246D01*
X-218579Y-286048D01*
X-225427Y-280683D01*
X-232143Y-275154D01*
X-238724Y-269464D01*
X-245166Y-263617D01*
X-251464Y-257616D01*
X-257616Y-251464D01*
X-263617Y-245166D01*
X-269464Y-238724D01*
X-275154Y-232143D01*
X-280683Y-225427D01*
X-286048Y-218579D01*
X-291246Y-211603D01*
X-296274Y-204503D01*
X-301129Y-197285D01*
X-305808Y-189950D01*
X-310309Y-182506D01*
X-314628Y-174954D01*
X-318764Y-167300D01*
X-322714Y-159549D01*
X-326475Y-151704D01*
X-330045Y-143771D01*
X-333423Y-135754D01*
X-336606Y-127658D01*
X-339592Y-119487D01*
X-342380Y-111246D01*
X-344968Y-102940D01*
X-347355Y-94575D01*
X-349539Y-86154D01*
X-351519Y-77682D01*
X-353293Y-69166D01*
X-354861Y-60609D01*
X-356222Y-52016D01*
X-357375Y-43393D01*
X-358319Y-34745D01*
X-359054Y-26077D01*
X-359580Y-17393D01*
X-359895Y-8699D01*
X-360000Y0D01*
X-359895Y8699D01*
X-359580Y17393D01*
X-359054Y26077D01*
X-358319Y34745D01*
X-357375Y43393D01*
X-356222Y52016D01*
X-354861Y60609D01*
X-353293Y69166D01*
X-351519Y77682D01*
X-349539Y86154D01*
X-347355Y94575D01*
X-344968Y102940D01*
X-342380Y111246D01*
X-339592Y119487D01*
X-336606Y127658D01*
X-333423Y135754D01*
X-330045Y143771D01*
X-326475Y151704D01*
X-322714Y159549D01*
X-318764Y167300D01*
X-314628Y174954D01*
X-310309Y182506D01*
X-305808Y189950D01*
X-301129Y197285D01*
X-296274Y204503D01*
X-291246Y211603D01*
X-286048Y218579D01*
X-280683Y225427D01*
X-275154Y232143D01*
X-269464Y238724D01*
X-263617Y245166D01*
X-257616Y251464D01*
X-251464Y257616D01*
X-245166Y263617D01*
X-238724Y269464D01*
X-232143Y275154D01*
X-225427Y280683D01*
X-218579Y286048D01*
X-211603Y291246D01*
X-204503Y296274D01*
X-197285Y301129D01*
X-189950Y305808D01*
X-182506Y310309D01*
X-174954Y314628D01*
X-167300Y318764D01*
X-159549Y322714D01*
X-151704Y326475D01*
X-143771Y330045D01*
X-135754Y333423D01*
X-127658Y336606D01*
X-119487Y339592D01*
X-111246Y342380D01*
X-102940Y344968D01*
X-94575Y347355D01*
X-86154Y349539D01*
X-77682Y351519D01*
X-69166Y353293D01*
X-60609Y354861D01*
X-52016Y356222D01*
X-43393Y357375D01*
X-34745Y358319D01*
X-26077Y359054D01*
X-17393Y359580D01*
X-8699Y359895D01*
X0Y360000D01*
D11*
X14750Y-323600D02*
X14752Y-323470D01*
X14758Y-323340D01*
X14768Y-323210D01*
X14782Y-323080D01*
X14800Y-322951D01*
X14822Y-322823D01*
X14847Y-322695D01*
X14877Y-322568D01*
X14911Y-322442D01*
X14948Y-322318D01*
X14989Y-322194D01*
X15034Y-322072D01*
X15083Y-321951D01*
X15135Y-321832D01*
X15191Y-321714D01*
X15251Y-321598D01*
X15314Y-321484D01*
X15381Y-321372D01*
X15451Y-321263D01*
X15524Y-321155D01*
X15600Y-321050D01*
X15680Y-320947D01*
X15763Y-320846D01*
X15849Y-320748D01*
X15938Y-320653D01*
X16030Y-320560D01*
X16124Y-320471D01*
X16221Y-320384D01*
X16321Y-320301D01*
X16424Y-320220D01*
X16528Y-320143D01*
X16635Y-320069D01*
X16745Y-319998D01*
X16856Y-319930D01*
X16970Y-319866D01*
X17085Y-319806D01*
X17202Y-319749D01*
X17321Y-319696D01*
X17442Y-319646D01*
X17563Y-319600D01*
X17687Y-319558D01*
X17811Y-319520D01*
X17937Y-319485D01*
X18063Y-319454D01*
X18191Y-319428D01*
X18319Y-319405D01*
X18448Y-319386D01*
X18577Y-319371D01*
X18707Y-319360D01*
X18837Y-319353D01*
X18967Y-319350D01*
X19098Y-319351D01*
X19228Y-319356D01*
X19358Y-319365D01*
X19487Y-319378D01*
X19617Y-319395D01*
X19745Y-319416D01*
X19873Y-319441D01*
X20000Y-319469D01*
X20126Y-319502D01*
X20251Y-319538D01*
X20375Y-319579D01*
X20498Y-319623D01*
X20619Y-319670D01*
X20739Y-319722D01*
X20857Y-319777D01*
X20973Y-319836D01*
X21087Y-319898D01*
X21200Y-319964D01*
X21310Y-320033D01*
X21418Y-320105D01*
X21524Y-320181D01*
X21628Y-320260D01*
X21729Y-320342D01*
X21828Y-320427D01*
X21924Y-320515D01*
X22017Y-320606D01*
X22107Y-320700D01*
X22194Y-320797D01*
X22279Y-320896D01*
X22360Y-320998D01*
X22438Y-321102D01*
X22513Y-321208D01*
X22585Y-321317D01*
X22653Y-321428D01*
X22718Y-321541D01*
X22779Y-321656D01*
X22837Y-321773D01*
X22891Y-321891D01*
X22942Y-322011D01*
X22989Y-322133D01*
X23032Y-322256D01*
X23071Y-322380D01*
X23107Y-322505D01*
X23138Y-322632D01*
X23166Y-322759D01*
X23190Y-322887D01*
X23210Y-323016D01*
X23226Y-323145D01*
X23238Y-323275D01*
X23246Y-323405D01*
X23250Y-323535D01*
X23250Y-323665D01*
X23246Y-323795D01*
X23238Y-323925D01*
X23226Y-324055D01*
X23210Y-324184D01*
X23190Y-324313D01*
X23166Y-324441D01*
X23138Y-324568D01*
X23107Y-324695D01*
X23071Y-324820D01*
X23032Y-324944D01*
X22989Y-325067D01*
X22942Y-325189D01*
X22891Y-325309D01*
X22837Y-325427D01*
X22779Y-325544D01*
X22718Y-325659D01*
X22653Y-325772D01*
X22585Y-325883D01*
X22513Y-325992D01*
X22438Y-326098D01*
X22360Y-326202D01*
X22279Y-326304D01*
X22194Y-326403D01*
X22107Y-326500D01*
X22017Y-326594D01*
X21924Y-326685D01*
X21828Y-326773D01*
X21729Y-326858D01*
X21628Y-326940D01*
X21524Y-327019D01*
X21418Y-327095D01*
X21310Y-327167D01*
X21200Y-327236D01*
X21087Y-327302D01*
X20973Y-327364D01*
X20857Y-327423D01*
X20739Y-327478D01*
X20619Y-327530D01*
X20498Y-327577D01*
X20375Y-327621D01*
X20251Y-327662D01*
X20126Y-327698D01*
X20000Y-327731D01*
X19873Y-327759D01*
X19745Y-327784D01*
X19617Y-327805D01*
X19487Y-327822D01*
X19358Y-327835D01*
X19228Y-327844D01*
X19098Y-327849D01*
X18967Y-327850D01*
X18837Y-327847D01*
X18707Y-327840D01*
X18577Y-327829D01*
X18448Y-327814D01*
X18319Y-327795D01*
X18191Y-327772D01*
X18063Y-327746D01*
X17937Y-327715D01*
X17811Y-327680D01*
X17687Y-327642D01*
X17563Y-327600D01*
X17442Y-327554D01*
X17321Y-327504D01*
X17202Y-327451D01*
X17085Y-327394D01*
X16970Y-327334D01*
X16856Y-327270D01*
X16745Y-327202D01*
X16635Y-327131D01*
X16528Y-327057D01*
X16424Y-326980D01*
X16321Y-326899D01*
X16221Y-326816D01*
X16124Y-326729D01*
X16030Y-326640D01*
X15938Y-326547D01*
X15849Y-326452D01*
X15763Y-326354D01*
X15680Y-326253D01*
X15600Y-326150D01*
X15524Y-326045D01*
X15451Y-325937D01*
X15381Y-325828D01*
X15314Y-325716D01*
X15251Y-325602D01*
X15191Y-325486D01*
X15135Y-325368D01*
X15083Y-325249D01*
X15034Y-325128D01*
X14989Y-325006D01*
X14948Y-324882D01*
X14911Y-324758D01*
X14877Y-324632D01*
X14847Y-324505D01*
X14822Y-324377D01*
X14800Y-324249D01*
X14782Y-324120D01*
X14768Y-323990D01*
X14758Y-323860D01*
X14752Y-323730D01*
X14750Y-323600D01*
X-23250Y-323600D02*
X-23248Y-323470D01*
X-23242Y-323340D01*
X-23232Y-323210D01*
X-23218Y-323080D01*
X-23200Y-322951D01*
X-23178Y-322823D01*
X-23153Y-322695D01*
X-23123Y-322568D01*
X-23089Y-322442D01*
X-23052Y-322318D01*
X-23011Y-322194D01*
X-22966Y-322072D01*
X-22917Y-321951D01*
X-22865Y-321832D01*
X-22809Y-321714D01*
X-22749Y-321598D01*
X-22686Y-321484D01*
X-22619Y-321372D01*
X-22549Y-321263D01*
X-22476Y-321155D01*
X-22400Y-321050D01*
X-22320Y-320947D01*
X-22237Y-320846D01*
X-22151Y-320748D01*
X-22062Y-320653D01*
X-21970Y-320560D01*
X-21876Y-320471D01*
X-21779Y-320384D01*
X-21679Y-320301D01*
X-21576Y-320220D01*
X-21472Y-320143D01*
X-21365Y-320069D01*
X-21255Y-319998D01*
X-21144Y-319930D01*
X-21030Y-319866D01*
X-20915Y-319806D01*
X-20798Y-319749D01*
X-20679Y-319696D01*
X-20558Y-319646D01*
X-20437Y-319600D01*
X-20313Y-319558D01*
X-20189Y-319520D01*
X-20063Y-319485D01*
X-19937Y-319454D01*
X-19809Y-319428D01*
X-19681Y-319405D01*
X-19552Y-319386D01*
X-19423Y-319371D01*
X-19293Y-319360D01*
X-19163Y-319353D01*
X-19033Y-319350D01*
X-18902Y-319351D01*
X-18772Y-319356D01*
X-18642Y-319365D01*
X-18513Y-319378D01*
X-18383Y-319395D01*
X-18255Y-319416D01*
X-18127Y-319441D01*
X-18000Y-319469D01*
X-17874Y-319502D01*
X-17749Y-319538D01*
X-17625Y-319579D01*
X-17502Y-319623D01*
X-17381Y-319670D01*
X-17261Y-319722D01*
X-17143Y-319777D01*
X-17027Y-319836D01*
X-16913Y-319898D01*
X-16800Y-319964D01*
X-16690Y-320033D01*
X-16582Y-320105D01*
X-16476Y-320181D01*
X-16372Y-320260D01*
X-16271Y-320342D01*
X-16172Y-320427D01*
X-16076Y-320515D01*
X-15983Y-320606D01*
X-15893Y-320700D01*
X-15806Y-320797D01*
X-15721Y-320896D01*
X-15640Y-320998D01*
X-15562Y-321102D01*
X-15487Y-321208D01*
X-15415Y-321317D01*
X-15347Y-321428D01*
X-15282Y-321541D01*
X-15221Y-321656D01*
X-15163Y-321773D01*
X-15109Y-321891D01*
X-15058Y-322011D01*
X-15011Y-322133D01*
X-14968Y-322256D01*
X-14929Y-322380D01*
X-14893Y-322505D01*
X-14862Y-322632D01*
X-14834Y-322759D01*
X-14810Y-322887D01*
X-14790Y-323016D01*
X-14774Y-323145D01*
X-14762Y-323275D01*
X-14754Y-323405D01*
X-14750Y-323535D01*
X-14750Y-323665D01*
X-14754Y-323795D01*
X-14762Y-323925D01*
X-14774Y-324055D01*
X-14790Y-324184D01*
X-14810Y-324313D01*
X-14834Y-324441D01*
X-14862Y-324568D01*
X-14893Y-324695D01*
X-14929Y-324820D01*
X-14968Y-324944D01*
X-15011Y-325067D01*
X-15058Y-325189D01*
X-15109Y-325309D01*
X-15163Y-325427D01*
X-15221Y-325544D01*
X-15282Y-325659D01*
X-15347Y-325772D01*
X-15415Y-325883D01*
X-15487Y-325992D01*
X-15562Y-326098D01*
X-15640Y-326202D01*
X-15721Y-326304D01*
X-15806Y-326403D01*
X-15893Y-326500D01*
X-15983Y-326594D01*
X-16076Y-326685D01*
X-16172Y-326773D01*
X-16271Y-326858D01*
X-16372Y-326940D01*
X-16476Y-327019D01*
X-16582Y-327095D01*
X-16690Y-327167D01*
X-16800Y-327236D01*
X-16913Y-327302D01*
X-17027Y-327364D01*
X-17143Y-327423D01*
X-17261Y-327478D01*
X-17381Y-327530D01*
X-17502Y-327577D01*
X-17625Y-327621D01*
X-17749Y-327662D01*
X-17874Y-327698D01*
X-18000Y-327731D01*
X-18127Y-327759D01*
X-18255Y-327784D01*
X-18383Y-327805D01*
X-18513Y-327822D01*
X-18642Y-327835D01*
X-18772Y-327844D01*
X-18902Y-327849D01*
X-19033Y-327850D01*
X-19163Y-327847D01*
X-19293Y-327840D01*
X-19423Y-327829D01*
X-19552Y-327814D01*
X-19681Y-327795D01*
X-19809Y-327772D01*
X-19937Y-327746D01*
X-20063Y-327715D01*
X-20189Y-327680D01*
X-20313Y-327642D01*
X-20437Y-327600D01*
X-20558Y-327554D01*
X-20679Y-327504D01*
X-20798Y-327451D01*
X-20915Y-327394D01*
X-21030Y-327334D01*
X-21144Y-327270D01*
X-21255Y-327202D01*
X-21365Y-327131D01*
X-21472Y-327057D01*
X-21576Y-326980D01*
X-21679Y-326899D01*
X-21779Y-326816D01*
X-21876Y-326729D01*
X-21970Y-326640D01*
X-22062Y-326547D01*
X-22151Y-326452D01*
X-22237Y-326354D01*
X-22320Y-326253D01*
X-22400Y-326150D01*
X-22476Y-326045D01*
X-22549Y-325937D01*
X-22619Y-325828D01*
X-22686Y-325716D01*
X-22749Y-325602D01*
X-22809Y-325486D01*
X-22865Y-325368D01*
X-22917Y-325249D01*
X-22966Y-325128D01*
X-23011Y-325006D01*
X-23052Y-324882D01*
X-23089Y-324758D01*
X-23123Y-324632D01*
X-23153Y-324505D01*
X-23178Y-324377D01*
X-23200Y-324249D01*
X-23218Y-324120D01*
X-23232Y-323990D01*
X-23242Y-323860D01*
X-23248Y-323730D01*
X-23250Y-323600D01*
X-349940Y-20080D02*
X-349938Y-19946D01*
X-349932Y-19812D01*
X-349922Y-19679D01*
X-349908Y-19545D01*
X-349890Y-19412D01*
X-349868Y-19280D01*
X-349843Y-19149D01*
X-349813Y-19018D01*
X-349779Y-18888D01*
X-349742Y-18760D01*
X-349701Y-18632D01*
X-349656Y-18506D01*
X-349607Y-18381D01*
X-349555Y-18258D01*
X-349499Y-18136D01*
X-349439Y-18016D01*
X-349376Y-17898D01*
X-349309Y-17782D01*
X-349239Y-17668D01*
X-349165Y-17556D01*
X-349088Y-17446D01*
X-349008Y-17338D01*
X-348925Y-17233D01*
X-348839Y-17131D01*
X-348750Y-17031D01*
X-348657Y-16934D01*
X-348562Y-16839D01*
X-348464Y-16748D01*
X-348364Y-16659D01*
X-348261Y-16574D01*
X-348155Y-16491D01*
X-348047Y-16412D01*
X-347937Y-16336D01*
X-347824Y-16263D01*
X-347709Y-16194D01*
X-347593Y-16128D01*
X-347474Y-16066D01*
X-347354Y-16007D01*
X-347231Y-15952D01*
X-347108Y-15900D01*
X-346983Y-15853D01*
X-346856Y-15809D01*
X-346728Y-15768D01*
X-346599Y-15732D01*
X-346469Y-15699D01*
X-346338Y-15671D01*
X-346207Y-15646D01*
X-346074Y-15625D01*
X-345941Y-15608D01*
X-345808Y-15595D01*
X-345674Y-15586D01*
X-345540Y-15581D01*
X-345406Y-15580D01*
X-345273Y-15583D01*
X-345139Y-15590D01*
X-345005Y-15601D01*
X-344872Y-15616D01*
X-344739Y-15635D01*
X-344607Y-15658D01*
X-344476Y-15684D01*
X-344346Y-15715D01*
X-344216Y-15750D01*
X-344088Y-15788D01*
X-343961Y-15830D01*
X-343835Y-15876D01*
X-343710Y-15926D01*
X-343587Y-15979D01*
X-343466Y-16036D01*
X-343346Y-16097D01*
X-343229Y-16161D01*
X-343113Y-16228D01*
X-342999Y-16299D01*
X-342888Y-16374D01*
X-342779Y-16451D01*
X-342672Y-16532D01*
X-342567Y-16616D01*
X-342466Y-16703D01*
X-342366Y-16793D01*
X-342270Y-16886D01*
X-342176Y-16982D01*
X-342085Y-17081D01*
X-341998Y-17182D01*
X-341913Y-17286D01*
X-341831Y-17392D01*
X-341753Y-17500D01*
X-341678Y-17611D01*
X-341606Y-17724D01*
X-341537Y-17840D01*
X-341472Y-17957D01*
X-341411Y-18076D01*
X-341353Y-18197D01*
X-341299Y-18319D01*
X-341248Y-18443D01*
X-341201Y-18569D01*
X-341158Y-18696D01*
X-341119Y-18824D01*
X-341083Y-18953D01*
X-341052Y-19083D01*
X-341024Y-19214D01*
X-341000Y-19346D01*
X-340980Y-19479D01*
X-340964Y-19612D01*
X-340952Y-19745D01*
X-340944Y-19879D01*
X-340940Y-20013D01*
X-340940Y-20147D01*
X-340944Y-20281D01*
X-340952Y-20415D01*
X-340964Y-20548D01*
X-340980Y-20681D01*
X-341000Y-20814D01*
X-341024Y-20946D01*
X-341052Y-21077D01*
X-341083Y-21207D01*
X-341119Y-21336D01*
X-341158Y-21464D01*
X-341201Y-21591D01*
X-341248Y-21717D01*
X-341299Y-21841D01*
X-341353Y-21963D01*
X-341411Y-22084D01*
X-341472Y-22203D01*
X-341537Y-22320D01*
X-341606Y-22436D01*
X-341678Y-22549D01*
X-341753Y-22660D01*
X-341831Y-22768D01*
X-341913Y-22874D01*
X-341998Y-22978D01*
X-342085Y-23079D01*
X-342176Y-23178D01*
X-342270Y-23274D01*
X-342366Y-23367D01*
X-342466Y-23457D01*
X-342567Y-23544D01*
X-342672Y-23628D01*
X-342779Y-23709D01*
X-342888Y-23786D01*
X-342999Y-23861D01*
X-343113Y-23932D01*
X-343229Y-23999D01*
X-343346Y-24063D01*
X-343466Y-24124D01*
X-343587Y-24181D01*
X-343710Y-24234D01*
X-343835Y-24284D01*
X-343961Y-24330D01*
X-344088Y-24372D01*
X-344216Y-24410D01*
X-344346Y-24445D01*
X-344476Y-24476D01*
X-344607Y-24502D01*
X-344739Y-24525D01*
X-344872Y-24544D01*
X-345005Y-24559D01*
X-345139Y-24570D01*
X-345273Y-24577D01*
X-345406Y-24580D01*
X-345540Y-24579D01*
X-345674Y-24574D01*
X-345808Y-24565D01*
X-345941Y-24552D01*
X-346074Y-24535D01*
X-346207Y-24514D01*
X-346338Y-24489D01*
X-346469Y-24461D01*
X-346599Y-24428D01*
X-346728Y-24392D01*
X-346856Y-24351D01*
X-346983Y-24307D01*
X-347108Y-24260D01*
X-347231Y-24208D01*
X-347354Y-24153D01*
X-347474Y-24094D01*
X-347593Y-24032D01*
X-347709Y-23966D01*
X-347824Y-23897D01*
X-347937Y-23824D01*
X-348047Y-23748D01*
X-348155Y-23669D01*
X-348261Y-23586D01*
X-348364Y-23501D01*
X-348464Y-23412D01*
X-348562Y-23321D01*
X-348657Y-23226D01*
X-348750Y-23129D01*
X-348839Y-23029D01*
X-348925Y-22927D01*
X-349008Y-22822D01*
X-349088Y-22714D01*
X-349165Y-22604D01*
X-349239Y-22492D01*
X-349309Y-22378D01*
X-349376Y-22262D01*
X-349439Y-22144D01*
X-349499Y-22024D01*
X-349555Y-21902D01*
X-349607Y-21779D01*
X-349656Y-21654D01*
X-349701Y-21528D01*
X-349742Y-21400D01*
X-349779Y-21272D01*
X-349813Y-21142D01*
X-349843Y-21011D01*
X-349868Y-20880D01*
X-349890Y-20748D01*
X-349908Y-20615D01*
X-349922Y-20481D01*
X-349932Y-20348D01*
X-349938Y-20214D01*
X-349940Y-20080D01*
X-349940Y9920D02*
X-349938Y10054D01*
X-349932Y10188D01*
X-349922Y10321D01*
X-349908Y10455D01*
X-349890Y10588D01*
X-349868Y10720D01*
X-349843Y10851D01*
X-349813Y10982D01*
X-349779Y11112D01*
X-349742Y11240D01*
X-349701Y11368D01*
X-349656Y11494D01*
X-349607Y11619D01*
X-349555Y11742D01*
X-349499Y11864D01*
X-349439Y11984D01*
X-349376Y12102D01*
X-349309Y12218D01*
X-349239Y12332D01*
X-349165Y12444D01*
X-349088Y12554D01*
X-349008Y12662D01*
X-348925Y12767D01*
X-348839Y12869D01*
X-348750Y12969D01*
X-348657Y13066D01*
X-348562Y13161D01*
X-348464Y13252D01*
X-348364Y13341D01*
X-348261Y13426D01*
X-348155Y13509D01*
X-348047Y13588D01*
X-347937Y13664D01*
X-347824Y13737D01*
X-347709Y13806D01*
X-347593Y13872D01*
X-347474Y13934D01*
X-347354Y13993D01*
X-347231Y14048D01*
X-347108Y14100D01*
X-346983Y14147D01*
X-346856Y14191D01*
X-346728Y14232D01*
X-346599Y14268D01*
X-346469Y14301D01*
X-346338Y14329D01*
X-346207Y14354D01*
X-346074Y14375D01*
X-345941Y14392D01*
X-345808Y14405D01*
X-345674Y14414D01*
X-345540Y14419D01*
X-345406Y14420D01*
X-345273Y14417D01*
X-345139Y14410D01*
X-345005Y14399D01*
X-344872Y14384D01*
X-344739Y14365D01*
X-344607Y14342D01*
X-344476Y14316D01*
X-344346Y14285D01*
X-344216Y14250D01*
X-344088Y14212D01*
X-343961Y14170D01*
X-343835Y14124D01*
X-343710Y14074D01*
X-343587Y14021D01*
X-343466Y13964D01*
X-343346Y13903D01*
X-343229Y13839D01*
X-343113Y13772D01*
X-342999Y13701D01*
X-342888Y13626D01*
X-342779Y13549D01*
X-342672Y13468D01*
X-342567Y13384D01*
X-342466Y13297D01*
X-342366Y13207D01*
X-342270Y13114D01*
X-342176Y13018D01*
X-342085Y12919D01*
X-341998Y12818D01*
X-341913Y12714D01*
X-341831Y12608D01*
X-341753Y12500D01*
X-341678Y12389D01*
X-341606Y12276D01*
X-341537Y12160D01*
X-341472Y12043D01*
X-341411Y11924D01*
X-341353Y11803D01*
X-341299Y11681D01*
X-341248Y11557D01*
X-341201Y11431D01*
X-341158Y11304D01*
X-341119Y11176D01*
X-341083Y11047D01*
X-341052Y10917D01*
X-341024Y10786D01*
X-341000Y10654D01*
X-340980Y10521D01*
X-340964Y10388D01*
X-340952Y10255D01*
X-340944Y10121D01*
X-340940Y9987D01*
X-340940Y9853D01*
X-340944Y9719D01*
X-340952Y9585D01*
X-340964Y9452D01*
X-340980Y9319D01*
X-341000Y9186D01*
X-341024Y9054D01*
X-341052Y8923D01*
X-341083Y8793D01*
X-341119Y8664D01*
X-341158Y8536D01*
X-341201Y8409D01*
X-341248Y8283D01*
X-341299Y8159D01*
X-341353Y8037D01*
X-341411Y7916D01*
X-341472Y7797D01*
X-341537Y7680D01*
X-341606Y7564D01*
X-341678Y7451D01*
X-341753Y7340D01*
X-341831Y7232D01*
X-341913Y7126D01*
X-341998Y7022D01*
X-342085Y6921D01*
X-342176Y6822D01*
X-342270Y6726D01*
X-342366Y6633D01*
X-342466Y6543D01*
X-342567Y6456D01*
X-342672Y6372D01*
X-342779Y6291D01*
X-342888Y6214D01*
X-342999Y6139D01*
X-343113Y6068D01*
X-343229Y6001D01*
X-343346Y5937D01*
X-343466Y5876D01*
X-343587Y5819D01*
X-343710Y5766D01*
X-343835Y5716D01*
X-343961Y5670D01*
X-344088Y5628D01*
X-344216Y5590D01*
X-344346Y5555D01*
X-344476Y5524D01*
X-344607Y5498D01*
X-344739Y5475D01*
X-344872Y5456D01*
X-345005Y5441D01*
X-345139Y5430D01*
X-345273Y5423D01*
X-345406Y5420D01*
X-345540Y5421D01*
X-345674Y5426D01*
X-345808Y5435D01*
X-345941Y5448D01*
X-346074Y5465D01*
X-346207Y5486D01*
X-346338Y5511D01*
X-346469Y5539D01*
X-346599Y5572D01*
X-346728Y5608D01*
X-346856Y5649D01*
X-346983Y5693D01*
X-347108Y5740D01*
X-347231Y5792D01*
X-347354Y5847D01*
X-347474Y5906D01*
X-347593Y5968D01*
X-347709Y6034D01*
X-347824Y6103D01*
X-347937Y6176D01*
X-348047Y6252D01*
X-348155Y6331D01*
X-348261Y6414D01*
X-348364Y6499D01*
X-348464Y6588D01*
X-348562Y6679D01*
X-348657Y6774D01*
X-348750Y6871D01*
X-348839Y6971D01*
X-348925Y7073D01*
X-349008Y7178D01*
X-349088Y7286D01*
X-349165Y7396D01*
X-349239Y7508D01*
X-349309Y7622D01*
X-349376Y7738D01*
X-349439Y7856D01*
X-349499Y7976D01*
X-349555Y8098D01*
X-349607Y8221D01*
X-349656Y8346D01*
X-349701Y8472D01*
X-349742Y8600D01*
X-349779Y8728D01*
X-349813Y8858D01*
X-349843Y8989D01*
X-349868Y9120D01*
X-349890Y9252D01*
X-349908Y9385D01*
X-349922Y9519D01*
X-349932Y9652D01*
X-349938Y9786D01*
X-349940Y9920D01*
D12*
X-360000Y0D02*
X-358630Y-31376D01*
X-354531Y-62513D01*
X-347733Y-93175D01*
X-338289Y-123127D01*
X-326271Y-152143D01*
X-311769Y-180000D01*
X-294895Y-206488D01*
X-275776Y-231404D01*
X-254558Y-254558D01*
X-231404Y-275776D01*
X-206488Y-294895D01*
X-180000Y-311769D01*
X-152143Y-326271D01*
X-123127Y-338289D01*
X-93175Y-347733D01*
X-62513Y-354531D01*
X-31376Y-358630D01*
X0Y-360000D01*
X31376Y-358630D01*
X62513Y-354531D01*
X93175Y-347733D01*
X123127Y-338289D01*
X152143Y-326271D01*
X180000Y-311769D01*
X206488Y-294895D01*
X231404Y-275776D01*
X254558Y-254558D01*
X275776Y-231404D01*
X294895Y-206488D01*
X311769Y-180000D01*
X326271Y-152143D01*
X338289Y-123127D01*
X347733Y-93175D01*
X354531Y-62513D01*
X358630Y-31376D01*
X360000Y0D01*
X358630Y31376D01*
X354531Y62513D01*
X347733Y93175D01*
X338289Y123127D01*
X326271Y152143D01*
X311769Y180000D01*
X294895Y206488D01*
X275776Y231404D01*
X254558Y254558D01*
X231404Y275776D01*
X206488Y294895D01*
X180000Y311769D01*
X152143Y326271D01*
X123127Y338289D01*
X93175Y347733D01*
X62513Y354531D01*
X31376Y358630D01*
X0Y360000D01*
X-31376Y358630D01*
X-62513Y354531D01*
X-93175Y347733D01*
X-123127Y338289D01*
X-152143Y326271D01*
X-180000Y311769D01*
X-206488Y294895D01*
X-231404Y275776D01*
X-254558Y254558D01*
X-275776Y231404D01*
X-294895Y206488D01*
X-311769Y180000D01*
X-326271Y152143D01*
X-338289Y123127D01*
X-347733Y93175D01*
X-354531Y62513D01*
X-358630Y31376D01*
X-360000Y0D01*
X-360000Y0D02*
X-358630Y-31376D01*
X-354531Y-62513D01*
X-347733Y-93175D01*
X-338289Y-123127D01*
X-326271Y-152143D01*
X-311769Y-180000D01*
X-294895Y-206488D01*
X-275776Y-231404D01*
X-254558Y-254558D01*
X-231404Y-275776D01*
X-206488Y-294895D01*
X-180000Y-311769D01*
X-152143Y-326271D01*
X-123127Y-338289D01*
X-93175Y-347733D01*
X-62513Y-354531D01*
X-31376Y-358630D01*
X0Y-360000D01*
X31376Y-358630D01*
X62513Y-354531D01*
X93175Y-347733D01*
X123127Y-338289D01*
X152143Y-326271D01*
X180000Y-311769D01*
X206488Y-294895D01*
X231404Y-275776D01*
X254558Y-254558D01*
X275776Y-231404D01*
X294895Y-206488D01*
X311769Y-180000D01*
X326271Y-152143D01*
X338289Y-123127D01*
X347733Y-93175D01*
X354531Y-62513D01*
X358630Y-31376D01*
X360000Y0D01*
X358630Y31376D01*
X354531Y62513D01*
X347733Y93175D01*
X338289Y123127D01*
X326271Y152143D01*
X311769Y180000D01*
X294895Y206488D01*
X275776Y231404D01*
X254558Y254558D01*
X231404Y275776D01*
X206488Y294895D01*
X180000Y311769D01*
X152143Y326271D01*
X123127Y338289D01*
X93175Y347733D01*
X62513Y354531D01*
X31376Y358630D01*
X0Y360000D01*
X-31376Y358630D01*
X-62513Y354531D01*
X-93175Y347733D01*
X-123127Y338289D01*
X-152143Y326271D01*
X-180000Y311769D01*
X-206488Y294895D01*
X-231404Y275776D01*
X-254558Y254558D01*
X-275776Y231404D01*
X-294895Y206488D01*
X-311769Y180000D01*
X-326271Y152143D01*
X-338289Y123127D01*
X-347733Y93175D01*
X-354531Y62513D01*
X-358630Y31376D01*
X-360000Y0D01*
X18721Y-319350D02*
X18169Y-319423D01*
X17631Y-319567D01*
X17116Y-319780D01*
X16634Y-320059D01*
X16192Y-320398D01*
X15798Y-320792D01*
X15459Y-321234D01*
X15180Y-321716D01*
X14967Y-322231D01*
X14823Y-322769D01*
X14750Y-323321D01*
X14750Y-323879D01*
X14823Y-324431D01*
X14967Y-324969D01*
X15180Y-325484D01*
X15459Y-325966D01*
X15798Y-326408D01*
X16192Y-326802D01*
X16634Y-327141D01*
X17116Y-327420D01*
X17631Y-327633D01*
X18169Y-327777D01*
X18721Y-327850D01*
X19279Y-327850D01*
X19831Y-327777D01*
X20369Y-327633D01*
X20884Y-327420D01*
X21366Y-327141D01*
X21808Y-326802D01*
X22202Y-326408D01*
X22541Y-325966D01*
X22820Y-325484D01*
X23033Y-324969D01*
X23177Y-324431D01*
X23250Y-323879D01*
X23250Y-323321D01*
X23177Y-322769D01*
X23033Y-322231D01*
X22820Y-321716D01*
X22541Y-321234D01*
X22202Y-320792D01*
X21808Y-320398D01*
X21366Y-320059D01*
X20884Y-319780D01*
X20369Y-319567D01*
X19831Y-319423D01*
X19279Y-319350D01*
X18721Y-319350D01*
X-19279Y-319350D02*
X-19831Y-319423D01*
X-20369Y-319567D01*
X-20884Y-319780D01*
X-21366Y-320059D01*
X-21808Y-320398D01*
X-22202Y-320792D01*
X-22541Y-321234D01*
X-22820Y-321716D01*
X-23033Y-322231D01*
X-23177Y-322769D01*
X-23250Y-323321D01*
X-23250Y-323879D01*
X-23177Y-324431D01*
X-23033Y-324969D01*
X-22820Y-325484D01*
X-22541Y-325966D01*
X-22202Y-326408D01*
X-21808Y-326802D01*
X-21366Y-327141D01*
X-20884Y-327420D01*
X-20369Y-327633D01*
X-19831Y-327777D01*
X-19279Y-327850D01*
X-18721Y-327850D01*
X-18169Y-327777D01*
X-17631Y-327633D01*
X-17116Y-327420D01*
X-16634Y-327141D01*
X-16192Y-326802D01*
X-15798Y-326408D01*
X-15459Y-325966D01*
X-15180Y-325484D01*
X-14967Y-324969D01*
X-14823Y-324431D01*
X-14750Y-323879D01*
X-14750Y-323321D01*
X-14823Y-322769D01*
X-14967Y-322231D01*
X-15180Y-321716D01*
X-15459Y-321234D01*
X-15798Y-320792D01*
X-16192Y-320398D01*
X-16634Y-320059D01*
X-17116Y-319780D01*
X-17631Y-319567D01*
X-18169Y-319423D01*
X-18721Y-319350D01*
X-19279Y-319350D01*
X-345735Y-15580D02*
X-346320Y-15657D01*
X-346890Y-15810D01*
X-347435Y-16035D01*
X-347945Y-16330D01*
X-348413Y-16689D01*
X-348831Y-17107D01*
X-349190Y-17575D01*
X-349485Y-18085D01*
X-349710Y-18630D01*
X-349863Y-19200D01*
X-349940Y-19785D01*
X-349940Y-20375D01*
X-349863Y-20960D01*
X-349710Y-21530D01*
X-349485Y-22075D01*
X-349190Y-22585D01*
X-348831Y-23053D01*
X-348413Y-23471D01*
X-347945Y-23830D01*
X-347435Y-24125D01*
X-346890Y-24350D01*
X-346320Y-24503D01*
X-345735Y-24580D01*
X-345145Y-24580D01*
X-344560Y-24503D01*
X-343990Y-24350D01*
X-343445Y-24125D01*
X-342935Y-23830D01*
X-342467Y-23471D01*
X-342049Y-23053D01*
X-341690Y-22585D01*
X-341395Y-22075D01*
X-341170Y-21530D01*
X-341017Y-20960D01*
X-340940Y-20375D01*
X-340940Y-19785D01*
X-341017Y-19200D01*
X-341170Y-18630D01*
X-341395Y-18085D01*
X-341690Y-17575D01*
X-342049Y-17107D01*
X-342467Y-16689D01*
X-342935Y-16330D01*
X-343445Y-16035D01*
X-343990Y-15810D01*
X-344560Y-15657D01*
X-345145Y-15580D01*
X-345735Y-15580D01*
X-345735Y14420D02*
X-346320Y14343D01*
X-346890Y14190D01*
X-347435Y13965D01*
X-347945Y13670D01*
X-348413Y13311D01*
X-348831Y12893D01*
X-349190Y12425D01*
X-349485Y11915D01*
X-349710Y11370D01*
X-349863Y10800D01*
X-349940Y10215D01*
X-349940Y9625D01*
X-349863Y9040D01*
X-349710Y8470D01*
X-349485Y7925D01*
X-349190Y7415D01*
X-348831Y6947D01*
X-348413Y6529D01*
X-347945Y6170D01*
X-347435Y5875D01*
X-346890Y5650D01*
X-346320Y5497D01*
X-345735Y5420D01*
X-345145Y5420D01*
X-344560Y5497D01*
X-343990Y5650D01*
X-343445Y5875D01*
X-342935Y6170D01*
X-342467Y6529D01*
X-342049Y6947D01*
X-341690Y7415D01*
X-341395Y7925D01*
X-341170Y8470D01*
X-341017Y9040D01*
X-340940Y9625D01*
X-340940Y10215D01*
X-341017Y10800D01*
X-341170Y11370D01*
X-341395Y11915D01*
X-341690Y12425D01*
X-342049Y12893D01*
X-342467Y13311D01*
X-342935Y13670D01*
X-343445Y13965D01*
X-343990Y14190D01*
X-344560Y14343D01*
X-345145Y14420D01*
X-345735Y14420D01*
M02*
