G04 EAGLE Gerber RS-274X export*
G75*
%MOMM*%
%FSLAX34Y34*%
%LPD*%
%INBottom Paste*%
%IPPOS*%
%AMOC8*
5,1,8,0,0,1.08239X$1,22.5*%
G01*
%ADD10R,5.400000X5.400000*%
%ADD11R,0.740000X0.220000*%
%ADD12R,1.100000X1.000000*%
%ADD13C,0.350000*%
%ADD14R,0.600000X0.700000*%
%ADD15R,0.700000X0.600000*%
%ADD16R,2.000000X5.000000*%
%ADD17R,4.600000X1.000000*%
%ADD18R,3.400000X1.600000*%
%ADD19R,1.300000X1.500000*%
%ADD20R,1.500000X1.300000*%
%ADD21R,1.950000X2.500000*%
%ADD22R,1.200000X0.550000*%
%ADD23R,0.400000X1.450000*%
%ADD24R,1.800000X1.500000*%
%ADD25R,1.500000X0.700000*%
%ADD26R,1.498600X2.006600*%
%ADD27R,3.810000X2.006600*%
%ADD28R,1.270000X0.508000*%
%ADD29R,0.508000X1.270000*%
%ADD30R,1.000000X1.800000*%
%ADD31R,1.300000X1.600000*%
%ADD32R,1.700000X0.900000*%
%ADD33R,2.540000X1.270000*%
%ADD34R,1.000000X0.900000*%
%ADD35R,1.700000X0.550000*%


D10*
G36*
X-159280Y38183D02*
X-121097Y0D01*
X-159280Y-38183D01*
X-197463Y0D01*
X-159280Y38183D01*
G37*
D11*
G36*
X-132021Y25703D02*
X-137253Y20471D01*
X-138809Y22027D01*
X-133577Y27259D01*
X-132021Y25703D01*
G37*
G36*
X-129193Y22874D02*
X-134425Y17642D01*
X-135981Y19198D01*
X-130749Y24430D01*
X-129193Y22874D01*
G37*
G36*
X-126364Y20046D02*
X-131596Y14814D01*
X-133152Y16370D01*
X-127920Y21602D01*
X-126364Y20046D01*
G37*
G36*
X-123536Y17218D02*
X-128768Y11986D01*
X-130324Y13542D01*
X-125092Y18774D01*
X-123536Y17218D01*
G37*
G36*
X-120707Y14389D02*
X-125939Y9157D01*
X-127495Y10713D01*
X-122263Y15945D01*
X-120707Y14389D01*
G37*
G36*
X-117879Y11561D02*
X-123111Y6329D01*
X-124667Y7885D01*
X-119435Y13117D01*
X-117879Y11561D01*
G37*
G36*
X-115051Y8732D02*
X-120283Y3500D01*
X-121839Y5056D01*
X-116607Y10288D01*
X-115051Y8732D01*
G37*
G36*
X-112222Y5904D02*
X-117454Y672D01*
X-119010Y2228D01*
X-113778Y7460D01*
X-112222Y5904D01*
G37*
G36*
X-134850Y28531D02*
X-140082Y23299D01*
X-141638Y24855D01*
X-136406Y30087D01*
X-134850Y28531D01*
G37*
G36*
X-137678Y31360D02*
X-142910Y26128D01*
X-144466Y27684D01*
X-139234Y32916D01*
X-137678Y31360D01*
G37*
G36*
X-140506Y34188D02*
X-145738Y28956D01*
X-147294Y30512D01*
X-142062Y35744D01*
X-140506Y34188D01*
G37*
G36*
X-143335Y37017D02*
X-148567Y31785D01*
X-150123Y33341D01*
X-144891Y38573D01*
X-143335Y37017D01*
G37*
G36*
X-146163Y39845D02*
X-151395Y34613D01*
X-152951Y36169D01*
X-147719Y41401D01*
X-146163Y39845D01*
G37*
G36*
X-148992Y42673D02*
X-154224Y37441D01*
X-155780Y38997D01*
X-150548Y44229D01*
X-148992Y42673D01*
G37*
G36*
X-151820Y45502D02*
X-157052Y40270D01*
X-158608Y41826D01*
X-153376Y47058D01*
X-151820Y45502D01*
G37*
G36*
X-179751Y-22027D02*
X-184983Y-27259D01*
X-186539Y-25703D01*
X-181307Y-20471D01*
X-179751Y-22027D01*
G37*
G36*
X-182579Y-19198D02*
X-187811Y-24430D01*
X-189367Y-22874D01*
X-184135Y-17642D01*
X-182579Y-19198D01*
G37*
G36*
X-185408Y-16370D02*
X-190640Y-21602D01*
X-192196Y-20046D01*
X-186964Y-14814D01*
X-185408Y-16370D01*
G37*
G36*
X-188236Y-13542D02*
X-193468Y-18774D01*
X-195024Y-17218D01*
X-189792Y-11986D01*
X-188236Y-13542D01*
G37*
G36*
X-191065Y-10713D02*
X-196297Y-15945D01*
X-197853Y-14389D01*
X-192621Y-9157D01*
X-191065Y-10713D01*
G37*
G36*
X-193893Y-7885D02*
X-199125Y-13117D01*
X-200681Y-11561D01*
X-195449Y-6329D01*
X-193893Y-7885D01*
G37*
G36*
X-196721Y-5056D02*
X-201953Y-10288D01*
X-203509Y-8732D01*
X-198277Y-3500D01*
X-196721Y-5056D01*
G37*
G36*
X-199550Y-2228D02*
X-204782Y-7460D01*
X-206338Y-5904D01*
X-201106Y-672D01*
X-199550Y-2228D01*
G37*
G36*
X-176922Y-24855D02*
X-182154Y-30087D01*
X-183710Y-28531D01*
X-178478Y-23299D01*
X-176922Y-24855D01*
G37*
G36*
X-174094Y-27684D02*
X-179326Y-32916D01*
X-180882Y-31360D01*
X-175650Y-26128D01*
X-174094Y-27684D01*
G37*
G36*
X-171266Y-30512D02*
X-176498Y-35744D01*
X-178054Y-34188D01*
X-172822Y-28956D01*
X-171266Y-30512D01*
G37*
G36*
X-168437Y-33341D02*
X-173669Y-38573D01*
X-175225Y-37017D01*
X-169993Y-31785D01*
X-168437Y-33341D01*
G37*
G36*
X-165609Y-36169D02*
X-170841Y-41401D01*
X-172397Y-39845D01*
X-167165Y-34613D01*
X-165609Y-36169D01*
G37*
G36*
X-162780Y-38997D02*
X-168012Y-44229D01*
X-169568Y-42673D01*
X-164336Y-37441D01*
X-162780Y-38997D01*
G37*
G36*
X-159952Y-41826D02*
X-165184Y-47058D01*
X-166740Y-45502D01*
X-161508Y-40270D01*
X-159952Y-41826D01*
G37*
G36*
X-137253Y-20471D02*
X-132021Y-25703D01*
X-133577Y-27259D01*
X-138809Y-22027D01*
X-137253Y-20471D01*
G37*
G36*
X-140082Y-23299D02*
X-134850Y-28531D01*
X-136406Y-30087D01*
X-141638Y-24855D01*
X-140082Y-23299D01*
G37*
G36*
X-142910Y-26128D02*
X-137678Y-31360D01*
X-139234Y-32916D01*
X-144466Y-27684D01*
X-142910Y-26128D01*
G37*
G36*
X-145738Y-28956D02*
X-140506Y-34188D01*
X-142062Y-35744D01*
X-147294Y-30512D01*
X-145738Y-28956D01*
G37*
G36*
X-148567Y-31785D02*
X-143335Y-37017D01*
X-144891Y-38573D01*
X-150123Y-33341D01*
X-148567Y-31785D01*
G37*
G36*
X-151395Y-34613D02*
X-146163Y-39845D01*
X-147719Y-41401D01*
X-152951Y-36169D01*
X-151395Y-34613D01*
G37*
G36*
X-154224Y-37441D02*
X-148992Y-42673D01*
X-150548Y-44229D01*
X-155780Y-38997D01*
X-154224Y-37441D01*
G37*
G36*
X-157052Y-40270D02*
X-151820Y-45502D01*
X-153376Y-47058D01*
X-158608Y-41826D01*
X-157052Y-40270D01*
G37*
G36*
X-134425Y-17642D02*
X-129193Y-22874D01*
X-130749Y-24430D01*
X-135981Y-19198D01*
X-134425Y-17642D01*
G37*
G36*
X-131596Y-14814D02*
X-126364Y-20046D01*
X-127920Y-21602D01*
X-133152Y-16370D01*
X-131596Y-14814D01*
G37*
G36*
X-128768Y-11986D02*
X-123536Y-17218D01*
X-125092Y-18774D01*
X-130324Y-13542D01*
X-128768Y-11986D01*
G37*
G36*
X-125939Y-9157D02*
X-120707Y-14389D01*
X-122263Y-15945D01*
X-127495Y-10713D01*
X-125939Y-9157D01*
G37*
G36*
X-123111Y-6329D02*
X-117879Y-11561D01*
X-119435Y-13117D01*
X-124667Y-7885D01*
X-123111Y-6329D01*
G37*
G36*
X-120283Y-3500D02*
X-115051Y-8732D01*
X-116607Y-10288D01*
X-121839Y-5056D01*
X-120283Y-3500D01*
G37*
G36*
X-117454Y-672D02*
X-112222Y-5904D01*
X-113778Y-7460D01*
X-119010Y-2228D01*
X-117454Y-672D01*
G37*
G36*
X-184983Y27259D02*
X-179751Y22027D01*
X-181307Y20471D01*
X-186539Y25703D01*
X-184983Y27259D01*
G37*
G36*
X-182154Y30087D02*
X-176922Y24855D01*
X-178478Y23299D01*
X-183710Y28531D01*
X-182154Y30087D01*
G37*
G36*
X-179326Y32916D02*
X-174094Y27684D01*
X-175650Y26128D01*
X-180882Y31360D01*
X-179326Y32916D01*
G37*
G36*
X-176498Y35744D02*
X-171266Y30512D01*
X-172822Y28956D01*
X-178054Y34188D01*
X-176498Y35744D01*
G37*
G36*
X-173669Y38573D02*
X-168437Y33341D01*
X-169993Y31785D01*
X-175225Y37017D01*
X-173669Y38573D01*
G37*
G36*
X-170841Y41401D02*
X-165609Y36169D01*
X-167165Y34613D01*
X-172397Y39845D01*
X-170841Y41401D01*
G37*
G36*
X-168012Y44229D02*
X-162780Y38997D01*
X-164336Y37441D01*
X-169568Y42673D01*
X-168012Y44229D01*
G37*
G36*
X-165184Y47058D02*
X-159952Y41826D01*
X-161508Y40270D01*
X-166740Y45502D01*
X-165184Y47058D01*
G37*
G36*
X-187811Y24430D02*
X-182579Y19198D01*
X-184135Y17642D01*
X-189367Y22874D01*
X-187811Y24430D01*
G37*
G36*
X-190640Y21602D02*
X-185408Y16370D01*
X-186964Y14814D01*
X-192196Y20046D01*
X-190640Y21602D01*
G37*
G36*
X-193468Y18774D02*
X-188236Y13542D01*
X-189792Y11986D01*
X-195024Y17218D01*
X-193468Y18774D01*
G37*
G36*
X-196297Y15945D02*
X-191065Y10713D01*
X-192621Y9157D01*
X-197853Y14389D01*
X-196297Y15945D01*
G37*
G36*
X-199125Y13117D02*
X-193893Y7885D01*
X-195449Y6329D01*
X-200681Y11561D01*
X-199125Y13117D01*
G37*
G36*
X-201953Y10288D02*
X-196721Y5056D01*
X-198277Y3500D01*
X-203509Y8732D01*
X-201953Y10288D01*
G37*
G36*
X-204782Y7460D02*
X-199550Y2228D01*
X-201106Y672D01*
X-206338Y5904D01*
X-204782Y7460D01*
G37*
D10*
G36*
X159280Y-38183D02*
X121097Y0D01*
X159280Y38183D01*
X197463Y0D01*
X159280Y-38183D01*
G37*
D11*
G36*
X132021Y-25703D02*
X137253Y-20471D01*
X138809Y-22027D01*
X133577Y-27259D01*
X132021Y-25703D01*
G37*
G36*
X129193Y-22874D02*
X134425Y-17642D01*
X135981Y-19198D01*
X130749Y-24430D01*
X129193Y-22874D01*
G37*
G36*
X126364Y-20046D02*
X131596Y-14814D01*
X133152Y-16370D01*
X127920Y-21602D01*
X126364Y-20046D01*
G37*
G36*
X123536Y-17218D02*
X128768Y-11986D01*
X130324Y-13542D01*
X125092Y-18774D01*
X123536Y-17218D01*
G37*
G36*
X120707Y-14389D02*
X125939Y-9157D01*
X127495Y-10713D01*
X122263Y-15945D01*
X120707Y-14389D01*
G37*
G36*
X117879Y-11561D02*
X123111Y-6329D01*
X124667Y-7885D01*
X119435Y-13117D01*
X117879Y-11561D01*
G37*
G36*
X115051Y-8732D02*
X120283Y-3500D01*
X121839Y-5056D01*
X116607Y-10288D01*
X115051Y-8732D01*
G37*
G36*
X112222Y-5904D02*
X117454Y-672D01*
X119010Y-2228D01*
X113778Y-7460D01*
X112222Y-5904D01*
G37*
G36*
X134850Y-28531D02*
X140082Y-23299D01*
X141638Y-24855D01*
X136406Y-30087D01*
X134850Y-28531D01*
G37*
G36*
X137678Y-31360D02*
X142910Y-26128D01*
X144466Y-27684D01*
X139234Y-32916D01*
X137678Y-31360D01*
G37*
G36*
X140506Y-34188D02*
X145738Y-28956D01*
X147294Y-30512D01*
X142062Y-35744D01*
X140506Y-34188D01*
G37*
G36*
X143335Y-37017D02*
X148567Y-31785D01*
X150123Y-33341D01*
X144891Y-38573D01*
X143335Y-37017D01*
G37*
G36*
X146163Y-39845D02*
X151395Y-34613D01*
X152951Y-36169D01*
X147719Y-41401D01*
X146163Y-39845D01*
G37*
G36*
X148992Y-42673D02*
X154224Y-37441D01*
X155780Y-38997D01*
X150548Y-44229D01*
X148992Y-42673D01*
G37*
G36*
X151820Y-45502D02*
X157052Y-40270D01*
X158608Y-41826D01*
X153376Y-47058D01*
X151820Y-45502D01*
G37*
G36*
X179751Y22027D02*
X184983Y27259D01*
X186539Y25703D01*
X181307Y20471D01*
X179751Y22027D01*
G37*
G36*
X182579Y19198D02*
X187811Y24430D01*
X189367Y22874D01*
X184135Y17642D01*
X182579Y19198D01*
G37*
G36*
X185408Y16370D02*
X190640Y21602D01*
X192196Y20046D01*
X186964Y14814D01*
X185408Y16370D01*
G37*
G36*
X188236Y13542D02*
X193468Y18774D01*
X195024Y17218D01*
X189792Y11986D01*
X188236Y13542D01*
G37*
G36*
X191065Y10713D02*
X196297Y15945D01*
X197853Y14389D01*
X192621Y9157D01*
X191065Y10713D01*
G37*
G36*
X193893Y7885D02*
X199125Y13117D01*
X200681Y11561D01*
X195449Y6329D01*
X193893Y7885D01*
G37*
G36*
X196721Y5056D02*
X201953Y10288D01*
X203509Y8732D01*
X198277Y3500D01*
X196721Y5056D01*
G37*
G36*
X199550Y2228D02*
X204782Y7460D01*
X206338Y5904D01*
X201106Y672D01*
X199550Y2228D01*
G37*
G36*
X176922Y24855D02*
X182154Y30087D01*
X183710Y28531D01*
X178478Y23299D01*
X176922Y24855D01*
G37*
G36*
X174094Y27684D02*
X179326Y32916D01*
X180882Y31360D01*
X175650Y26128D01*
X174094Y27684D01*
G37*
G36*
X171266Y30512D02*
X176498Y35744D01*
X178054Y34188D01*
X172822Y28956D01*
X171266Y30512D01*
G37*
G36*
X168437Y33341D02*
X173669Y38573D01*
X175225Y37017D01*
X169993Y31785D01*
X168437Y33341D01*
G37*
G36*
X165609Y36169D02*
X170841Y41401D01*
X172397Y39845D01*
X167165Y34613D01*
X165609Y36169D01*
G37*
G36*
X162780Y38997D02*
X168012Y44229D01*
X169568Y42673D01*
X164336Y37441D01*
X162780Y38997D01*
G37*
G36*
X159952Y41826D02*
X165184Y47058D01*
X166740Y45502D01*
X161508Y40270D01*
X159952Y41826D01*
G37*
G36*
X137253Y20471D02*
X132021Y25703D01*
X133577Y27259D01*
X138809Y22027D01*
X137253Y20471D01*
G37*
G36*
X140082Y23299D02*
X134850Y28531D01*
X136406Y30087D01*
X141638Y24855D01*
X140082Y23299D01*
G37*
G36*
X142910Y26128D02*
X137678Y31360D01*
X139234Y32916D01*
X144466Y27684D01*
X142910Y26128D01*
G37*
G36*
X145738Y28956D02*
X140506Y34188D01*
X142062Y35744D01*
X147294Y30512D01*
X145738Y28956D01*
G37*
G36*
X148567Y31785D02*
X143335Y37017D01*
X144891Y38573D01*
X150123Y33341D01*
X148567Y31785D01*
G37*
G36*
X151395Y34613D02*
X146163Y39845D01*
X147719Y41401D01*
X152951Y36169D01*
X151395Y34613D01*
G37*
G36*
X154224Y37441D02*
X148992Y42673D01*
X150548Y44229D01*
X155780Y38997D01*
X154224Y37441D01*
G37*
G36*
X157052Y40270D02*
X151820Y45502D01*
X153376Y47058D01*
X158608Y41826D01*
X157052Y40270D01*
G37*
G36*
X134425Y17642D02*
X129193Y22874D01*
X130749Y24430D01*
X135981Y19198D01*
X134425Y17642D01*
G37*
G36*
X131596Y14814D02*
X126364Y20046D01*
X127920Y21602D01*
X133152Y16370D01*
X131596Y14814D01*
G37*
G36*
X128768Y11986D02*
X123536Y17218D01*
X125092Y18774D01*
X130324Y13542D01*
X128768Y11986D01*
G37*
G36*
X125939Y9157D02*
X120707Y14389D01*
X122263Y15945D01*
X127495Y10713D01*
X125939Y9157D01*
G37*
G36*
X123111Y6329D02*
X117879Y11561D01*
X119435Y13117D01*
X124667Y7885D01*
X123111Y6329D01*
G37*
G36*
X120283Y3500D02*
X115051Y8732D01*
X116607Y10288D01*
X121839Y5056D01*
X120283Y3500D01*
G37*
G36*
X117454Y672D02*
X112222Y5904D01*
X113778Y7460D01*
X119010Y2228D01*
X117454Y672D01*
G37*
G36*
X184983Y-27259D02*
X179751Y-22027D01*
X181307Y-20471D01*
X186539Y-25703D01*
X184983Y-27259D01*
G37*
G36*
X182154Y-30087D02*
X176922Y-24855D01*
X178478Y-23299D01*
X183710Y-28531D01*
X182154Y-30087D01*
G37*
G36*
X179326Y-32916D02*
X174094Y-27684D01*
X175650Y-26128D01*
X180882Y-31360D01*
X179326Y-32916D01*
G37*
G36*
X176498Y-35744D02*
X171266Y-30512D01*
X172822Y-28956D01*
X178054Y-34188D01*
X176498Y-35744D01*
G37*
G36*
X173669Y-38573D02*
X168437Y-33341D01*
X169993Y-31785D01*
X175225Y-37017D01*
X173669Y-38573D01*
G37*
G36*
X170841Y-41401D02*
X165609Y-36169D01*
X167165Y-34613D01*
X172397Y-39845D01*
X170841Y-41401D01*
G37*
G36*
X168012Y-44229D02*
X162780Y-38997D01*
X164336Y-37441D01*
X169568Y-42673D01*
X168012Y-44229D01*
G37*
G36*
X165184Y-47058D02*
X159952Y-41826D01*
X161508Y-40270D01*
X166740Y-45502D01*
X165184Y-47058D01*
G37*
G36*
X187811Y-24430D02*
X182579Y-19198D01*
X184135Y-17642D01*
X189367Y-22874D01*
X187811Y-24430D01*
G37*
G36*
X190640Y-21602D02*
X185408Y-16370D01*
X186964Y-14814D01*
X192196Y-20046D01*
X190640Y-21602D01*
G37*
G36*
X193468Y-18774D02*
X188236Y-13542D01*
X189792Y-11986D01*
X195024Y-17218D01*
X193468Y-18774D01*
G37*
G36*
X196297Y-15945D02*
X191065Y-10713D01*
X192621Y-9157D01*
X197853Y-14389D01*
X196297Y-15945D01*
G37*
G36*
X199125Y-13117D02*
X193893Y-7885D01*
X195449Y-6329D01*
X200681Y-11561D01*
X199125Y-13117D01*
G37*
G36*
X201953Y-10288D02*
X196721Y-5056D01*
X198277Y-3500D01*
X203509Y-8732D01*
X201953Y-10288D01*
G37*
G36*
X204782Y-7460D02*
X199550Y-2228D01*
X201106Y-672D01*
X206338Y-5904D01*
X204782Y-7460D01*
G37*
D12*
G36*
X-10551Y296855D02*
X-9976Y285871D01*
X-19961Y285347D01*
X-20536Y296331D01*
X-10551Y296855D01*
G37*
G36*
X-11441Y313831D02*
X-10866Y302847D01*
X-20851Y302323D01*
X-21426Y313307D01*
X-11441Y313831D01*
G37*
G36*
X-33735Y295121D02*
X-32299Y284216D01*
X-42213Y282911D01*
X-43649Y293816D01*
X-33735Y295121D01*
G37*
G36*
X-35954Y311976D02*
X-34518Y301071D01*
X-44432Y299766D01*
X-45868Y310671D01*
X-35954Y311976D01*
G37*
G36*
X-56713Y291580D02*
X-54426Y280821D01*
X-64207Y278742D01*
X-66494Y289501D01*
X-56713Y291580D01*
G37*
G36*
X-60247Y308209D02*
X-57960Y297450D01*
X-67741Y295371D01*
X-70028Y306130D01*
X-60247Y308209D01*
G37*
G36*
X-79347Y286242D02*
X-76241Y275691D01*
X-85833Y272868D01*
X-88939Y283419D01*
X-79347Y286242D01*
G37*
G36*
X-84146Y302551D02*
X-81040Y292000D01*
X-90632Y289177D01*
X-93738Y299728D01*
X-84146Y302551D01*
G37*
G36*
X-101491Y279161D02*
X-97566Y268886D01*
X-106907Y265319D01*
X-110832Y275594D01*
X-101491Y279161D01*
G37*
G36*
X-107555Y295043D02*
X-103630Y284768D01*
X-112971Y281201D01*
X-116896Y291476D01*
X-107555Y295043D01*
G37*
G36*
X-123013Y270371D02*
X-118295Y260435D01*
X-127327Y256145D01*
X-132045Y266081D01*
X-123013Y270371D01*
G37*
G36*
X-130305Y285728D02*
X-125587Y275792D01*
X-134619Y271502D01*
X-139337Y281438D01*
X-130305Y285728D01*
G37*
G36*
X-143782Y259923D02*
X-138298Y250388D01*
X-146966Y245403D01*
X-152450Y254938D01*
X-143782Y259923D01*
G37*
G36*
X-152256Y274660D02*
X-146772Y265125D01*
X-155440Y260140D01*
X-160924Y269675D01*
X-152256Y274660D01*
G37*
G36*
X-163670Y247883D02*
X-157456Y238808D01*
X-165706Y233159D01*
X-171920Y242234D01*
X-163670Y247883D01*
G37*
G36*
X-173274Y261910D02*
X-167060Y252835D01*
X-175310Y247186D01*
X-181524Y256261D01*
X-173274Y261910D01*
G37*
G36*
X-182555Y234315D02*
X-175662Y225743D01*
X-183455Y219477D01*
X-190348Y228049D01*
X-182555Y234315D01*
G37*
G36*
X-193207Y247563D02*
X-186314Y238991D01*
X-194107Y232725D01*
X-201000Y241297D01*
X-193207Y247563D01*
G37*
G36*
X-200321Y219320D02*
X-192778Y211316D01*
X-200055Y204458D01*
X-207598Y212462D01*
X-200321Y219320D01*
G37*
G36*
X-211980Y231692D02*
X-204437Y223688D01*
X-211714Y216830D01*
X-219257Y224834D01*
X-211980Y231692D01*
G37*
G36*
X-216863Y202993D02*
X-208702Y195618D01*
X-215407Y188199D01*
X-223568Y195574D01*
X-216863Y202993D01*
G37*
G36*
X-229477Y214390D02*
X-221316Y207015D01*
X-228021Y199596D01*
X-236182Y206971D01*
X-229477Y214390D01*
G37*
G36*
X-232076Y185411D02*
X-223362Y178699D01*
X-229464Y170777D01*
X-238178Y177489D01*
X-232076Y185411D01*
G37*
G36*
X-245545Y195784D02*
X-236831Y189072D01*
X-242933Y181150D01*
X-251647Y187862D01*
X-245545Y195784D01*
G37*
G36*
X-245867Y166694D02*
X-236654Y160687D01*
X-242115Y152310D01*
X-251328Y158317D01*
X-245867Y166694D01*
G37*
G36*
X-260108Y175978D02*
X-250895Y169971D01*
X-256356Y161594D01*
X-265569Y167601D01*
X-260108Y175978D01*
G37*
G36*
X-258147Y146946D02*
X-248499Y141664D01*
X-253301Y132894D01*
X-262949Y138176D01*
X-258147Y146946D01*
G37*
G36*
X-273059Y155109D02*
X-263411Y149827D01*
X-268213Y141057D01*
X-277861Y146339D01*
X-273059Y155109D01*
G37*
G36*
X-268850Y126308D02*
X-258817Y121799D01*
X-262916Y112678D01*
X-272949Y117187D01*
X-268850Y126308D01*
G37*
G36*
X-284356Y133276D02*
X-274323Y128767D01*
X-278422Y119646D01*
X-288455Y124155D01*
X-284356Y133276D01*
G37*
G36*
X-277905Y104895D02*
X-267550Y101187D01*
X-270921Y91773D01*
X-281276Y95481D01*
X-277905Y104895D01*
G37*
G36*
X-293910Y110625D02*
X-283555Y106917D01*
X-286926Y97503D01*
X-297281Y101211D01*
X-293910Y110625D01*
G37*
G36*
X-285259Y82839D02*
X-274645Y79955D01*
X-277267Y70305D01*
X-287881Y73189D01*
X-285259Y82839D01*
G37*
G36*
X-301664Y87297D02*
X-291050Y84413D01*
X-293672Y74763D01*
X-304286Y77647D01*
X-301664Y87297D01*
G37*
G36*
X-290866Y60276D02*
X-280058Y58233D01*
X-281914Y48408D01*
X-292722Y50451D01*
X-290866Y60276D01*
G37*
G36*
X-307570Y63433D02*
X-296762Y61390D01*
X-298618Y51565D01*
X-309426Y53608D01*
X-307570Y63433D01*
G37*
G36*
X-294690Y37343D02*
X-283756Y36155D01*
X-284836Y26215D01*
X-295770Y27403D01*
X-294690Y37343D01*
G37*
G36*
X-311590Y39179D02*
X-300656Y37991D01*
X-301736Y28051D01*
X-312670Y29239D01*
X-311590Y39179D01*
G37*
G36*
X-296701Y14177D02*
X-285707Y13831D01*
X-286021Y3837D01*
X-297015Y4183D01*
X-296701Y14177D01*
G37*
G36*
X-313692Y14711D02*
X-302698Y14365D01*
X-303012Y4371D01*
X-314006Y4717D01*
X-313692Y14711D01*
G37*
G36*
X-296902Y-9071D02*
X-285915Y-8553D01*
X-285444Y-18541D01*
X-296431Y-19059D01*
X-296902Y-9071D01*
G37*
G36*
X-313883Y-9872D02*
X-302896Y-9354D01*
X-302425Y-19342D01*
X-313412Y-19860D01*
X-313883Y-9872D01*
G37*
G36*
X-295284Y-32264D02*
X-284372Y-30886D01*
X-283118Y-40806D01*
X-294030Y-42184D01*
X-295284Y-32264D01*
G37*
G36*
X-312150Y-34394D02*
X-301238Y-33016D01*
X-299984Y-42936D01*
X-310896Y-44314D01*
X-312150Y-34394D01*
G37*
G36*
X-291858Y-55259D02*
X-281088Y-53028D01*
X-279060Y-62819D01*
X-289830Y-65050D01*
X-291858Y-55259D01*
G37*
G36*
X-308504Y-58707D02*
X-297734Y-56476D01*
X-295706Y-66267D01*
X-306476Y-68498D01*
X-308504Y-58707D01*
G37*
G36*
X-286643Y-77915D02*
X-276081Y-74847D01*
X-273291Y-84449D01*
X-283853Y-87517D01*
X-286643Y-77915D01*
G37*
G36*
X-302968Y-82658D02*
X-292406Y-79590D01*
X-289616Y-89192D01*
X-300178Y-92260D01*
X-302968Y-82658D01*
G37*
G36*
X-279673Y-100095D02*
X-269384Y-96207D01*
X-265849Y-105561D01*
X-276138Y-109449D01*
X-279673Y-100095D01*
G37*
G36*
X-295576Y-106104D02*
X-285287Y-102216D01*
X-281752Y-111570D01*
X-292041Y-115458D01*
X-295576Y-106104D01*
G37*
G36*
X-270979Y-121663D02*
X-261019Y-116997D01*
X-256777Y-126051D01*
X-266737Y-130717D01*
X-270979Y-121663D01*
G37*
G36*
X-286374Y-128875D02*
X-276414Y-124209D01*
X-272172Y-133263D01*
X-282132Y-137929D01*
X-286374Y-128875D01*
G37*
G36*
X-260635Y-142484D02*
X-251072Y-137050D01*
X-246133Y-145744D01*
X-255696Y-151178D01*
X-260635Y-142484D01*
G37*
G36*
X-275416Y-150881D02*
X-265853Y-145447D01*
X-260914Y-154141D01*
X-270477Y-159575D01*
X-275416Y-150881D01*
G37*
G36*
X-248695Y-162432D02*
X-239587Y-156265D01*
X-233981Y-164544D01*
X-243089Y-170711D01*
X-248695Y-162432D01*
G37*
G36*
X-262772Y-171963D02*
X-253664Y-165796D01*
X-248058Y-174075D01*
X-257166Y-180242D01*
X-262772Y-171963D01*
G37*
G36*
X-235230Y-181385D02*
X-226635Y-174523D01*
X-220396Y-182337D01*
X-228991Y-189199D01*
X-235230Y-181385D01*
G37*
G36*
X-248516Y-191991D02*
X-239921Y-185129D01*
X-233682Y-192943D01*
X-242277Y-199805D01*
X-248516Y-191991D01*
G37*
G36*
X-220325Y-199227D02*
X-212294Y-191712D01*
X-205461Y-199013D01*
X-213492Y-206528D01*
X-220325Y-199227D01*
G37*
G36*
X-232738Y-210842D02*
X-224707Y-203327D01*
X-217874Y-210628D01*
X-225905Y-218143D01*
X-232738Y-210842D01*
G37*
G36*
X-204061Y-215846D02*
X-196630Y-207737D01*
X-189257Y-214492D01*
X-196688Y-222601D01*
X-204061Y-215846D01*
G37*
G36*
X-215546Y-228380D02*
X-208115Y-220271D01*
X-200742Y-227026D01*
X-208173Y-235135D01*
X-215546Y-228380D01*
G37*
G36*
X-186555Y-231144D02*
X-179782Y-222477D01*
X-171903Y-228634D01*
X-178676Y-237301D01*
X-186555Y-231144D01*
G37*
G36*
X-197022Y-244540D02*
X-190249Y-235873D01*
X-182370Y-242030D01*
X-189143Y-250697D01*
X-197022Y-244540D01*
G37*
G36*
X-167908Y-245028D02*
X-161836Y-235856D01*
X-153498Y-241376D01*
X-159570Y-250548D01*
X-167908Y-245028D01*
G37*
G36*
X-177290Y-259204D02*
X-171218Y-250032D01*
X-162880Y-255552D01*
X-168952Y-264724D01*
X-177290Y-259204D01*
G37*
G36*
X-148230Y-257410D02*
X-142897Y-247790D01*
X-134152Y-252638D01*
X-139485Y-262258D01*
X-148230Y-257410D01*
G37*
G36*
X-156472Y-272279D02*
X-151139Y-262659D01*
X-142394Y-267507D01*
X-147727Y-277127D01*
X-156472Y-272279D01*
G37*
G36*
X-127645Y-268216D02*
X-123083Y-258207D01*
X-113985Y-262354D01*
X-118547Y-272363D01*
X-127645Y-268216D01*
G37*
G36*
X-134695Y-283685D02*
X-130133Y-273676D01*
X-121035Y-277823D01*
X-125597Y-287832D01*
X-134695Y-283685D01*
G37*
G36*
X-106278Y-277378D02*
X-102516Y-267042D01*
X-93120Y-270462D01*
X-96882Y-280798D01*
X-106278Y-277378D01*
G37*
G36*
X-112092Y-293353D02*
X-108330Y-283017D01*
X-98934Y-286437D01*
X-102696Y-296773D01*
X-112092Y-293353D01*
G37*
G36*
X96882Y-280798D02*
X93120Y-270462D01*
X102516Y-267042D01*
X106278Y-277378D01*
X96882Y-280798D01*
G37*
G36*
X102696Y-296773D02*
X98934Y-286437D01*
X108330Y-283017D01*
X112092Y-293353D01*
X102696Y-296773D01*
G37*
G36*
X118683Y-272301D02*
X114121Y-262292D01*
X123219Y-258145D01*
X127781Y-268154D01*
X118683Y-272301D01*
G37*
G36*
X125733Y-287770D02*
X121171Y-277761D01*
X130269Y-273614D01*
X134831Y-283623D01*
X125733Y-287770D01*
G37*
G36*
X139747Y-262113D02*
X134414Y-252493D01*
X143159Y-247645D01*
X148492Y-257265D01*
X139747Y-262113D01*
G37*
G36*
X147989Y-276982D02*
X142656Y-267362D01*
X151401Y-262514D01*
X156734Y-272134D01*
X147989Y-276982D01*
G37*
G36*
X159944Y-250310D02*
X153856Y-241148D01*
X162184Y-235614D01*
X168272Y-244776D01*
X159944Y-250310D01*
G37*
G36*
X169352Y-264470D02*
X163264Y-255308D01*
X171592Y-249774D01*
X177680Y-258936D01*
X169352Y-264470D01*
G37*
G36*
X179149Y-236943D02*
X172361Y-228288D01*
X180229Y-222117D01*
X187017Y-230772D01*
X179149Y-236943D01*
G37*
G36*
X189639Y-250321D02*
X182851Y-241666D01*
X190719Y-235495D01*
X197507Y-244150D01*
X189639Y-250321D01*
G37*
G36*
X197239Y-222095D02*
X189808Y-213986D01*
X197181Y-207231D01*
X204612Y-215340D01*
X197239Y-222095D01*
G37*
G36*
X208724Y-234629D02*
X201293Y-226520D01*
X208666Y-219765D01*
X216097Y-227874D01*
X208724Y-234629D01*
G37*
G36*
X214110Y-205891D02*
X206053Y-198404D01*
X212860Y-191079D01*
X220917Y-198566D01*
X214110Y-205891D01*
G37*
G36*
X226564Y-217463D02*
X218507Y-209976D01*
X225314Y-202651D01*
X233371Y-210138D01*
X226564Y-217463D01*
G37*
G36*
X229651Y-188399D02*
X221031Y-181567D01*
X227243Y-173731D01*
X235863Y-180563D01*
X229651Y-188399D01*
G37*
G36*
X242973Y-198958D02*
X234353Y-192126D01*
X240565Y-184290D01*
X249185Y-191122D01*
X242973Y-198958D01*
G37*
G36*
X243766Y-169738D02*
X234637Y-163603D01*
X240214Y-155304D01*
X249343Y-161439D01*
X243766Y-169738D01*
G37*
G36*
X257877Y-179219D02*
X248748Y-173084D01*
X254325Y-164785D01*
X263454Y-170920D01*
X257877Y-179219D01*
G37*
G36*
X256369Y-150024D02*
X246786Y-144624D01*
X251695Y-135912D01*
X261278Y-141312D01*
X256369Y-150024D01*
G37*
G36*
X271180Y-158369D02*
X261597Y-152969D01*
X266506Y-144257D01*
X276089Y-149657D01*
X271180Y-158369D01*
G37*
G36*
X267381Y-129378D02*
X257405Y-124747D01*
X261615Y-115678D01*
X271591Y-120309D01*
X267381Y-129378D01*
G37*
G36*
X282800Y-136536D02*
X272824Y-131905D01*
X277034Y-122836D01*
X287010Y-127467D01*
X282800Y-136536D01*
G37*
G36*
X276740Y-107939D02*
X266424Y-104123D01*
X269894Y-94745D01*
X280210Y-98561D01*
X276740Y-107939D01*
G37*
G36*
X292684Y-113837D02*
X282368Y-110021D01*
X285838Y-100643D01*
X296154Y-104459D01*
X292684Y-113837D01*
G37*
G36*
X284376Y-85822D02*
X273793Y-82827D01*
X276516Y-73206D01*
X287099Y-76201D01*
X284376Y-85822D01*
G37*
G36*
X300734Y-90450D02*
X290151Y-87455D01*
X292874Y-77834D01*
X303457Y-80829D01*
X300734Y-90450D01*
G37*
G36*
X290248Y-63172D02*
X279462Y-61017D01*
X281422Y-51212D01*
X292208Y-53367D01*
X290248Y-63172D01*
G37*
G36*
X306918Y-66503D02*
X296132Y-64348D01*
X298092Y-54543D01*
X308878Y-56698D01*
X306918Y-66503D01*
G37*
G36*
X294318Y-40131D02*
X283396Y-38828D01*
X284580Y-28899D01*
X295502Y-30202D01*
X294318Y-40131D01*
G37*
G36*
X311199Y-42144D02*
X300277Y-40841D01*
X301461Y-30912D01*
X312383Y-32215D01*
X311199Y-42144D01*
G37*
G36*
X296562Y-16840D02*
X285572Y-16399D01*
X285974Y-6408D01*
X296964Y-6849D01*
X296562Y-16840D01*
G37*
G36*
X313548Y-17522D02*
X302558Y-17081D01*
X302960Y-7090D01*
X313950Y-7531D01*
X313548Y-17522D01*
G37*
G36*
X296966Y6555D02*
X285975Y6133D01*
X285592Y16125D01*
X296583Y16547D01*
X296966Y6555D01*
G37*
G36*
X313954Y7207D02*
X302963Y6785D01*
X302580Y16777D01*
X313571Y17199D01*
X313954Y7207D01*
G37*
G36*
X295538Y29905D02*
X284616Y28602D01*
X283432Y38531D01*
X294354Y39834D01*
X295538Y29905D01*
G37*
G36*
X312418Y31917D02*
X301496Y30614D01*
X300312Y40543D01*
X311234Y41846D01*
X312418Y31917D01*
G37*
G36*
X292256Y53077D02*
X281466Y50940D01*
X279524Y60749D01*
X290314Y62886D01*
X292256Y53077D01*
G37*
G36*
X308932Y56379D02*
X298142Y54242D01*
X296200Y64051D01*
X306990Y66188D01*
X308932Y56379D01*
G37*
G36*
X287170Y75915D02*
X276582Y72939D01*
X273876Y82565D01*
X284464Y85541D01*
X287170Y75915D01*
G37*
G36*
X303536Y80515D02*
X292948Y77539D01*
X290242Y87165D01*
X300830Y90141D01*
X303536Y80515D01*
G37*
G36*
X280314Y98281D02*
X269998Y94465D01*
X266528Y103843D01*
X276844Y107659D01*
X280314Y98281D01*
G37*
G36*
X296258Y104178D02*
X285942Y100362D01*
X282472Y109740D01*
X292788Y113556D01*
X296258Y104178D01*
G37*
G36*
X271707Y120039D02*
X261722Y115425D01*
X257527Y124501D01*
X267512Y129115D01*
X271707Y120039D01*
G37*
G36*
X287139Y127170D02*
X277154Y122556D01*
X272959Y131632D01*
X282944Y136246D01*
X287139Y127170D01*
G37*
G36*
X261425Y141051D02*
X251842Y135651D01*
X246933Y144363D01*
X256516Y149763D01*
X261425Y141051D01*
G37*
G36*
X276236Y149397D02*
X266653Y143997D01*
X261744Y152709D01*
X271327Y158109D01*
X276236Y149397D01*
G37*
G36*
X249500Y161189D02*
X240361Y155070D01*
X234798Y163379D01*
X243937Y169498D01*
X249500Y161189D01*
G37*
G36*
X263626Y170646D02*
X254487Y164527D01*
X248924Y172836D01*
X258063Y178955D01*
X263626Y170646D01*
G37*
G36*
X236038Y180327D02*
X227406Y173510D01*
X221208Y181357D01*
X229840Y188174D01*
X236038Y180327D01*
G37*
G36*
X249379Y190863D02*
X240747Y184046D01*
X234549Y191893D01*
X243181Y198710D01*
X249379Y190863D01*
G37*
G36*
X221121Y198347D02*
X213064Y190860D01*
X206257Y198185D01*
X214314Y205672D01*
X221121Y198347D01*
G37*
G36*
X233574Y209919D02*
X225517Y202432D01*
X218710Y209757D01*
X226767Y217244D01*
X233574Y209919D01*
G37*
G36*
X204822Y215135D02*
X197377Y207039D01*
X190016Y213807D01*
X197461Y221903D01*
X204822Y215135D01*
G37*
G36*
X216329Y227649D02*
X208884Y219553D01*
X201523Y226321D01*
X208968Y234417D01*
X216329Y227649D01*
G37*
G36*
X187253Y230587D02*
X180465Y221932D01*
X172597Y228103D01*
X179385Y236758D01*
X187253Y230587D01*
G37*
G36*
X197742Y243965D02*
X190954Y235310D01*
X183086Y241481D01*
X189874Y250136D01*
X197742Y243965D01*
G37*
G36*
X168522Y244611D02*
X162434Y235449D01*
X154106Y240983D01*
X160194Y250145D01*
X168522Y244611D01*
G37*
G36*
X177929Y258770D02*
X171841Y249608D01*
X163513Y255142D01*
X169601Y264304D01*
X177929Y258770D01*
G37*
G36*
X148744Y257115D02*
X143395Y247504D01*
X134658Y252367D01*
X140007Y261978D01*
X148744Y257115D01*
G37*
G36*
X157012Y271969D02*
X151663Y262358D01*
X142926Y267221D01*
X148275Y276832D01*
X157012Y271969D01*
G37*
G36*
X128045Y268024D02*
X123466Y258023D01*
X114375Y262186D01*
X118954Y272187D01*
X128045Y268024D01*
G37*
G36*
X135122Y283481D02*
X130543Y273480D01*
X121452Y277643D01*
X126031Y287644D01*
X135122Y283481D01*
G37*
G36*
X106559Y277276D02*
X102797Y266940D01*
X93401Y270360D01*
X97163Y280696D01*
X106559Y277276D01*
G37*
G36*
X112373Y293251D02*
X108611Y282915D01*
X99215Y286335D01*
X102977Y296671D01*
X112373Y293251D01*
G37*
G36*
X84396Y284794D02*
X81438Y274201D01*
X71808Y276890D01*
X74766Y287483D01*
X84396Y284794D01*
G37*
G36*
X88968Y301168D02*
X86010Y290575D01*
X76380Y293264D01*
X79338Y303857D01*
X88968Y301168D01*
G37*
G36*
X61725Y290560D02*
X59626Y279764D01*
X49811Y281672D01*
X51910Y292468D01*
X61725Y290560D01*
G37*
G36*
X64968Y307247D02*
X62869Y296451D01*
X53054Y298359D01*
X55153Y309155D01*
X64968Y307247D01*
G37*
G36*
X38663Y294516D02*
X37418Y283588D01*
X27483Y284720D01*
X28728Y295648D01*
X38663Y294516D01*
G37*
G36*
X40588Y311406D02*
X39343Y300478D01*
X29408Y301610D01*
X30653Y312538D01*
X40588Y311406D01*
G37*
G36*
X15361Y296644D02*
X14978Y285651D01*
X4985Y286000D01*
X5368Y296993D01*
X15361Y296644D01*
G37*
G36*
X15955Y313634D02*
X15572Y302641D01*
X5579Y302990D01*
X5962Y313983D01*
X15955Y313634D01*
G37*
D13*
X17100Y-51150D02*
X24100Y-51150D01*
X24100Y-57650D02*
X17100Y-57650D01*
X17100Y-64150D02*
X24100Y-64150D01*
X24100Y-70650D02*
X17100Y-70650D01*
X9350Y-78400D02*
X9350Y-85400D01*
X2850Y-85400D02*
X2850Y-78400D01*
X-3650Y-78400D02*
X-3650Y-85400D01*
X-10150Y-85400D02*
X-10150Y-78400D01*
X-17900Y-70650D02*
X-24900Y-70650D01*
X-24900Y-64150D02*
X-17900Y-64150D01*
X-17900Y-57650D02*
X-24900Y-57650D01*
X-24900Y-51150D02*
X-17900Y-51150D01*
X-10150Y-43400D02*
X-10150Y-36400D01*
X-3650Y-36400D02*
X-3650Y-43400D01*
X2850Y-43400D02*
X2850Y-36400D01*
X9350Y-36400D02*
X9350Y-43400D01*
D14*
X-400Y-51400D03*
X-400Y-70400D03*
D15*
X9100Y-60900D03*
X-9900Y-60900D03*
D16*
X-16000Y-207600D03*
X16000Y-207600D03*
D17*
X27400Y-125800D03*
X27400Y-145800D03*
D18*
X-24600Y-101800D03*
X-24600Y-169800D03*
D19*
X-3500Y-15200D03*
X15500Y-15200D03*
X-39100Y-15300D03*
X-20100Y-15300D03*
D20*
X-44000Y-33300D03*
X-44000Y-52300D03*
X-44000Y-66900D03*
X-44000Y-85900D03*
D21*
X15250Y20000D03*
X-15250Y20000D03*
D22*
X-13001Y-265100D03*
X-13001Y-255600D03*
X-13001Y-246100D03*
X13001Y-246100D03*
X13001Y-265100D03*
D19*
X9500Y-299372D03*
X-9500Y-299372D03*
X9900Y-282800D03*
X-9100Y-282800D03*
D23*
X0Y-318350D03*
X6500Y-318350D03*
X13000Y-318350D03*
X-6500Y-318350D03*
X-13000Y-318350D03*
D24*
X36840Y-345600D03*
D25*
X0Y-345600D03*
D24*
X-36840Y-345600D03*
D26*
X-22606Y121496D03*
X254Y121496D03*
X23114Y121496D03*
D27*
X0Y58504D03*
D28*
G36*
X-47458Y194268D02*
X-56438Y203248D01*
X-52846Y206840D01*
X-43866Y197860D01*
X-47458Y194268D01*
G37*
G36*
X-41801Y199925D02*
X-50781Y208905D01*
X-47189Y212497D01*
X-38209Y203517D01*
X-41801Y199925D01*
G37*
G36*
X-36145Y205582D02*
X-45125Y214562D01*
X-41533Y218154D01*
X-32553Y209174D01*
X-36145Y205582D01*
G37*
G36*
X-30488Y211239D02*
X-39468Y220219D01*
X-35876Y223811D01*
X-26896Y214831D01*
X-30488Y211239D01*
G37*
G36*
X-24831Y216896D02*
X-33811Y225876D01*
X-30219Y229468D01*
X-21239Y220488D01*
X-24831Y216896D01*
G37*
G36*
X-19174Y222553D02*
X-28154Y231533D01*
X-24562Y235125D01*
X-15582Y226145D01*
X-19174Y222553D01*
G37*
G36*
X-13517Y228209D02*
X-22497Y237189D01*
X-18905Y240781D01*
X-9925Y231801D01*
X-13517Y228209D01*
G37*
G36*
X-7860Y233866D02*
X-16840Y242846D01*
X-13248Y246438D01*
X-4268Y237458D01*
X-7860Y233866D01*
G37*
D29*
G36*
X7860Y233866D02*
X4268Y237458D01*
X13248Y246438D01*
X16840Y242846D01*
X7860Y233866D01*
G37*
G36*
X13517Y228209D02*
X9925Y231801D01*
X18905Y240781D01*
X22497Y237189D01*
X13517Y228209D01*
G37*
G36*
X19174Y222553D02*
X15582Y226145D01*
X24562Y235125D01*
X28154Y231533D01*
X19174Y222553D01*
G37*
G36*
X24831Y216896D02*
X21239Y220488D01*
X30219Y229468D01*
X33811Y225876D01*
X24831Y216896D01*
G37*
G36*
X30488Y211239D02*
X26896Y214831D01*
X35876Y223811D01*
X39468Y220219D01*
X30488Y211239D01*
G37*
G36*
X36145Y205582D02*
X32553Y209174D01*
X41533Y218154D01*
X45125Y214562D01*
X36145Y205582D01*
G37*
G36*
X41801Y199925D02*
X38209Y203517D01*
X47189Y212497D01*
X50781Y208905D01*
X41801Y199925D01*
G37*
G36*
X47458Y194268D02*
X43866Y197860D01*
X52846Y206840D01*
X56438Y203248D01*
X47458Y194268D01*
G37*
D28*
G36*
X52846Y173160D02*
X43866Y182140D01*
X47458Y185732D01*
X56438Y176752D01*
X52846Y173160D01*
G37*
G36*
X47189Y167503D02*
X38209Y176483D01*
X41801Y180075D01*
X50781Y171095D01*
X47189Y167503D01*
G37*
G36*
X41533Y161846D02*
X32553Y170826D01*
X36145Y174418D01*
X45125Y165438D01*
X41533Y161846D01*
G37*
G36*
X35876Y156189D02*
X26896Y165169D01*
X30488Y168761D01*
X39468Y159781D01*
X35876Y156189D01*
G37*
G36*
X30219Y150532D02*
X21239Y159512D01*
X24831Y163104D01*
X33811Y154124D01*
X30219Y150532D01*
G37*
G36*
X24562Y144875D02*
X15582Y153855D01*
X19174Y157447D01*
X28154Y148467D01*
X24562Y144875D01*
G37*
G36*
X18905Y139219D02*
X9925Y148199D01*
X13517Y151791D01*
X22497Y142811D01*
X18905Y139219D01*
G37*
G36*
X13248Y133562D02*
X4268Y142542D01*
X7860Y146134D01*
X16840Y137154D01*
X13248Y133562D01*
G37*
D29*
G36*
X-13248Y133562D02*
X-16840Y137154D01*
X-7860Y146134D01*
X-4268Y142542D01*
X-13248Y133562D01*
G37*
G36*
X-18905Y139219D02*
X-22497Y142811D01*
X-13517Y151791D01*
X-9925Y148199D01*
X-18905Y139219D01*
G37*
G36*
X-24562Y144875D02*
X-28154Y148467D01*
X-19174Y157447D01*
X-15582Y153855D01*
X-24562Y144875D01*
G37*
G36*
X-30219Y150532D02*
X-33811Y154124D01*
X-24831Y163104D01*
X-21239Y159512D01*
X-30219Y150532D01*
G37*
G36*
X-35876Y156189D02*
X-39468Y159781D01*
X-30488Y168761D01*
X-26896Y165169D01*
X-35876Y156189D01*
G37*
G36*
X-41533Y161846D02*
X-45125Y165438D01*
X-36145Y174418D01*
X-32553Y170826D01*
X-41533Y161846D01*
G37*
G36*
X-47189Y167503D02*
X-50781Y171095D01*
X-41801Y180075D01*
X-38209Y176483D01*
X-47189Y167503D01*
G37*
G36*
X-52846Y173160D02*
X-56438Y176752D01*
X-47458Y185732D01*
X-43866Y182140D01*
X-52846Y173160D01*
G37*
D30*
X12000Y261240D03*
X-13000Y261240D03*
D19*
G36*
X-45322Y255765D02*
X-36130Y264957D01*
X-25524Y254351D01*
X-34716Y245159D01*
X-45322Y255765D01*
G37*
G36*
X-58757Y242329D02*
X-49565Y251521D01*
X-38959Y240915D01*
X-48151Y231723D01*
X-58757Y242329D01*
G37*
G36*
X34786Y244089D02*
X25594Y253281D01*
X36200Y263887D01*
X45392Y254695D01*
X34786Y244089D01*
G37*
G36*
X48221Y230653D02*
X39029Y239845D01*
X49635Y250451D01*
X58827Y241259D01*
X48221Y230653D01*
G37*
D31*
X-150000Y-80000D03*
X-130000Y-80000D03*
X-150000Y-60000D03*
X-130000Y-60000D03*
X-150104Y-124944D03*
X-170104Y-124944D03*
X-150104Y-100880D03*
X-170104Y-100880D03*
D19*
X-86690Y-79050D03*
X-105690Y-79050D03*
X-105690Y-51684D03*
X-86690Y-51684D03*
D31*
X150000Y60000D03*
X130000Y60000D03*
X150000Y80000D03*
X130000Y80000D03*
X151120Y100880D03*
X171120Y100880D03*
X129804Y101370D03*
X109804Y101370D03*
D19*
X109754Y84125D03*
X90754Y84125D03*
X108294Y48222D03*
X89294Y48222D03*
D28*
X-108890Y134120D03*
X-108890Y121420D03*
X-108890Y108720D03*
X-108890Y146820D03*
X-108890Y159520D03*
X-60630Y159520D03*
X-60630Y146820D03*
X-60630Y134120D03*
X-60630Y121420D03*
X-60630Y108720D03*
D20*
X-66360Y-41480D03*
X-66360Y-60480D03*
D32*
X-327940Y2420D03*
X-327940Y17420D03*
X-327940Y-27580D03*
D33*
X-345440Y-49530D03*
X-345440Y39370D03*
D34*
G36*
X346026Y-5881D02*
X355987Y-6752D01*
X355202Y-15717D01*
X345241Y-14846D01*
X346026Y-5881D01*
G37*
G36*
X330087Y-4486D02*
X340048Y-5357D01*
X339263Y-14322D01*
X329302Y-13451D01*
X330087Y-4486D01*
G37*
D35*
G36*
X322684Y-37465D02*
X324166Y-20531D01*
X329644Y-21011D01*
X328162Y-37945D01*
X322684Y-37465D01*
G37*
D34*
G36*
X326514Y-45330D02*
X336475Y-46201D01*
X335690Y-55166D01*
X325729Y-54295D01*
X326514Y-45330D01*
G37*
G36*
X342453Y-46725D02*
X352414Y-47596D01*
X351629Y-56561D01*
X341668Y-55690D01*
X342453Y-46725D01*
G37*
G36*
X341668Y55690D02*
X351629Y56561D01*
X352414Y47596D01*
X342453Y46725D01*
X341668Y55690D01*
G37*
G36*
X325729Y54295D02*
X335690Y55166D01*
X336475Y46201D01*
X326514Y45330D01*
X325729Y54295D01*
G37*
D35*
G36*
X324166Y20531D02*
X322684Y37465D01*
X328162Y37945D01*
X329644Y21011D01*
X324166Y20531D01*
G37*
D34*
G36*
X329302Y13451D02*
X339263Y14322D01*
X340048Y5357D01*
X330087Y4486D01*
X329302Y13451D01*
G37*
G36*
X345241Y14846D02*
X355202Y15717D01*
X355987Y6752D01*
X346026Y5881D01*
X345241Y14846D01*
G37*
D19*
G36*
X63696Y215259D02*
X54504Y224451D01*
X65110Y235057D01*
X74302Y225865D01*
X63696Y215259D01*
G37*
G36*
X77131Y201823D02*
X67939Y211015D01*
X78545Y221621D01*
X87737Y212429D01*
X77131Y201823D01*
G37*
G36*
X-77894Y222272D02*
X-68702Y231464D01*
X-58096Y220858D01*
X-67288Y211666D01*
X-77894Y222272D01*
G37*
G36*
X-91329Y208837D02*
X-82137Y218029D01*
X-71531Y207423D01*
X-80723Y198231D01*
X-91329Y208837D01*
G37*
M02*
