G04 EAGLE Gerber RS-274X export*
G75*
%MOMM*%
%FSLAX34Y34*%
%LPD*%
%INBottom Solder Mask*%
%IPPOS*%
%AMOC8*
5,1,8,0,0,1.08239X$1,22.5*%
G01*
%ADD10R,5.603200X5.603200*%
%ADD11R,0.943200X0.423200*%
%ADD12R,1.303200X1.203200*%
%ADD13R,2.903200X2.903200*%
%ADD14C,0.553200*%
%ADD15C,0.803200*%
%ADD16R,2.203200X5.203200*%
%ADD17R,4.803200X1.203200*%
%ADD18R,3.603200X1.803200*%
%ADD19R,1.503200X1.703200*%
%ADD20R,1.703200X1.503200*%
%ADD21R,2.153200X2.703200*%
%ADD22R,1.403200X0.753200*%
%ADD23R,0.603200X1.653200*%
%ADD24C,1.053200*%
%ADD25R,2.000000X1.700000*%
%ADD26R,2.700000X1.700000*%
%ADD27R,1.701800X2.209800*%
%ADD28R,4.013200X2.209800*%
%ADD29R,1.473200X0.711200*%
%ADD30R,0.711200X1.473200*%
%ADD31R,1.203200X2.003200*%
%ADD32R,1.503200X1.803200*%
%ADD33C,1.103200*%
%ADD34R,1.903200X1.103200*%
%ADD35R,2.743200X1.473200*%
%ADD36R,1.203200X1.103200*%
%ADD37R,1.903200X0.753200*%
%ADD38C,0.555600*%
%ADD39C,0.728200*%


D10*
G36*
X-159280Y39620D02*
X-119660Y0D01*
X-159280Y-39620D01*
X-198900Y0D01*
X-159280Y39620D01*
G37*
D11*
G36*
X-130585Y25703D02*
X-137253Y19035D01*
X-140245Y22027D01*
X-133577Y28695D01*
X-130585Y25703D01*
G37*
G36*
X-127757Y22874D02*
X-134425Y16206D01*
X-137417Y19198D01*
X-130749Y25866D01*
X-127757Y22874D01*
G37*
G36*
X-124928Y20046D02*
X-131596Y13378D01*
X-134588Y16370D01*
X-127920Y23038D01*
X-124928Y20046D01*
G37*
G36*
X-122100Y17218D02*
X-128768Y10550D01*
X-131760Y13542D01*
X-125092Y20210D01*
X-122100Y17218D01*
G37*
G36*
X-119271Y14389D02*
X-125939Y7721D01*
X-128931Y10713D01*
X-122263Y17381D01*
X-119271Y14389D01*
G37*
G36*
X-116443Y11561D02*
X-123111Y4893D01*
X-126103Y7885D01*
X-119435Y14553D01*
X-116443Y11561D01*
G37*
G36*
X-113615Y8732D02*
X-120283Y2064D01*
X-123275Y5056D01*
X-116607Y11724D01*
X-113615Y8732D01*
G37*
G36*
X-110786Y5904D02*
X-117454Y-764D01*
X-120446Y2228D01*
X-113778Y8896D01*
X-110786Y5904D01*
G37*
G36*
X-133414Y28531D02*
X-140082Y21863D01*
X-143074Y24855D01*
X-136406Y31523D01*
X-133414Y28531D01*
G37*
G36*
X-136242Y31360D02*
X-142910Y24692D01*
X-145902Y27684D01*
X-139234Y34352D01*
X-136242Y31360D01*
G37*
G36*
X-139070Y34188D02*
X-145738Y27520D01*
X-148730Y30512D01*
X-142062Y37180D01*
X-139070Y34188D01*
G37*
G36*
X-141899Y37017D02*
X-148567Y30349D01*
X-151559Y33341D01*
X-144891Y40009D01*
X-141899Y37017D01*
G37*
G36*
X-144727Y39845D02*
X-151395Y33177D01*
X-154387Y36169D01*
X-147719Y42837D01*
X-144727Y39845D01*
G37*
G36*
X-147556Y42673D02*
X-154224Y36005D01*
X-157216Y38997D01*
X-150548Y45665D01*
X-147556Y42673D01*
G37*
G36*
X-150384Y45502D02*
X-157052Y38834D01*
X-160044Y41826D01*
X-153376Y48494D01*
X-150384Y45502D01*
G37*
G36*
X-178315Y-22027D02*
X-184983Y-28695D01*
X-187975Y-25703D01*
X-181307Y-19035D01*
X-178315Y-22027D01*
G37*
G36*
X-181143Y-19198D02*
X-187811Y-25866D01*
X-190803Y-22874D01*
X-184135Y-16206D01*
X-181143Y-19198D01*
G37*
G36*
X-183972Y-16370D02*
X-190640Y-23038D01*
X-193632Y-20046D01*
X-186964Y-13378D01*
X-183972Y-16370D01*
G37*
G36*
X-186800Y-13542D02*
X-193468Y-20210D01*
X-196460Y-17218D01*
X-189792Y-10550D01*
X-186800Y-13542D01*
G37*
G36*
X-189629Y-10713D02*
X-196297Y-17381D01*
X-199289Y-14389D01*
X-192621Y-7721D01*
X-189629Y-10713D01*
G37*
G36*
X-192457Y-7885D02*
X-199125Y-14553D01*
X-202117Y-11561D01*
X-195449Y-4893D01*
X-192457Y-7885D01*
G37*
G36*
X-195285Y-5056D02*
X-201953Y-11724D01*
X-204945Y-8732D01*
X-198277Y-2064D01*
X-195285Y-5056D01*
G37*
G36*
X-198114Y-2228D02*
X-204782Y-8896D01*
X-207774Y-5904D01*
X-201106Y764D01*
X-198114Y-2228D01*
G37*
G36*
X-175486Y-24855D02*
X-182154Y-31523D01*
X-185146Y-28531D01*
X-178478Y-21863D01*
X-175486Y-24855D01*
G37*
G36*
X-172658Y-27684D02*
X-179326Y-34352D01*
X-182318Y-31360D01*
X-175650Y-24692D01*
X-172658Y-27684D01*
G37*
G36*
X-169830Y-30512D02*
X-176498Y-37180D01*
X-179490Y-34188D01*
X-172822Y-27520D01*
X-169830Y-30512D01*
G37*
G36*
X-167001Y-33341D02*
X-173669Y-40009D01*
X-176661Y-37017D01*
X-169993Y-30349D01*
X-167001Y-33341D01*
G37*
G36*
X-164173Y-36169D02*
X-170841Y-42837D01*
X-173833Y-39845D01*
X-167165Y-33177D01*
X-164173Y-36169D01*
G37*
G36*
X-161344Y-38997D02*
X-168012Y-45665D01*
X-171004Y-42673D01*
X-164336Y-36005D01*
X-161344Y-38997D01*
G37*
G36*
X-158516Y-41826D02*
X-165184Y-48494D01*
X-168176Y-45502D01*
X-161508Y-38834D01*
X-158516Y-41826D01*
G37*
G36*
X-137253Y-19035D02*
X-130585Y-25703D01*
X-133577Y-28695D01*
X-140245Y-22027D01*
X-137253Y-19035D01*
G37*
G36*
X-140082Y-21863D02*
X-133414Y-28531D01*
X-136406Y-31523D01*
X-143074Y-24855D01*
X-140082Y-21863D01*
G37*
G36*
X-142910Y-24692D02*
X-136242Y-31360D01*
X-139234Y-34352D01*
X-145902Y-27684D01*
X-142910Y-24692D01*
G37*
G36*
X-145738Y-27520D02*
X-139070Y-34188D01*
X-142062Y-37180D01*
X-148730Y-30512D01*
X-145738Y-27520D01*
G37*
G36*
X-148567Y-30349D02*
X-141899Y-37017D01*
X-144891Y-40009D01*
X-151559Y-33341D01*
X-148567Y-30349D01*
G37*
G36*
X-151395Y-33177D02*
X-144727Y-39845D01*
X-147719Y-42837D01*
X-154387Y-36169D01*
X-151395Y-33177D01*
G37*
G36*
X-154224Y-36005D02*
X-147556Y-42673D01*
X-150548Y-45665D01*
X-157216Y-38997D01*
X-154224Y-36005D01*
G37*
G36*
X-157052Y-38834D02*
X-150384Y-45502D01*
X-153376Y-48494D01*
X-160044Y-41826D01*
X-157052Y-38834D01*
G37*
G36*
X-134425Y-16206D02*
X-127757Y-22874D01*
X-130749Y-25866D01*
X-137417Y-19198D01*
X-134425Y-16206D01*
G37*
G36*
X-131596Y-13378D02*
X-124928Y-20046D01*
X-127920Y-23038D01*
X-134588Y-16370D01*
X-131596Y-13378D01*
G37*
G36*
X-128768Y-10550D02*
X-122100Y-17218D01*
X-125092Y-20210D01*
X-131760Y-13542D01*
X-128768Y-10550D01*
G37*
G36*
X-125939Y-7721D02*
X-119271Y-14389D01*
X-122263Y-17381D01*
X-128931Y-10713D01*
X-125939Y-7721D01*
G37*
G36*
X-123111Y-4893D02*
X-116443Y-11561D01*
X-119435Y-14553D01*
X-126103Y-7885D01*
X-123111Y-4893D01*
G37*
G36*
X-120283Y-2064D02*
X-113615Y-8732D01*
X-116607Y-11724D01*
X-123275Y-5056D01*
X-120283Y-2064D01*
G37*
G36*
X-117454Y764D02*
X-110786Y-5904D01*
X-113778Y-8896D01*
X-120446Y-2228D01*
X-117454Y764D01*
G37*
G36*
X-184983Y28695D02*
X-178315Y22027D01*
X-181307Y19035D01*
X-187975Y25703D01*
X-184983Y28695D01*
G37*
G36*
X-182154Y31523D02*
X-175486Y24855D01*
X-178478Y21863D01*
X-185146Y28531D01*
X-182154Y31523D01*
G37*
G36*
X-179326Y34352D02*
X-172658Y27684D01*
X-175650Y24692D01*
X-182318Y31360D01*
X-179326Y34352D01*
G37*
G36*
X-176498Y37180D02*
X-169830Y30512D01*
X-172822Y27520D01*
X-179490Y34188D01*
X-176498Y37180D01*
G37*
G36*
X-173669Y40009D02*
X-167001Y33341D01*
X-169993Y30349D01*
X-176661Y37017D01*
X-173669Y40009D01*
G37*
G36*
X-170841Y42837D02*
X-164173Y36169D01*
X-167165Y33177D01*
X-173833Y39845D01*
X-170841Y42837D01*
G37*
G36*
X-168012Y45665D02*
X-161344Y38997D01*
X-164336Y36005D01*
X-171004Y42673D01*
X-168012Y45665D01*
G37*
G36*
X-165184Y48494D02*
X-158516Y41826D01*
X-161508Y38834D01*
X-168176Y45502D01*
X-165184Y48494D01*
G37*
G36*
X-187811Y25866D02*
X-181143Y19198D01*
X-184135Y16206D01*
X-190803Y22874D01*
X-187811Y25866D01*
G37*
G36*
X-190640Y23038D02*
X-183972Y16370D01*
X-186964Y13378D01*
X-193632Y20046D01*
X-190640Y23038D01*
G37*
G36*
X-193468Y20210D02*
X-186800Y13542D01*
X-189792Y10550D01*
X-196460Y17218D01*
X-193468Y20210D01*
G37*
G36*
X-196297Y17381D02*
X-189629Y10713D01*
X-192621Y7721D01*
X-199289Y14389D01*
X-196297Y17381D01*
G37*
G36*
X-199125Y14553D02*
X-192457Y7885D01*
X-195449Y4893D01*
X-202117Y11561D01*
X-199125Y14553D01*
G37*
G36*
X-201953Y11724D02*
X-195285Y5056D01*
X-198277Y2064D01*
X-204945Y8732D01*
X-201953Y11724D01*
G37*
G36*
X-204782Y8896D02*
X-198114Y2228D01*
X-201106Y-764D01*
X-207774Y5904D01*
X-204782Y8896D01*
G37*
D10*
G36*
X159280Y-39620D02*
X119660Y0D01*
X159280Y39620D01*
X198900Y0D01*
X159280Y-39620D01*
G37*
D11*
G36*
X130585Y-25703D02*
X137253Y-19035D01*
X140245Y-22027D01*
X133577Y-28695D01*
X130585Y-25703D01*
G37*
G36*
X127757Y-22874D02*
X134425Y-16206D01*
X137417Y-19198D01*
X130749Y-25866D01*
X127757Y-22874D01*
G37*
G36*
X124928Y-20046D02*
X131596Y-13378D01*
X134588Y-16370D01*
X127920Y-23038D01*
X124928Y-20046D01*
G37*
G36*
X122100Y-17218D02*
X128768Y-10550D01*
X131760Y-13542D01*
X125092Y-20210D01*
X122100Y-17218D01*
G37*
G36*
X119271Y-14389D02*
X125939Y-7721D01*
X128931Y-10713D01*
X122263Y-17381D01*
X119271Y-14389D01*
G37*
G36*
X116443Y-11561D02*
X123111Y-4893D01*
X126103Y-7885D01*
X119435Y-14553D01*
X116443Y-11561D01*
G37*
G36*
X113615Y-8732D02*
X120283Y-2064D01*
X123275Y-5056D01*
X116607Y-11724D01*
X113615Y-8732D01*
G37*
G36*
X110786Y-5904D02*
X117454Y764D01*
X120446Y-2228D01*
X113778Y-8896D01*
X110786Y-5904D01*
G37*
G36*
X133414Y-28531D02*
X140082Y-21863D01*
X143074Y-24855D01*
X136406Y-31523D01*
X133414Y-28531D01*
G37*
G36*
X136242Y-31360D02*
X142910Y-24692D01*
X145902Y-27684D01*
X139234Y-34352D01*
X136242Y-31360D01*
G37*
G36*
X139070Y-34188D02*
X145738Y-27520D01*
X148730Y-30512D01*
X142062Y-37180D01*
X139070Y-34188D01*
G37*
G36*
X141899Y-37017D02*
X148567Y-30349D01*
X151559Y-33341D01*
X144891Y-40009D01*
X141899Y-37017D01*
G37*
G36*
X144727Y-39845D02*
X151395Y-33177D01*
X154387Y-36169D01*
X147719Y-42837D01*
X144727Y-39845D01*
G37*
G36*
X147556Y-42673D02*
X154224Y-36005D01*
X157216Y-38997D01*
X150548Y-45665D01*
X147556Y-42673D01*
G37*
G36*
X150384Y-45502D02*
X157052Y-38834D01*
X160044Y-41826D01*
X153376Y-48494D01*
X150384Y-45502D01*
G37*
G36*
X178315Y22027D02*
X184983Y28695D01*
X187975Y25703D01*
X181307Y19035D01*
X178315Y22027D01*
G37*
G36*
X181143Y19198D02*
X187811Y25866D01*
X190803Y22874D01*
X184135Y16206D01*
X181143Y19198D01*
G37*
G36*
X183972Y16370D02*
X190640Y23038D01*
X193632Y20046D01*
X186964Y13378D01*
X183972Y16370D01*
G37*
G36*
X186800Y13542D02*
X193468Y20210D01*
X196460Y17218D01*
X189792Y10550D01*
X186800Y13542D01*
G37*
G36*
X189629Y10713D02*
X196297Y17381D01*
X199289Y14389D01*
X192621Y7721D01*
X189629Y10713D01*
G37*
G36*
X192457Y7885D02*
X199125Y14553D01*
X202117Y11561D01*
X195449Y4893D01*
X192457Y7885D01*
G37*
G36*
X195285Y5056D02*
X201953Y11724D01*
X204945Y8732D01*
X198277Y2064D01*
X195285Y5056D01*
G37*
G36*
X198114Y2228D02*
X204782Y8896D01*
X207774Y5904D01*
X201106Y-764D01*
X198114Y2228D01*
G37*
G36*
X175486Y24855D02*
X182154Y31523D01*
X185146Y28531D01*
X178478Y21863D01*
X175486Y24855D01*
G37*
G36*
X172658Y27684D02*
X179326Y34352D01*
X182318Y31360D01*
X175650Y24692D01*
X172658Y27684D01*
G37*
G36*
X169830Y30512D02*
X176498Y37180D01*
X179490Y34188D01*
X172822Y27520D01*
X169830Y30512D01*
G37*
G36*
X167001Y33341D02*
X173669Y40009D01*
X176661Y37017D01*
X169993Y30349D01*
X167001Y33341D01*
G37*
G36*
X164173Y36169D02*
X170841Y42837D01*
X173833Y39845D01*
X167165Y33177D01*
X164173Y36169D01*
G37*
G36*
X161344Y38997D02*
X168012Y45665D01*
X171004Y42673D01*
X164336Y36005D01*
X161344Y38997D01*
G37*
G36*
X158516Y41826D02*
X165184Y48494D01*
X168176Y45502D01*
X161508Y38834D01*
X158516Y41826D01*
G37*
G36*
X137253Y19035D02*
X130585Y25703D01*
X133577Y28695D01*
X140245Y22027D01*
X137253Y19035D01*
G37*
G36*
X140082Y21863D02*
X133414Y28531D01*
X136406Y31523D01*
X143074Y24855D01*
X140082Y21863D01*
G37*
G36*
X142910Y24692D02*
X136242Y31360D01*
X139234Y34352D01*
X145902Y27684D01*
X142910Y24692D01*
G37*
G36*
X145738Y27520D02*
X139070Y34188D01*
X142062Y37180D01*
X148730Y30512D01*
X145738Y27520D01*
G37*
G36*
X148567Y30349D02*
X141899Y37017D01*
X144891Y40009D01*
X151559Y33341D01*
X148567Y30349D01*
G37*
G36*
X151395Y33177D02*
X144727Y39845D01*
X147719Y42837D01*
X154387Y36169D01*
X151395Y33177D01*
G37*
G36*
X154224Y36005D02*
X147556Y42673D01*
X150548Y45665D01*
X157216Y38997D01*
X154224Y36005D01*
G37*
G36*
X157052Y38834D02*
X150384Y45502D01*
X153376Y48494D01*
X160044Y41826D01*
X157052Y38834D01*
G37*
G36*
X134425Y16206D02*
X127757Y22874D01*
X130749Y25866D01*
X137417Y19198D01*
X134425Y16206D01*
G37*
G36*
X131596Y13378D02*
X124928Y20046D01*
X127920Y23038D01*
X134588Y16370D01*
X131596Y13378D01*
G37*
G36*
X128768Y10550D02*
X122100Y17218D01*
X125092Y20210D01*
X131760Y13542D01*
X128768Y10550D01*
G37*
G36*
X125939Y7721D02*
X119271Y14389D01*
X122263Y17381D01*
X128931Y10713D01*
X125939Y7721D01*
G37*
G36*
X123111Y4893D02*
X116443Y11561D01*
X119435Y14553D01*
X126103Y7885D01*
X123111Y4893D01*
G37*
G36*
X120283Y2064D02*
X113615Y8732D01*
X116607Y11724D01*
X123275Y5056D01*
X120283Y2064D01*
G37*
G36*
X117454Y-764D02*
X110786Y5904D01*
X113778Y8896D01*
X120446Y2228D01*
X117454Y-764D01*
G37*
G36*
X184983Y-28695D02*
X178315Y-22027D01*
X181307Y-19035D01*
X187975Y-25703D01*
X184983Y-28695D01*
G37*
G36*
X182154Y-31523D02*
X175486Y-24855D01*
X178478Y-21863D01*
X185146Y-28531D01*
X182154Y-31523D01*
G37*
G36*
X179326Y-34352D02*
X172658Y-27684D01*
X175650Y-24692D01*
X182318Y-31360D01*
X179326Y-34352D01*
G37*
G36*
X176498Y-37180D02*
X169830Y-30512D01*
X172822Y-27520D01*
X179490Y-34188D01*
X176498Y-37180D01*
G37*
G36*
X173669Y-40009D02*
X167001Y-33341D01*
X169993Y-30349D01*
X176661Y-37017D01*
X173669Y-40009D01*
G37*
G36*
X170841Y-42837D02*
X164173Y-36169D01*
X167165Y-33177D01*
X173833Y-39845D01*
X170841Y-42837D01*
G37*
G36*
X168012Y-45665D02*
X161344Y-38997D01*
X164336Y-36005D01*
X171004Y-42673D01*
X168012Y-45665D01*
G37*
G36*
X165184Y-48494D02*
X158516Y-41826D01*
X161508Y-38834D01*
X168176Y-45502D01*
X165184Y-48494D01*
G37*
G36*
X187811Y-25866D02*
X181143Y-19198D01*
X184135Y-16206D01*
X190803Y-22874D01*
X187811Y-25866D01*
G37*
G36*
X190640Y-23038D02*
X183972Y-16370D01*
X186964Y-13378D01*
X193632Y-20046D01*
X190640Y-23038D01*
G37*
G36*
X193468Y-20210D02*
X186800Y-13542D01*
X189792Y-10550D01*
X196460Y-17218D01*
X193468Y-20210D01*
G37*
G36*
X196297Y-17381D02*
X189629Y-10713D01*
X192621Y-7721D01*
X199289Y-14389D01*
X196297Y-17381D01*
G37*
G36*
X199125Y-14553D02*
X192457Y-7885D01*
X195449Y-4893D01*
X202117Y-11561D01*
X199125Y-14553D01*
G37*
G36*
X201953Y-11724D02*
X195285Y-5056D01*
X198277Y-2064D01*
X204945Y-8732D01*
X201953Y-11724D01*
G37*
G36*
X204782Y-8896D02*
X198114Y-2228D01*
X201106Y764D01*
X207774Y-5904D01*
X204782Y-8896D01*
G37*
D12*
G36*
X-9590Y297922D02*
X-8908Y284909D01*
X-20922Y284280D01*
X-21604Y297293D01*
X-9590Y297922D01*
G37*
G36*
X-10480Y314898D02*
X-9798Y301885D01*
X-21812Y301256D01*
X-22494Y314269D01*
X-10480Y314898D01*
G37*
G36*
X-32860Y296261D02*
X-31159Y283341D01*
X-43088Y281771D01*
X-44789Y294691D01*
X-32860Y296261D01*
G37*
G36*
X-35079Y313116D02*
X-33378Y300196D01*
X-45307Y298626D01*
X-47008Y311546D01*
X-35079Y313116D01*
G37*
G36*
X-55931Y292785D02*
X-53221Y280039D01*
X-64989Y277537D01*
X-67699Y290283D01*
X-55931Y292785D01*
G37*
G36*
X-59465Y309414D02*
X-56755Y296668D01*
X-68523Y294166D01*
X-71233Y306912D01*
X-59465Y309414D01*
G37*
G36*
X-78659Y287504D02*
X-74980Y275003D01*
X-86521Y271606D01*
X-90200Y284107D01*
X-78659Y287504D01*
G37*
G36*
X-83458Y303813D02*
X-79779Y291312D01*
X-91320Y287915D01*
X-94999Y300416D01*
X-83458Y303813D01*
G37*
G36*
X-100904Y280473D02*
X-96255Y268299D01*
X-107494Y264007D01*
X-112143Y276181D01*
X-100904Y280473D01*
G37*
G36*
X-106968Y296355D02*
X-102319Y284181D01*
X-113558Y279889D01*
X-118207Y292063D01*
X-106968Y296355D01*
G37*
G36*
X-122531Y271724D02*
X-116941Y259953D01*
X-127809Y254792D01*
X-133399Y266563D01*
X-122531Y271724D01*
G37*
G36*
X-129823Y287081D02*
X-124233Y275310D01*
X-135101Y270149D01*
X-140691Y281920D01*
X-129823Y287081D01*
G37*
G36*
X-143407Y261310D02*
X-136911Y250014D01*
X-147341Y244016D01*
X-153837Y255312D01*
X-143407Y261310D01*
G37*
G36*
X-151881Y276047D02*
X-145385Y264751D01*
X-155815Y258753D01*
X-162311Y270049D01*
X-151881Y276047D01*
G37*
G36*
X-163406Y249296D02*
X-156043Y238544D01*
X-165970Y231746D01*
X-173333Y242498D01*
X-163406Y249296D01*
G37*
G36*
X-173010Y263323D02*
X-165647Y252571D01*
X-175574Y245773D01*
X-182937Y256525D01*
X-173010Y263323D01*
G37*
G36*
X-182400Y235743D02*
X-174234Y225588D01*
X-183610Y218049D01*
X-191776Y228204D01*
X-182400Y235743D01*
G37*
G36*
X-193052Y248991D02*
X-184886Y238836D01*
X-194262Y231297D01*
X-202428Y241452D01*
X-193052Y248991D01*
G37*
G36*
X-200278Y220757D02*
X-191341Y211273D01*
X-200098Y203021D01*
X-209035Y212505D01*
X-200278Y220757D01*
G37*
G36*
X-211937Y233129D02*
X-203000Y223645D01*
X-211757Y215393D01*
X-220694Y224877D01*
X-211937Y233129D01*
G37*
G36*
X-216936Y204428D02*
X-207267Y195691D01*
X-215334Y186764D01*
X-225003Y195501D01*
X-216936Y204428D01*
G37*
G36*
X-229550Y215825D02*
X-219881Y207088D01*
X-227948Y198161D01*
X-237617Y206898D01*
X-229550Y215825D01*
G37*
G36*
X-232261Y186836D02*
X-221937Y178884D01*
X-229279Y169352D01*
X-239603Y177304D01*
X-232261Y186836D01*
G37*
G36*
X-245730Y197209D02*
X-235406Y189257D01*
X-242748Y179725D01*
X-253072Y187677D01*
X-245730Y197209D01*
G37*
G36*
X-246164Y168100D02*
X-235248Y160983D01*
X-241818Y150904D01*
X-252734Y158021D01*
X-246164Y168100D01*
G37*
G36*
X-260405Y177384D02*
X-249489Y170267D01*
X-256059Y160188D01*
X-266975Y167305D01*
X-260405Y177384D01*
G37*
G36*
X-258550Y148326D02*
X-247120Y142067D01*
X-252898Y131514D01*
X-264328Y137773D01*
X-258550Y148326D01*
G37*
G36*
X-273462Y156489D02*
X-262032Y150230D01*
X-267810Y139677D01*
X-279240Y145936D01*
X-273462Y156489D01*
G37*
G36*
X-269360Y127651D02*
X-257474Y122309D01*
X-262406Y111335D01*
X-274292Y116677D01*
X-269360Y127651D01*
G37*
G36*
X-284866Y134619D02*
X-272980Y129277D01*
X-277912Y118303D01*
X-289798Y123645D01*
X-284866Y134619D01*
G37*
G36*
X-278519Y106194D02*
X-266251Y101801D01*
X-270307Y90474D01*
X-282575Y94867D01*
X-278519Y106194D01*
G37*
G36*
X-294524Y111924D02*
X-282256Y107531D01*
X-286312Y96204D01*
X-298580Y100597D01*
X-294524Y111924D01*
G37*
G36*
X-285973Y84085D02*
X-273398Y80669D01*
X-276553Y69059D01*
X-289128Y72475D01*
X-285973Y84085D01*
G37*
G36*
X-302378Y88543D02*
X-289803Y85127D01*
X-292958Y73517D01*
X-305533Y76933D01*
X-302378Y88543D01*
G37*
G36*
X-291675Y61463D02*
X-278871Y59043D01*
X-281105Y47221D01*
X-293909Y49641D01*
X-291675Y61463D01*
G37*
G36*
X-308379Y64620D02*
X-295575Y62200D01*
X-297809Y50378D01*
X-310613Y52798D01*
X-308379Y64620D01*
G37*
G36*
X-295591Y38463D02*
X-282636Y37056D01*
X-283935Y25095D01*
X-296890Y26502D01*
X-295591Y38463D01*
G37*
G36*
X-312491Y40299D02*
X-299536Y38892D01*
X-300835Y26931D01*
X-313790Y28338D01*
X-312491Y40299D01*
G37*
G36*
X-297684Y15224D02*
X-284660Y14815D01*
X-285038Y2790D01*
X-298062Y3199D01*
X-297684Y15224D01*
G37*
G36*
X-314675Y15758D02*
X-301651Y15349D01*
X-302029Y3324D01*
X-315053Y3733D01*
X-314675Y15758D01*
G37*
G36*
X-297965Y-8104D02*
X-284948Y-7490D01*
X-284381Y-19508D01*
X-297398Y-20122D01*
X-297965Y-8104D01*
G37*
G36*
X-314946Y-8905D02*
X-301929Y-8291D01*
X-301362Y-20309D01*
X-314379Y-20923D01*
X-314946Y-8905D01*
G37*
G36*
X-296419Y-31384D02*
X-283491Y-29750D01*
X-281983Y-41686D01*
X-294911Y-43320D01*
X-296419Y-31384D01*
G37*
G36*
X-313285Y-33514D02*
X-300357Y-31880D01*
X-298849Y-43816D01*
X-311777Y-45450D01*
X-313285Y-33514D01*
G37*
G36*
X-293059Y-54470D02*
X-280299Y-51827D01*
X-277859Y-63608D01*
X-290619Y-66251D01*
X-293059Y-54470D01*
G37*
G36*
X-309705Y-57918D02*
X-296945Y-55275D01*
X-294505Y-67056D01*
X-307265Y-69699D01*
X-309705Y-57918D01*
G37*
G36*
X-287902Y-77223D02*
X-275389Y-73587D01*
X-272032Y-85141D01*
X-284545Y-88777D01*
X-287902Y-77223D01*
G37*
G36*
X-304227Y-81966D02*
X-291714Y-78330D01*
X-288357Y-89884D01*
X-300870Y-93520D01*
X-304227Y-81966D01*
G37*
G36*
X-280982Y-99504D02*
X-268793Y-94898D01*
X-264540Y-106152D01*
X-276729Y-110758D01*
X-280982Y-99504D01*
G37*
G36*
X-296885Y-105513D02*
X-284696Y-100907D01*
X-280443Y-112161D01*
X-292632Y-116767D01*
X-296885Y-105513D01*
G37*
G36*
X-272330Y-121174D02*
X-260530Y-115646D01*
X-255426Y-126540D01*
X-267226Y-132068D01*
X-272330Y-121174D01*
G37*
G36*
X-287725Y-128386D02*
X-275925Y-122858D01*
X-270821Y-133752D01*
X-282621Y-139280D01*
X-287725Y-128386D01*
G37*
G36*
X-262021Y-142102D02*
X-250690Y-135665D01*
X-244747Y-146126D01*
X-256078Y-152563D01*
X-262021Y-142102D01*
G37*
G36*
X-276802Y-150499D02*
X-265471Y-144062D01*
X-259528Y-154523D01*
X-270859Y-160960D01*
X-276802Y-150499D01*
G37*
G36*
X-250106Y-162160D02*
X-239316Y-154854D01*
X-232570Y-164816D01*
X-243360Y-172122D01*
X-250106Y-162160D01*
G37*
G36*
X-264183Y-171691D02*
X-253393Y-164385D01*
X-246647Y-174347D01*
X-257437Y-181653D01*
X-264183Y-171691D01*
G37*
G36*
X-236658Y-181225D02*
X-226474Y-173095D01*
X-218968Y-182497D01*
X-229152Y-190627D01*
X-236658Y-181225D01*
G37*
G36*
X-249944Y-191831D02*
X-239760Y-183701D01*
X-232254Y-193103D01*
X-242438Y-201233D01*
X-249944Y-191831D01*
G37*
G36*
X-221761Y-199179D02*
X-212246Y-190276D01*
X-204025Y-199061D01*
X-213540Y-207964D01*
X-221761Y-199179D01*
G37*
G36*
X-234174Y-210794D02*
X-224659Y-201891D01*
X-216438Y-210676D01*
X-225953Y-219579D01*
X-234174Y-210794D01*
G37*
G36*
X-205496Y-215908D02*
X-196692Y-206301D01*
X-187822Y-214430D01*
X-196626Y-224037D01*
X-205496Y-215908D01*
G37*
G36*
X-216981Y-228442D02*
X-208177Y-218835D01*
X-199307Y-226964D01*
X-208111Y-236571D01*
X-216981Y-228442D01*
G37*
G36*
X-187981Y-231319D02*
X-179958Y-221051D01*
X-170477Y-228459D01*
X-178500Y-238727D01*
X-187981Y-231319D01*
G37*
G36*
X-198448Y-244715D02*
X-190425Y-234447D01*
X-180944Y-241855D01*
X-188967Y-252123D01*
X-198448Y-244715D01*
G37*
G36*
X-169316Y-245315D02*
X-162123Y-234448D01*
X-152090Y-241089D01*
X-159283Y-251956D01*
X-169316Y-245315D01*
G37*
G36*
X-178698Y-259491D02*
X-171505Y-248624D01*
X-161472Y-255265D01*
X-168665Y-266132D01*
X-178698Y-259491D01*
G37*
G36*
X-149611Y-257806D02*
X-143293Y-246409D01*
X-132771Y-252242D01*
X-139089Y-263639D01*
X-149611Y-257806D01*
G37*
G36*
X-157853Y-272675D02*
X-151535Y-261278D01*
X-141013Y-267111D01*
X-147331Y-278508D01*
X-157853Y-272675D01*
G37*
G36*
X-128991Y-268719D02*
X-123587Y-256861D01*
X-112639Y-261851D01*
X-118043Y-273709D01*
X-128991Y-268719D01*
G37*
G36*
X-136041Y-284188D02*
X-130637Y-272330D01*
X-119689Y-277320D01*
X-125093Y-289178D01*
X-136041Y-284188D01*
G37*
G36*
X-107580Y-277985D02*
X-103123Y-265740D01*
X-91818Y-269855D01*
X-96275Y-282100D01*
X-107580Y-277985D01*
G37*
G36*
X-113394Y-293960D02*
X-108937Y-281715D01*
X-97632Y-285830D01*
X-102089Y-298075D01*
X-113394Y-293960D01*
G37*
G36*
X96275Y-282100D02*
X91818Y-269855D01*
X103123Y-265740D01*
X107580Y-277985D01*
X96275Y-282100D01*
G37*
G36*
X102089Y-298075D02*
X97632Y-285830D01*
X108937Y-281715D01*
X113394Y-293960D01*
X102089Y-298075D01*
G37*
G36*
X118179Y-273647D02*
X112775Y-261789D01*
X123723Y-256799D01*
X129127Y-268657D01*
X118179Y-273647D01*
G37*
G36*
X125229Y-289116D02*
X119825Y-277258D01*
X130773Y-272268D01*
X136177Y-284126D01*
X125229Y-289116D01*
G37*
G36*
X139351Y-263494D02*
X133033Y-252097D01*
X143555Y-246264D01*
X149873Y-257661D01*
X139351Y-263494D01*
G37*
G36*
X147593Y-278363D02*
X141275Y-266966D01*
X151797Y-261133D01*
X158115Y-272530D01*
X147593Y-278363D01*
G37*
G36*
X159660Y-251718D02*
X152448Y-240864D01*
X162468Y-234206D01*
X169680Y-245060D01*
X159660Y-251718D01*
G37*
G36*
X169068Y-265878D02*
X161856Y-255024D01*
X171876Y-248366D01*
X179088Y-259220D01*
X169068Y-265878D01*
G37*
G36*
X178976Y-238369D02*
X170935Y-228115D01*
X180402Y-220691D01*
X188443Y-230945D01*
X178976Y-238369D01*
G37*
G36*
X189466Y-251747D02*
X181425Y-241493D01*
X190892Y-234069D01*
X198933Y-244323D01*
X189466Y-251747D01*
G37*
G36*
X197177Y-223531D02*
X188373Y-213924D01*
X197243Y-205795D01*
X206047Y-215402D01*
X197177Y-223531D01*
G37*
G36*
X208662Y-236065D02*
X199858Y-226458D01*
X208728Y-218329D01*
X217532Y-227936D01*
X208662Y-236065D01*
G37*
G36*
X214163Y-207327D02*
X204617Y-198457D01*
X212807Y-189643D01*
X222353Y-198513D01*
X214163Y-207327D01*
G37*
G36*
X226617Y-218899D02*
X217071Y-210029D01*
X225261Y-201215D01*
X234807Y-210085D01*
X226617Y-218899D01*
G37*
G36*
X229816Y-189827D02*
X219604Y-181732D01*
X227078Y-172303D01*
X237290Y-180398D01*
X229816Y-189827D01*
G37*
G36*
X243138Y-200386D02*
X232926Y-192291D01*
X240400Y-182862D01*
X250612Y-190957D01*
X243138Y-200386D01*
G37*
G36*
X244042Y-171148D02*
X233227Y-163880D01*
X239938Y-153894D01*
X250753Y-161162D01*
X244042Y-171148D01*
G37*
G36*
X258153Y-180629D02*
X247338Y-173361D01*
X254049Y-163375D01*
X264864Y-170643D01*
X258153Y-180629D01*
G37*
G36*
X256755Y-151407D02*
X245402Y-145010D01*
X251309Y-134529D01*
X262662Y-140926D01*
X256755Y-151407D01*
G37*
G36*
X271566Y-159752D02*
X260213Y-153355D01*
X266120Y-142874D01*
X277473Y-149271D01*
X271566Y-159752D01*
G37*
G36*
X267875Y-130728D02*
X256055Y-125241D01*
X261121Y-114328D01*
X272941Y-119815D01*
X267875Y-130728D01*
G37*
G36*
X283294Y-137886D02*
X271474Y-132399D01*
X276540Y-121486D01*
X288360Y-126973D01*
X283294Y-137886D01*
G37*
G36*
X277341Y-109244D02*
X265119Y-104723D01*
X269293Y-93440D01*
X281515Y-97961D01*
X277341Y-109244D01*
G37*
G36*
X293285Y-115142D02*
X281063Y-110621D01*
X285237Y-99338D01*
X297459Y-103859D01*
X293285Y-115142D01*
G37*
G36*
X285077Y-87076D02*
X272539Y-83528D01*
X275815Y-71952D01*
X288353Y-75500D01*
X285077Y-87076D01*
G37*
G36*
X301435Y-91704D02*
X288897Y-88156D01*
X292173Y-76580D01*
X304711Y-80128D01*
X301435Y-91704D01*
G37*
G36*
X291045Y-64368D02*
X278267Y-61814D01*
X280625Y-50016D01*
X293403Y-52570D01*
X291045Y-64368D01*
G37*
G36*
X307715Y-67699D02*
X294937Y-65145D01*
X297295Y-53347D01*
X310073Y-55901D01*
X307715Y-67699D01*
G37*
G36*
X295206Y-41260D02*
X282267Y-39717D01*
X283692Y-27770D01*
X296631Y-29313D01*
X295206Y-41260D01*
G37*
G36*
X312087Y-43273D02*
X299148Y-41730D01*
X300573Y-29783D01*
X313512Y-31326D01*
X312087Y-43273D01*
G37*
G36*
X297537Y-17896D02*
X284516Y-17373D01*
X284999Y-5352D01*
X298020Y-5875D01*
X297537Y-17896D01*
G37*
G36*
X314523Y-18578D02*
X301502Y-18055D01*
X301985Y-6034D01*
X315006Y-6557D01*
X314523Y-18578D01*
G37*
G36*
X298021Y5579D02*
X284999Y5079D01*
X284537Y17101D01*
X297559Y17601D01*
X298021Y5579D01*
G37*
G36*
X315009Y6231D02*
X301987Y5731D01*
X301525Y17753D01*
X314547Y18253D01*
X315009Y6231D01*
G37*
G36*
X296667Y29016D02*
X283728Y27473D01*
X282303Y39420D01*
X295242Y40963D01*
X296667Y29016D01*
G37*
G36*
X313547Y31028D02*
X300608Y29485D01*
X299183Y41432D01*
X312122Y42975D01*
X313547Y31028D01*
G37*
G36*
X293450Y52278D02*
X280667Y49746D01*
X278330Y61548D01*
X291113Y64080D01*
X293450Y52278D01*
G37*
G36*
X310126Y55580D02*
X297343Y53048D01*
X295006Y64850D01*
X307789Y67382D01*
X310126Y55580D01*
G37*
G36*
X288423Y75212D02*
X275879Y71686D01*
X272623Y83268D01*
X285167Y86794D01*
X288423Y75212D01*
G37*
G36*
X304789Y79812D02*
X292245Y76286D01*
X288989Y87868D01*
X301533Y91394D01*
X304789Y79812D01*
G37*
G36*
X281619Y97681D02*
X269397Y93160D01*
X265223Y104443D01*
X277445Y108964D01*
X281619Y97681D01*
G37*
G36*
X297563Y103578D02*
X285341Y99057D01*
X281167Y110340D01*
X293389Y114861D01*
X297563Y103578D01*
G37*
G36*
X273055Y119542D02*
X261226Y114076D01*
X256179Y124998D01*
X268008Y130464D01*
X273055Y119542D01*
G37*
G36*
X288487Y126673D02*
X276658Y121207D01*
X271611Y132129D01*
X283440Y137595D01*
X288487Y126673D01*
G37*
G36*
X262809Y140665D02*
X251456Y134268D01*
X245549Y144749D01*
X256902Y151146D01*
X262809Y140665D01*
G37*
G36*
X277620Y149011D02*
X266267Y142614D01*
X260360Y153095D01*
X271713Y159492D01*
X277620Y149011D01*
G37*
G36*
X250910Y160910D02*
X240081Y153660D01*
X233388Y163658D01*
X244217Y170908D01*
X250910Y160910D01*
G37*
G36*
X265036Y170367D02*
X254207Y163117D01*
X247514Y173115D01*
X258343Y180365D01*
X265036Y170367D01*
G37*
G36*
X237465Y180160D02*
X227238Y172083D01*
X219781Y181524D01*
X230008Y189601D01*
X237465Y180160D01*
G37*
G36*
X250806Y190696D02*
X240579Y182619D01*
X233122Y192060D01*
X243349Y200137D01*
X250806Y190696D01*
G37*
G36*
X222557Y198294D02*
X213011Y189424D01*
X204821Y198238D01*
X214367Y207108D01*
X222557Y198294D01*
G37*
G36*
X235010Y209866D02*
X225464Y200996D01*
X217274Y209810D01*
X226820Y218680D01*
X235010Y209866D01*
G37*
G36*
X206257Y215195D02*
X197436Y205603D01*
X188581Y213747D01*
X197402Y223339D01*
X206257Y215195D01*
G37*
G36*
X217764Y227709D02*
X208943Y218117D01*
X200088Y226261D01*
X208909Y235853D01*
X217764Y227709D01*
G37*
G36*
X188679Y230760D02*
X180638Y220506D01*
X171171Y227930D01*
X179212Y238184D01*
X188679Y230760D01*
G37*
G36*
X199168Y244138D02*
X191127Y233884D01*
X181660Y241308D01*
X189701Y251562D01*
X199168Y244138D01*
G37*
G36*
X169930Y244895D02*
X162718Y234041D01*
X152698Y240699D01*
X159910Y251553D01*
X169930Y244895D01*
G37*
G36*
X179337Y259054D02*
X172125Y248200D01*
X162105Y254858D01*
X169317Y265712D01*
X179337Y259054D01*
G37*
G36*
X150126Y257508D02*
X143788Y246122D01*
X133276Y251974D01*
X139614Y263360D01*
X150126Y257508D01*
G37*
G36*
X158394Y272362D02*
X152056Y260976D01*
X141544Y266828D01*
X147882Y278214D01*
X158394Y272362D01*
G37*
G36*
X129392Y268525D02*
X123967Y256677D01*
X113028Y261685D01*
X118453Y273533D01*
X129392Y268525D01*
G37*
G36*
X136469Y283982D02*
X131044Y272134D01*
X120105Y277142D01*
X125530Y288990D01*
X136469Y283982D01*
G37*
G36*
X107861Y277883D02*
X103404Y265638D01*
X92099Y269753D01*
X96556Y281998D01*
X107861Y277883D01*
G37*
G36*
X113675Y293858D02*
X109218Y281613D01*
X97913Y285728D01*
X102370Y297973D01*
X113675Y293858D01*
G37*
G36*
X85648Y285500D02*
X82144Y272949D01*
X70556Y276184D01*
X74060Y288735D01*
X85648Y285500D01*
G37*
G36*
X90220Y301874D02*
X86716Y289323D01*
X75128Y292558D01*
X78632Y305109D01*
X90220Y301874D01*
G37*
G36*
X62916Y291364D02*
X60430Y278572D01*
X48620Y280868D01*
X51106Y293660D01*
X62916Y291364D01*
G37*
G36*
X66159Y308051D02*
X63673Y295259D01*
X51863Y297555D01*
X54349Y310347D01*
X66159Y308051D01*
G37*
G36*
X39787Y295411D02*
X38312Y282463D01*
X26359Y283825D01*
X27834Y296773D01*
X39787Y295411D01*
G37*
G36*
X41712Y312301D02*
X40237Y299353D01*
X28284Y300715D01*
X29759Y313663D01*
X41712Y312301D01*
G37*
G36*
X16412Y297624D02*
X15957Y284601D01*
X3934Y285020D01*
X4389Y298043D01*
X16412Y297624D01*
G37*
G36*
X17006Y314614D02*
X16551Y301591D01*
X4528Y302010D01*
X4983Y315033D01*
X17006Y314614D01*
G37*
D13*
X-400Y-60900D03*
D14*
X17100Y-51150D02*
X24100Y-51150D01*
X24100Y-57650D02*
X17100Y-57650D01*
X17100Y-64150D02*
X24100Y-64150D01*
X24100Y-70650D02*
X17100Y-70650D01*
X9350Y-78400D02*
X9350Y-85400D01*
X2850Y-85400D02*
X2850Y-78400D01*
X-3650Y-78400D02*
X-3650Y-85400D01*
X-10150Y-85400D02*
X-10150Y-78400D01*
X-17900Y-70650D02*
X-24900Y-70650D01*
X-24900Y-64150D02*
X-17900Y-64150D01*
X-17900Y-57650D02*
X-24900Y-57650D01*
X-24900Y-51150D02*
X-17900Y-51150D01*
X-10150Y-43400D02*
X-10150Y-36400D01*
X-3650Y-36400D02*
X-3650Y-43400D01*
X2850Y-43400D02*
X2850Y-36400D01*
X9350Y-36400D02*
X9350Y-43400D01*
D15*
X-400Y-60900D03*
X8600Y-51900D03*
X-9400Y-51900D03*
X-9400Y-69900D03*
X8600Y-69900D03*
D16*
X-16000Y-207600D03*
X16000Y-207600D03*
D17*
X27400Y-125800D03*
X27400Y-145800D03*
D18*
X-24600Y-101800D03*
X-24600Y-169800D03*
D19*
X-3500Y-15200D03*
X15500Y-15200D03*
X-39100Y-15300D03*
X-20100Y-15300D03*
D20*
X-44000Y-33300D03*
X-44000Y-52300D03*
X-44000Y-66900D03*
X-44000Y-85900D03*
D21*
X15250Y20000D03*
X-15250Y20000D03*
D22*
X-13001Y-265100D03*
X-13001Y-255600D03*
X-13001Y-246100D03*
X13001Y-246100D03*
X13001Y-265100D03*
D19*
X9500Y-299372D03*
X-9500Y-299372D03*
X9900Y-282800D03*
X-9100Y-282800D03*
D23*
X0Y-318350D03*
X6500Y-318350D03*
X13000Y-318350D03*
X-6500Y-318350D03*
X-13000Y-318350D03*
D24*
X19000Y-323600D03*
X-19000Y-323600D03*
D25*
X36840Y-345600D03*
X-36840Y-345600D03*
D26*
X0Y-345600D03*
D27*
X-22606Y121496D03*
X254Y121496D03*
X23114Y121496D03*
D28*
X0Y58504D03*
D29*
G36*
X-47458Y192831D02*
X-57875Y203248D01*
X-52846Y208277D01*
X-42429Y197860D01*
X-47458Y192831D01*
G37*
G36*
X-41801Y198488D02*
X-52218Y208905D01*
X-47189Y213934D01*
X-36772Y203517D01*
X-41801Y198488D01*
G37*
G36*
X-36145Y204145D02*
X-46562Y214562D01*
X-41533Y219591D01*
X-31116Y209174D01*
X-36145Y204145D01*
G37*
G36*
X-30488Y209802D02*
X-40905Y220219D01*
X-35876Y225248D01*
X-25459Y214831D01*
X-30488Y209802D01*
G37*
G36*
X-24831Y215459D02*
X-35248Y225876D01*
X-30219Y230905D01*
X-19802Y220488D01*
X-24831Y215459D01*
G37*
G36*
X-19174Y221116D02*
X-29591Y231533D01*
X-24562Y236562D01*
X-14145Y226145D01*
X-19174Y221116D01*
G37*
G36*
X-13517Y226772D02*
X-23934Y237189D01*
X-18905Y242218D01*
X-8488Y231801D01*
X-13517Y226772D01*
G37*
G36*
X-7860Y232429D02*
X-18277Y242846D01*
X-13248Y247875D01*
X-2831Y237458D01*
X-7860Y232429D01*
G37*
D30*
G36*
X7860Y232429D02*
X2831Y237458D01*
X13248Y247875D01*
X18277Y242846D01*
X7860Y232429D01*
G37*
G36*
X13517Y226772D02*
X8488Y231801D01*
X18905Y242218D01*
X23934Y237189D01*
X13517Y226772D01*
G37*
G36*
X19174Y221116D02*
X14145Y226145D01*
X24562Y236562D01*
X29591Y231533D01*
X19174Y221116D01*
G37*
G36*
X24831Y215459D02*
X19802Y220488D01*
X30219Y230905D01*
X35248Y225876D01*
X24831Y215459D01*
G37*
G36*
X30488Y209802D02*
X25459Y214831D01*
X35876Y225248D01*
X40905Y220219D01*
X30488Y209802D01*
G37*
G36*
X36145Y204145D02*
X31116Y209174D01*
X41533Y219591D01*
X46562Y214562D01*
X36145Y204145D01*
G37*
G36*
X41801Y198488D02*
X36772Y203517D01*
X47189Y213934D01*
X52218Y208905D01*
X41801Y198488D01*
G37*
G36*
X47458Y192831D02*
X42429Y197860D01*
X52846Y208277D01*
X57875Y203248D01*
X47458Y192831D01*
G37*
D29*
G36*
X52846Y171723D02*
X42429Y182140D01*
X47458Y187169D01*
X57875Y176752D01*
X52846Y171723D01*
G37*
G36*
X47189Y166066D02*
X36772Y176483D01*
X41801Y181512D01*
X52218Y171095D01*
X47189Y166066D01*
G37*
G36*
X41533Y160409D02*
X31116Y170826D01*
X36145Y175855D01*
X46562Y165438D01*
X41533Y160409D01*
G37*
G36*
X35876Y154752D02*
X25459Y165169D01*
X30488Y170198D01*
X40905Y159781D01*
X35876Y154752D01*
G37*
G36*
X30219Y149095D02*
X19802Y159512D01*
X24831Y164541D01*
X35248Y154124D01*
X30219Y149095D01*
G37*
G36*
X24562Y143438D02*
X14145Y153855D01*
X19174Y158884D01*
X29591Y148467D01*
X24562Y143438D01*
G37*
G36*
X18905Y137782D02*
X8488Y148199D01*
X13517Y153228D01*
X23934Y142811D01*
X18905Y137782D01*
G37*
G36*
X13248Y132125D02*
X2831Y142542D01*
X7860Y147571D01*
X18277Y137154D01*
X13248Y132125D01*
G37*
D30*
G36*
X-13248Y132125D02*
X-18277Y137154D01*
X-7860Y147571D01*
X-2831Y142542D01*
X-13248Y132125D01*
G37*
G36*
X-18905Y137782D02*
X-23934Y142811D01*
X-13517Y153228D01*
X-8488Y148199D01*
X-18905Y137782D01*
G37*
G36*
X-24562Y143438D02*
X-29591Y148467D01*
X-19174Y158884D01*
X-14145Y153855D01*
X-24562Y143438D01*
G37*
G36*
X-30219Y149095D02*
X-35248Y154124D01*
X-24831Y164541D01*
X-19802Y159512D01*
X-30219Y149095D01*
G37*
G36*
X-35876Y154752D02*
X-40905Y159781D01*
X-30488Y170198D01*
X-25459Y165169D01*
X-35876Y154752D01*
G37*
G36*
X-41533Y160409D02*
X-46562Y165438D01*
X-36145Y175855D01*
X-31116Y170826D01*
X-41533Y160409D01*
G37*
G36*
X-47189Y166066D02*
X-52218Y171095D01*
X-41801Y181512D01*
X-36772Y176483D01*
X-47189Y166066D01*
G37*
G36*
X-52846Y171723D02*
X-57875Y176752D01*
X-47458Y187169D01*
X-42429Y182140D01*
X-52846Y171723D01*
G37*
D31*
X12000Y261240D03*
X-13000Y261240D03*
D19*
G36*
X-46759Y255765D02*
X-36130Y266394D01*
X-24087Y254351D01*
X-34716Y243722D01*
X-46759Y255765D01*
G37*
G36*
X-60194Y242329D02*
X-49565Y252958D01*
X-37522Y240915D01*
X-48151Y230286D01*
X-60194Y242329D01*
G37*
G36*
X34786Y242652D02*
X24157Y253281D01*
X36200Y265324D01*
X46829Y254695D01*
X34786Y242652D01*
G37*
G36*
X48221Y229216D02*
X37592Y239845D01*
X49635Y251888D01*
X60264Y241259D01*
X48221Y229216D01*
G37*
D32*
X-150000Y-80000D03*
X-130000Y-80000D03*
X-150000Y-60000D03*
X-130000Y-60000D03*
X-150104Y-124944D03*
X-170104Y-124944D03*
X-150104Y-100880D03*
X-170104Y-100880D03*
D19*
X-86690Y-79050D03*
X-105690Y-79050D03*
X-105690Y-51684D03*
X-86690Y-51684D03*
D32*
X150000Y60000D03*
X130000Y60000D03*
X150000Y80000D03*
X130000Y80000D03*
X151120Y100880D03*
X171120Y100880D03*
X129804Y101370D03*
X109804Y101370D03*
D19*
X109754Y84125D03*
X90754Y84125D03*
X108294Y48222D03*
X89294Y48222D03*
D29*
X-108890Y134120D03*
X-108890Y121420D03*
X-108890Y108720D03*
X-108890Y146820D03*
X-108890Y159520D03*
X-60630Y159520D03*
X-60630Y146820D03*
X-60630Y134120D03*
X-60630Y121420D03*
X-60630Y108720D03*
D20*
X-66360Y-41480D03*
X-66360Y-60480D03*
D33*
X-345440Y-20080D03*
X-345440Y9920D03*
D34*
X-327940Y2420D03*
X-327940Y17420D03*
X-327940Y-27580D03*
D35*
X-345440Y-49530D03*
X-345440Y39370D03*
D36*
G36*
X345102Y-4780D02*
X357087Y-5829D01*
X356126Y-16818D01*
X344141Y-15769D01*
X345102Y-4780D01*
G37*
G36*
X329163Y-3385D02*
X341148Y-4434D01*
X340187Y-15423D01*
X328202Y-14374D01*
X329163Y-3385D01*
G37*
D37*
G36*
X321583Y-38389D02*
X323242Y-19430D01*
X330745Y-20087D01*
X329086Y-39046D01*
X321583Y-38389D01*
G37*
D36*
G36*
X325590Y-44229D02*
X337575Y-45278D01*
X336614Y-56267D01*
X324629Y-55218D01*
X325590Y-44229D01*
G37*
G36*
X341529Y-45624D02*
X353514Y-46673D01*
X352553Y-57662D01*
X340568Y-56613D01*
X341529Y-45624D01*
G37*
G36*
X340568Y56613D02*
X352553Y57662D01*
X353514Y46673D01*
X341529Y45624D01*
X340568Y56613D01*
G37*
G36*
X324629Y55218D02*
X336614Y56267D01*
X337575Y45278D01*
X325590Y44229D01*
X324629Y55218D01*
G37*
D37*
G36*
X323242Y19430D02*
X321583Y38389D01*
X329086Y39046D01*
X330745Y20087D01*
X323242Y19430D01*
G37*
D36*
G36*
X328202Y14374D02*
X340187Y15423D01*
X341148Y4434D01*
X329163Y3385D01*
X328202Y14374D01*
G37*
G36*
X344141Y15769D02*
X356126Y16818D01*
X357087Y5829D01*
X345102Y4780D01*
X344141Y15769D01*
G37*
D19*
G36*
X63696Y213822D02*
X53067Y224451D01*
X65110Y236494D01*
X75739Y225865D01*
X63696Y213822D01*
G37*
G36*
X77131Y200386D02*
X66502Y211015D01*
X78545Y223058D01*
X89174Y212429D01*
X77131Y200386D01*
G37*
G36*
X-79331Y222272D02*
X-68702Y232901D01*
X-56659Y220858D01*
X-67288Y210229D01*
X-79331Y222272D01*
G37*
G36*
X-92766Y208837D02*
X-82137Y219466D01*
X-70094Y207423D01*
X-80723Y196794D01*
X-92766Y208837D01*
G37*
D38*
X-17321Y331742D03*
X-89878Y10706D03*
X-81218Y9613D03*
X10062Y339092D03*
X-316738Y121004D03*
X-248920Y150114D03*
X-294652Y169397D03*
X-189484Y-221234D03*
X-217230Y-247228D03*
X-223754Y-254780D03*
X-63864Y237665D03*
X-59690Y201422D03*
X-88404Y329249D03*
X-230433Y-86325D03*
X-159512Y-52578D03*
X-157988Y-137922D03*
X-181574Y-67658D03*
X-319246Y-120734D03*
X-176561Y-79707D03*
X-79502Y-35560D03*
X-59182Y327406D03*
X-55663Y341098D03*
X-328424Y53691D03*
X-157480Y-293116D03*
X-164117Y-304918D03*
X-221234Y188976D03*
X-260581Y228801D03*
X-221996Y-188468D03*
X-260748Y-228612D03*
X-188031Y-163688D03*
X-192302Y169256D03*
X-141732Y205232D03*
X-145835Y210860D03*
X-342687Y55764D03*
X8890Y205486D03*
X5588Y345948D03*
X-140970Y-91440D03*
X-183134Y-101854D03*
X-299024Y-174281D03*
X-54864Y-67564D03*
X-214376Y-271018D03*
X-114554Y54102D03*
X-61822Y29686D03*
X-55126Y-36271D03*
X-106936Y315048D03*
X-114046Y335280D03*
X-332730Y-9927D03*
X-123444Y-309118D03*
X-131090Y-328995D03*
X-194056Y217170D03*
X-175260Y177800D03*
X-88392Y90170D03*
X-242733Y257765D03*
X-245364Y-156210D03*
X-294582Y-196598D03*
X-355854Y-10922D03*
X-161290Y-190500D03*
X-109807Y-127157D03*
X-242711Y-257677D03*
X-148332Y-156222D03*
X-142752Y-161294D03*
X-201791Y-55452D03*
X-341727Y-93026D03*
X0Y183388D03*
X-95956Y-111338D03*
X-36801Y-142502D03*
X-20364Y-81343D03*
X0Y94234D03*
X-68115Y67267D03*
X-179696Y-49531D03*
X-147179Y298519D03*
X-140550Y285327D03*
X-328168Y-53594D03*
X-313541Y-50691D03*
X-65184Y-326408D03*
X-62266Y-311685D03*
X-153162Y247904D03*
X-166753Y269798D03*
X-267462Y-115824D03*
X-289575Y-130015D03*
X-205232Y142240D03*
X-258005Y186033D03*
X-123444Y-216916D03*
X-75946Y-149860D03*
X-111085Y-223224D03*
X-141013Y-285074D03*
X-209296Y-9652D03*
X-317385Y-9479D03*
X-54356Y153670D03*
X-102606Y301065D03*
X-52070Y114554D03*
X-69596Y152654D03*
X-23368Y-25654D03*
X-140050Y-127909D03*
X-94210Y-164807D03*
X-179578Y-62992D03*
X-298958Y-106680D03*
X-194339Y270049D03*
X-183991Y252610D03*
X-324124Y-76315D03*
X-304112Y-72075D03*
X-33591Y-331234D03*
X-31714Y-311082D03*
X-115824Y267462D03*
X-126611Y285759D03*
X-282702Y-69850D03*
X-228854Y100076D03*
X-280224Y138462D03*
X-73152Y-239014D03*
X-91234Y-298993D03*
X-206502Y34798D03*
X-308481Y50269D03*
X-75946Y114300D03*
X-92757Y139923D03*
X-4318Y136906D03*
X-168271Y263335D03*
X-17780Y-156718D03*
X-43688Y1524D03*
X-308548Y-49891D03*
X-181864Y-40386D03*
X-219370Y250266D03*
X-196396Y224460D03*
X-306988Y-128656D03*
X-275524Y-115624D03*
X-71628Y281940D03*
X-68589Y292283D03*
X-289707Y-28619D03*
X-300482Y-29464D03*
X-42588Y-294235D03*
X-244515Y49477D03*
X-294894Y69596D03*
X-212276Y43227D03*
X-195072Y76200D03*
X-201930Y78232D03*
X-124714Y111506D03*
X-215392Y214376D03*
X9906Y43688D03*
X-11430Y42672D03*
X-22352Y37592D03*
X-150216Y259422D03*
X-59078Y-294466D03*
X-26670Y-138684D03*
X-185928Y-43434D03*
X-292608Y-76200D03*
X-257554Y210569D03*
X-209383Y171957D03*
X-283180Y-174905D03*
X-230688Y-141612D03*
X19304Y287274D03*
X18272Y272812D03*
X-290740Y19588D03*
X-249174Y11176D03*
X-75184Y-281686D03*
X-70129Y-261463D03*
X-169926Y122428D03*
X-215314Y164026D03*
X-35052Y-206502D03*
X-44280Y-267449D03*
X-150368Y74930D03*
X-142341Y108326D03*
X-108712Y82804D03*
X-82720Y106999D03*
X-53080Y68372D03*
X-254Y8890D03*
X-68580Y-105918D03*
X-143361Y-229625D03*
X-189484Y-39624D03*
X-264946Y-56583D03*
X-270049Y18024D03*
X-282806Y175162D03*
X-225430Y140246D03*
X-257956Y-210390D03*
X-283252Y67224D03*
X-258169Y61515D03*
X-110236Y-269748D03*
X-99811Y-244581D03*
X0Y264160D03*
X-137751Y158218D03*
X-174403Y199757D03*
X-78846Y-193968D03*
X-157148Y64092D03*
X-136057Y55520D03*
X-127306Y72554D03*
X-75546Y42670D03*
X-101092Y-68580D03*
X-30258Y-64362D03*
X-54518Y-46735D03*
X-247650Y-31750D03*
X-262673Y-25692D03*
X-187706Y-48006D03*
X-256540Y-65278D03*
X-244856Y99822D03*
X-205001Y-166598D03*
X-95250Y17780D03*
X-179166Y42747D03*
X-235712Y-235458D03*
X-124206Y-127000D03*
X-144931Y-147158D03*
X-194891Y-195752D03*
X-237216Y-79083D03*
X-168656Y-55880D03*
X-160958Y75533D03*
X-303013Y136672D03*
X-269240Y111252D03*
X-78992Y189983D03*
X-68400Y164413D03*
X-57658Y250444D03*
X-43434Y186690D03*
X-73581Y176922D03*
X-190787Y-62922D03*
X-30734Y306832D03*
X-32777Y327277D03*
X-66441Y314498D03*
X-95250Y293878D03*
X-74152Y248242D03*
X-247896Y75299D03*
X-319772Y96418D03*
X-102362Y290830D03*
X-78978Y219428D03*
X-232388Y29202D03*
X-326258Y41890D03*
X-139954Y274828D03*
X-323382Y32844D03*
X-98298Y200406D03*
X-229616Y19812D03*
X-167186Y-292005D03*
X-149860Y-249428D03*
X-145851Y271889D03*
X-28778Y-221450D03*
X-42926Y-335322D03*
X-104140Y195580D03*
X-105805Y-267184D03*
X-114554Y-308610D03*
X-180086Y248158D03*
X-199411Y288270D03*
X-349795Y22533D03*
X-307804Y20578D03*
X-307340Y-30480D03*
X-348792Y-34762D03*
X-105779Y-311516D03*
X-112857Y-331855D03*
X-64811Y-272417D03*
X-73928Y-312650D03*
X-199898Y234696D03*
X-136982Y169144D03*
X-139114Y-168465D03*
X-210058Y-244094D03*
X-205994Y229616D03*
X-228854Y255016D03*
X-315722Y132080D03*
X-278130Y116078D03*
X-239856Y137602D03*
X-200130Y189000D03*
X-220980Y215646D03*
X-252222Y176276D03*
X-244602Y136144D03*
X-233017Y156324D03*
X-29290Y293361D03*
X-24614Y250165D03*
X-247142Y172720D03*
X-23947Y286299D03*
X-19587Y244923D03*
X-265430Y156464D03*
X-31182Y235965D03*
X-35717Y277331D03*
X-277876Y133604D03*
X-248158Y117348D03*
X-225552Y156464D03*
X-84836Y-296418D03*
X-22606Y-75946D03*
X-71628Y-31750D03*
X-32655Y138D03*
X-293624Y94488D03*
X-241112Y77750D03*
X-300228Y70866D03*
X-239777Y53793D03*
X-305308Y44704D03*
X-235325Y34495D03*
X-119685Y-220915D03*
X-101187Y-185624D03*
X-299974Y23368D03*
X-255778Y21082D03*
X-232410Y-109220D03*
X-79996Y-232370D03*
X-67147Y-194324D03*
X-303276Y17526D03*
X-259842Y13970D03*
X-220726Y-135890D03*
X-209578Y-128287D03*
X-110398Y-163635D03*
X-132879Y-197080D03*
X-302260Y-24384D03*
X-274574Y-22352D03*
X-229616Y-152654D03*
X-198188Y-131362D03*
X-293624Y-95250D03*
X-189329Y-55964D03*
X-296418Y-53594D03*
X-202594Y-34880D03*
X-209296Y-24892D03*
X-302006Y-46228D03*
X-21623Y173578D03*
X-26254Y208776D03*
X-285750Y-116078D03*
X-216834Y-87747D03*
X-97028Y208534D03*
X-72976Y157976D03*
X-11938Y163322D03*
X-15374Y204968D03*
X-274574Y-140716D03*
X-205545Y-100046D03*
X-99060Y193294D03*
X-72664Y146682D03*
X11894Y160425D03*
X13832Y197680D03*
X-152862Y102868D03*
X-129487Y87113D03*
X-268628Y-143787D03*
X-161801Y-85238D03*
X-131321Y-111070D03*
X-105410Y-89408D03*
X-248448Y-178259D03*
X-140004Y-99670D03*
X-99123Y-131398D03*
X-69144Y-96750D03*
X-268478Y-213360D03*
X-206852Y-271943D03*
X-107815Y-109863D03*
X-76726Y-79028D03*
X-224536Y-200660D03*
X-125938Y32685D03*
X-89898Y23064D03*
X-198628Y-235712D03*
X-68731Y-74824D03*
X-76150Y67258D03*
X-112972Y45536D03*
X-76992Y30863D03*
X-180687Y-250198D03*
X-62484Y-86106D03*
X-26213Y78693D03*
X-33731Y101193D03*
X-90700Y68598D03*
X-57803Y43322D03*
X-137160Y-268732D03*
X-55372Y-82042D03*
X-95594Y13336D03*
X-111506Y15748D03*
X-162306Y-261620D03*
X-55880Y-75692D03*
X-28800Y-37774D03*
X-119888Y-283972D03*
X-54356Y-57912D03*
X-74168Y-28194D03*
X-39689Y6726D03*
X303584Y-136784D03*
X267716Y-114808D03*
X210250Y-95576D03*
X235507Y235155D03*
X163242Y163242D03*
X153476Y247613D03*
X143820Y233596D03*
X194359Y194007D03*
X56642Y-243078D03*
X219510Y71301D03*
X101600Y-183134D03*
X108791Y-203598D03*
X149388Y175833D03*
X191770Y27686D03*
X229255Y26301D03*
X279654Y-180594D03*
X219375Y-147157D03*
X264133Y202373D03*
X209751Y160643D03*
X283258Y-67001D03*
X111526Y268767D03*
X101439Y244415D03*
X11684Y-258318D03*
X142748Y-153162D03*
X174035Y-199378D03*
X80338Y193474D03*
X161546Y-54906D03*
X82550Y-28702D03*
X104648Y70358D03*
X78620Y60023D03*
X38962Y93582D03*
X262187Y31943D03*
X247396Y34036D03*
X191262Y35560D03*
X256503Y-60912D03*
X250065Y-85093D03*
X250287Y-219598D03*
X203023Y-179025D03*
X290576Y162560D03*
X238858Y127904D03*
X-9144Y-271272D03*
X290351Y-19306D03*
X249428Y-11684D03*
X270048Y-18036D03*
X70358Y282448D03*
X70129Y261463D03*
X184404Y-99822D03*
X151384Y-74168D03*
X237320Y-128084D03*
X18796Y207010D03*
X27506Y269044D03*
X47752Y-73152D03*
X38100Y-56642D03*
X72390Y0D03*
X269748Y0D03*
X73660Y102616D03*
X164723Y214275D03*
X184658Y59436D03*
X67310Y22352D03*
X219480Y-250423D03*
X196645Y-224774D03*
X307609Y127217D03*
X276273Y114237D03*
X66315Y-283843D03*
X68834Y-294640D03*
X290068Y24130D03*
X298969Y19402D03*
X42497Y294247D03*
X244801Y-49309D03*
X296672Y-52070D03*
X31796Y240953D03*
X201168Y-58420D03*
X242168Y-59510D03*
X134514Y-102600D03*
X238398Y-182313D03*
X-13970Y-140716D03*
X11430Y124968D03*
X112349Y-85592D03*
X176022Y75438D03*
X28194Y-82804D03*
X17272Y-40132D03*
X119965Y73874D03*
X181610Y-278892D03*
X164186Y-265954D03*
X323879Y76335D03*
X304374Y71589D03*
X21707Y331986D03*
X20391Y311825D03*
X112270Y-268626D03*
X120339Y-288518D03*
X283464Y65786D03*
X230855Y-95325D03*
X288503Y-119204D03*
X80772Y236474D03*
X206502Y-34544D03*
X308613Y-49530D03*
X102816Y-132825D03*
X30226Y180848D03*
X68328Y304977D03*
X40800Y-51929D03*
X43434Y0D03*
X66040Y0D03*
X90880Y-117270D03*
X-6604Y-144018D03*
X175491Y81067D03*
X-6604Y-132842D03*
X296926Y97618D03*
X98835Y296514D03*
X186112Y-251601D03*
X147173Y-298778D03*
X140134Y-284771D03*
X331344Y33422D03*
X315724Y31731D03*
X64859Y326422D03*
X62206Y311347D03*
X150876Y-249174D03*
X159344Y-274619D03*
X268986Y111252D03*
X296930Y112422D03*
X205232Y-142240D03*
X257647Y-185538D03*
X118863Y220103D03*
X150296Y279674D03*
X209296Y9906D03*
X317500Y0D03*
X70104Y-105918D03*
X65739Y-156291D03*
X74998Y150596D03*
X21082Y39878D03*
X173482Y85344D03*
X283178Y143584D03*
X99060Y-300228D03*
X101600Y-316992D03*
X108204Y-337058D03*
X332740Y0D03*
X354159Y0D03*
X106916Y315220D03*
X113441Y335381D03*
X185420Y-224282D03*
X223913Y-274359D03*
X247972Y153203D03*
X301181Y186304D03*
X176276Y-176530D03*
X158332Y192968D03*
X106934Y129794D03*
X223812Y274438D03*
X201422Y58166D03*
X342146Y91549D03*
X178747Y47756D03*
X-9121Y-148000D03*
X-19749Y-353698D03*
X94742Y-83566D03*
X70199Y-63440D03*
X-18159Y-147377D03*
X-4318Y-93726D03*
X58420Y16002D03*
X59182Y-327406D03*
X61722Y-339852D03*
X327660Y-58420D03*
X340105Y-60478D03*
X157517Y293350D03*
X163373Y304445D03*
X220980Y-189992D03*
X221996Y188468D03*
X193655Y157553D03*
X267222Y218909D03*
X145224Y-203012D03*
X125954Y-176112D03*
X181441Y104501D03*
X140462Y93218D03*
X117024Y-48175D03*
X322067Y-121933D03*
X56896Y65786D03*
X65560Y86142D03*
X90989Y59540D03*
X299690Y172772D03*
X102108Y123698D03*
X266346Y-219971D03*
X201642Y-280480D03*
X164592Y-141224D03*
X160782Y52324D03*
X82296Y28448D03*
X-17272Y-330708D03*
X-17504Y-338478D03*
X315711Y-123186D03*
X244784Y-151932D03*
X289407Y-179086D03*
X187960Y222250D03*
X216955Y247503D03*
X223509Y254749D03*
X101879Y-228046D03*
X139571Y-310077D03*
X224650Y100589D03*
X310280Y139935D03*
X81280Y-194818D03*
X139954Y150876D03*
X89662Y-7112D03*
X82042Y-5588D03*
X340090Y-28382D03*
X114554Y-286512D03*
X118071Y-312124D03*
X135636Y-276352D03*
X139652Y-297839D03*
X141732Y-272796D03*
X147767Y-285232D03*
X177292Y-252476D03*
X201116Y-287083D03*
X264176Y230380D03*
X250952Y218694D03*
X183388Y-247904D03*
X114904Y-154817D03*
X316575Y-89480D03*
X184039Y-58257D03*
X219710Y-240030D03*
X301244Y-122174D03*
X176162Y244337D03*
X196595Y273305D03*
X220218Y-215646D03*
X188068Y-178193D03*
X43207Y262632D03*
X54577Y332048D03*
X105835Y267172D03*
X116592Y307610D03*
X235966Y-197612D03*
X105156Y-87630D03*
X77724Y272288D03*
X35306Y125476D03*
X64349Y272155D03*
X73699Y312919D03*
X263906Y-158750D03*
X185928Y-112268D03*
X54904Y214051D03*
X272542Y-144018D03*
X285750Y-114300D03*
X262890Y-104902D03*
X291846Y-99568D03*
X266437Y-96144D03*
X15733Y-252785D03*
X19415Y-293492D03*
X293878Y-94488D03*
X263083Y-78694D03*
X56683Y-268400D03*
X60540Y-288674D03*
X45265Y-231926D03*
X55536Y-281959D03*
X300736Y-69342D03*
X215572Y-48591D03*
X42164Y-216916D03*
X22821Y-236725D03*
X23834Y-278598D03*
X304038Y-45466D03*
X224112Y-29611D03*
X0Y-226060D03*
X308102Y-3556D03*
X253127Y-7617D03*
X307848Y20066D03*
X245381Y12623D03*
X307594Y26670D03*
X233953Y22879D03*
X73448Y242465D03*
X62346Y203906D03*
X296672Y51562D03*
X244948Y48282D03*
X229870Y99314D03*
X66765Y194453D03*
X78232Y229362D03*
X293878Y93726D03*
X216070Y64279D03*
X209552Y129029D03*
X193294Y118872D03*
X118281Y204511D03*
X99200Y171246D03*
X292330Y99130D03*
X226850Y77040D03*
X213868Y99822D03*
X283464Y121666D03*
X194265Y80268D03*
X276345Y136176D03*
X194393Y95095D03*
X202946Y75946D03*
X194189Y72618D03*
X260350Y165100D03*
X160782Y105918D03*
X22924Y-171110D03*
X29159Y-210996D03*
X250260Y180058D03*
X160020Y110490D03*
X156119Y-105056D03*
X143739Y-96151D03*
X31311Y-203231D03*
X26203Y-162484D03*
X231586Y202984D03*
X137433Y120654D03*
X101635Y-152285D03*
X89540Y-133314D03*
X11130Y-155704D03*
X254Y-192278D03*
X213614Y220218D03*
X123046Y128345D03*
X117158Y-133550D03*
X103458Y-117436D03*
X183388Y247396D03*
X100524Y139365D03*
X68956Y109913D03*
X94488Y151130D03*
X92000Y136109D03*
X68314Y101327D03*
X163322Y261620D03*
X57849Y99506D03*
X76889Y132737D03*
X159004Y264160D03*
X92725Y-91706D03*
X61722Y-60960D03*
X136144Y276352D03*
X19812Y76200D03*
X79503Y-44153D03*
X53826Y-28617D03*
X14725Y-82359D03*
X16579Y-117372D03*
X120396Y282956D03*
X60198Y134366D03*
X133495Y-62307D03*
X108204Y-50292D03*
X60413Y-97719D03*
X36800Y-62101D03*
X93472Y293878D03*
X47986Y144532D03*
X132246Y-75913D03*
X97458Y-55828D03*
X66294Y298450D03*
X21590Y85344D03*
X28419Y68128D03*
X16256Y37338D03*
X25146Y307086D03*
X8890Y96012D03*
X91193Y37574D03*
X77421Y31870D03*
X72415Y9460D03*
X28448Y4318D03*
X14478Y320040D03*
X8382Y90678D03*
X92267Y11091D03*
X-107442Y-27940D03*
D39*
X12700Y-134620D03*
D38*
X132334Y90678D03*
X177546Y111760D03*
X-6858Y151384D03*
X16510Y248158D03*
X-48006Y254000D03*
X-69596Y143256D03*
X-71120Y132842D03*
X-169418Y-82804D03*
D39*
X-20574Y101600D03*
D38*
X125476Y112522D03*
D39*
X35560Y104140D03*
X-143256Y-46736D03*
X-7620Y101600D03*
D38*
X-73660Y198120D03*
X-91186Y-62484D03*
X85723Y218621D03*
X98298Y47498D03*
X-61976Y166370D03*
X99060Y22352D03*
X46228Y125222D03*
X66802Y178562D03*
X32004Y175260D03*
X-21590Y4064D03*
X-24892Y-762D03*
X68326Y127254D03*
X-51816Y-1270D03*
X-345722Y-1200D03*
X-51816Y-23876D03*
X59436Y193294D03*
X331453Y-33200D03*
X208280Y-21844D03*
X-65389Y206941D03*
X-9627Y216416D03*
X320701Y52155D03*
X206502Y32766D03*
M02*
